M48
; DRILL file {KiCad 7.0.0-da2b9df05c~163~ubuntu22.04.1} date Sat Feb 25 14:43:59 2023
; FORMAT={-:-/ absolute / metric / decimal}
; #@! TF.CreationDate,2023-02-25T14:43:59+01:00
; #@! TF.GenerationSoftware,Kicad,Pcbnew,7.0.0-da2b9df05c~163~ubuntu22.04.1
; #@! TF.FileFunction,MixedPlating,1,2
FMAT,2
METRIC
; #@! TA.AperFunction,Plated,PTH,ViaDrill
T1C0.400
; #@! TA.AperFunction,Plated,PTH,ComponentDrill
T2C0.710
; #@! TA.AperFunction,Plated,PTH,ComponentDrill
T3C0.800
; #@! TA.AperFunction,Plated,PTH,ComponentDrill
T4C1.000
; #@! TA.AperFunction,Plated,PTH,ComponentDrill
T5C1.075
; #@! TA.AperFunction,Plated,PTH,ComponentDrill
T6C1.200
%
G90
G05
T1
X132.71Y-86.653
X132.71Y-87.923
X133.77Y-92.069
X135.631Y-93.892
X136.901Y-95.035
X142.87Y-85.764
X143.886Y-94.273
X146.146Y-94.158
X146.146Y-96.19
X146.273Y-100.889
X146.273Y-106.096
X148.686Y-94.285
X148.686Y-101.778
X148.686Y-106.858
X150.464Y-100.889
X150.464Y-106.096
X150.718Y-109.779
X151.353Y-94.285
X152.496Y-96.444
X152.496Y-101.778
X152.496Y-106.858
X152.556Y-84.616
X153.258Y-94.412
X154.02Y-96.444
X154.02Y-101.778
X154.02Y-106.858
X154.969Y-84.616
X155.544Y-98.476
X155.544Y-100.254
X155.544Y-103.302
X155.544Y-105.207
X155.544Y-108.509
X155.544Y-109.779
X157.068Y-94.031
X157.382Y-84.616
X157.475Y-96.94
X158.465Y-94.031
X159.795Y-84.616
X161.031Y-94.908
X162.047Y-112.053
X162.208Y-84.616
X164.621Y-84.616
X165.349Y-105.83
X165.857Y-100.496
X166.085Y-93.396
X166.847Y-94.158
X166.881Y-96.563
X167.228Y-105.588
X167.355Y-88.316
X167.355Y-91.618
X167.355Y-110.795
X167.609Y-84.633
X167.99Y-109.271
X168.371Y-100.889
X169.514Y-91.491
X169.54Y-114.085
X169.768Y-100.381
X170.022Y-84.633
X170.149Y-109.271
X171.165Y-91.491
X171.216Y-114.072
X172.181Y-100.381
X172.435Y-84.633
X172.562Y-109.271
X172.943Y-91.491
X173.324Y-88.189
X173.324Y-94.539
X173.324Y-97.206
X173.324Y-103.429
X173.324Y-106.096
X173.629Y-114.072
X174.594Y-88.189
X174.594Y-94.539
X174.594Y-97.206
X174.594Y-103.429
X174.594Y-106.096
X174.848Y-84.633
X175.483Y-109.271
X175.61Y-91.364
X175.61Y-100.381
X175.61Y-107.874
X175.61Y-110.668
X175.673Y-92.825
X175.737Y-89.967
X175.8Y-98.92
X175.8Y-101.841
X176.042Y-114.072
X177.261Y-84.633
X178.455Y-114.072
X179.166Y-95.809
X179.293Y-104.826
X179.674Y-84.633
X180.868Y-114.072
X180.944Y-95.809
X180.944Y-104.826
X182.087Y-85.649
X182.214Y-88.062
X182.214Y-94.666
X182.214Y-96.952
X182.722Y-113.843
X182.849Y-103.429
X182.849Y-104.826
X182.849Y-106.096
X183.103Y-100.254
X183.738Y-109.271
X184.5Y-87.046
X184.687Y-94.522
X184.754Y-91.491
X184.881Y-112.192
X186.126Y-110.058
X186.659Y-88.443
X187.396Y-108.534
X188.564Y-90.094
X191.799Y-93.76
X191.799Y-96.173
X191.799Y-98.586
X191.799Y-100.999
X191.799Y-103.412
X191.799Y-105.825
T2
X117.19Y-112.7
X122.29Y-114.3
T3
X189.428Y-111.114
X189.428Y-113.614
T4
X135.255Y-86.653
X135.441Y-103.664
X135.441Y-108.664
X137.795Y-86.653
X142.331Y-88.946
X142.331Y-91.486
X144.871Y-88.946
X144.871Y-91.486
X147.411Y-88.946
X147.411Y-91.486
X149.951Y-88.946
X149.951Y-91.486
X152.491Y-88.946
X152.491Y-91.486
X155.031Y-88.946
X155.031Y-91.486
X157.571Y-88.946
X157.571Y-91.486
X160.111Y-88.946
X160.111Y-91.486
X162.651Y-88.946
X162.651Y-91.486
X164.841Y-98.464
X164.841Y-113.864
X165.191Y-88.946
X165.191Y-91.486
X186.405Y-93.65
X186.405Y-96.19
X186.405Y-98.73
X186.405Y-101.27
X186.405Y-103.81
X186.405Y-106.35
X187.599Y-85.979
X188.945Y-93.65
X188.945Y-96.19
X188.945Y-98.73
X188.945Y-101.27
X188.945Y-103.81
X188.945Y-106.35
T5
X130.17Y-90.209
X132.71Y-90.209
X135.25Y-90.209
X137.79Y-90.209
T6
X112.11Y-87.3
X112.11Y-92.38
X112.11Y-97.46
X112.11Y-102.54
X112.11Y-107.62
X112.11Y-112.7
X129.916Y-98.584
X129.916Y-113.584
T0
M30
