G04 #@! TF.GenerationSoftware,KiCad,Pcbnew,7.0.0-da2b9df05c~163~ubuntu22.04.1*
G04 #@! TF.CreationDate,2023-02-25T14:43:59+01:00*
G04 #@! TF.ProjectId,power_board,706f7765-725f-4626-9f61-72642e6b6963,rev?*
G04 #@! TF.SameCoordinates,Original*
G04 #@! TF.FileFunction,Copper,L1,Top*
G04 #@! TF.FilePolarity,Positive*
%FSLAX46Y46*%
G04 Gerber Fmt 4.6, Leading zero omitted, Abs format (unit mm)*
G04 Created by KiCad (PCBNEW 7.0.0-da2b9df05c~163~ubuntu22.04.1) date 2023-02-25 14:43:59*
%MOMM*%
%LPD*%
G01*
G04 APERTURE LIST*
G04 Aperture macros list*
%AMRoundRect*
0 Rectangle with rounded corners*
0 $1 Rounding radius*
0 $2 $3 $4 $5 $6 $7 $8 $9 X,Y pos of 4 corners*
0 Add a 4 corners polygon primitive as box body*
4,1,4,$2,$3,$4,$5,$6,$7,$8,$9,$2,$3,0*
0 Add four circle primitives for the rounded corners*
1,1,$1+$1,$2,$3*
1,1,$1+$1,$4,$5*
1,1,$1+$1,$6,$7*
1,1,$1+$1,$8,$9*
0 Add four rect primitives between the rounded corners*
20,1,$1+$1,$2,$3,$4,$5,0*
20,1,$1+$1,$4,$5,$6,$7,0*
20,1,$1+$1,$6,$7,$8,$9,0*
20,1,$1+$1,$8,$9,$2,$3,0*%
G04 Aperture macros list end*
G04 #@! TA.AperFunction,ComponentPad*
%ADD10R,1.700000X1.700000*%
G04 #@! TD*
G04 #@! TA.AperFunction,ComponentPad*
%ADD11O,1.700000X1.700000*%
G04 #@! TD*
G04 #@! TA.AperFunction,SMDPad,CuDef*
%ADD12R,2.800000X3.500000*%
G04 #@! TD*
G04 #@! TA.AperFunction,SMDPad,CuDef*
%ADD13RoundRect,0.250000X0.700000X-0.275000X0.700000X0.275000X-0.700000X0.275000X-0.700000X-0.275000X0*%
G04 #@! TD*
G04 #@! TA.AperFunction,ComponentPad*
%ADD14R,1.600000X1.600000*%
G04 #@! TD*
G04 #@! TA.AperFunction,ComponentPad*
%ADD15C,1.600000*%
G04 #@! TD*
G04 #@! TA.AperFunction,ComponentPad*
%ADD16R,1.750000X2.250000*%
G04 #@! TD*
G04 #@! TA.AperFunction,ComponentPad*
%ADD17O,1.750000X2.250000*%
G04 #@! TD*
G04 #@! TA.AperFunction,ComponentPad*
%ADD18C,1.270000*%
G04 #@! TD*
G04 #@! TA.AperFunction,ComponentPad*
%ADD19C,2.400000*%
G04 #@! TD*
G04 #@! TA.AperFunction,ComponentPad*
%ADD20RoundRect,0.250000X-1.550000X0.650000X-1.550000X-0.650000X1.550000X-0.650000X1.550000X0.650000X0*%
G04 #@! TD*
G04 #@! TA.AperFunction,ComponentPad*
%ADD21O,3.600000X1.800000*%
G04 #@! TD*
G04 #@! TA.AperFunction,ComponentPad*
%ADD22R,2.300000X2.000000*%
G04 #@! TD*
G04 #@! TA.AperFunction,ComponentPad*
%ADD23C,2.300000*%
G04 #@! TD*
G04 #@! TA.AperFunction,ViaPad*
%ADD24C,0.800000*%
G04 #@! TD*
G04 #@! TA.AperFunction,ViaPad*
%ADD25C,1.000000*%
G04 #@! TD*
G04 #@! TA.AperFunction,Conductor*
%ADD26C,1.000000*%
G04 #@! TD*
G04 #@! TA.AperFunction,Conductor*
%ADD27C,0.500000*%
G04 #@! TD*
G04 #@! TA.AperFunction,Conductor*
%ADD28C,0.200000*%
G04 #@! TD*
G04 #@! TA.AperFunction,Conductor*
%ADD29C,0.250000*%
G04 #@! TD*
G04 APERTURE END LIST*
D10*
G04 #@! TO.P,J9,1,Pin_1*
G04 #@! TO.N,Board_0-/PowerBoard/I1N_0*
X165190999Y-88945999D03*
D11*
G04 #@! TO.P,J9,2,Pin_2*
G04 #@! TO.N,Board_0-/PowerBoard/I1P_0*
X165190999Y-91485999D03*
G04 #@! TO.P,J9,3,Pin_3*
G04 #@! TO.N,Board_0-/PowerBoard/I2N_0*
X162650999Y-88945999D03*
G04 #@! TO.P,J9,4,Pin_4*
G04 #@! TO.N,Board_0-/PowerBoard/I2P_0*
X162650999Y-91485999D03*
G04 #@! TO.P,J9,5,Pin_5*
G04 #@! TO.N,Board_0-/PowerBoard/I3N_0*
X160110999Y-88945999D03*
G04 #@! TO.P,J9,6,Pin_6*
G04 #@! TO.N,Board_0-/PowerBoard/I3P_0*
X160110999Y-91485999D03*
G04 #@! TO.P,J9,7,Pin_7*
G04 #@! TO.N,Board_0-/PowerBoard/I1N_1*
X157570999Y-88945999D03*
G04 #@! TO.P,J9,8,Pin_8*
G04 #@! TO.N,Board_0-/PowerBoard/I1P_1*
X157570999Y-91485999D03*
G04 #@! TO.P,J9,9,Pin_9*
G04 #@! TO.N,Board_0-/PowerBoard/I2N_1*
X155030999Y-88945999D03*
G04 #@! TO.P,J9,10,Pin_10*
G04 #@! TO.N,Board_0-/PowerBoard/I2P_1*
X155030999Y-91485999D03*
G04 #@! TO.P,J9,11,Pin_11*
G04 #@! TO.N,Board_0-/PowerBoard/I3N_1*
X152490999Y-88945999D03*
G04 #@! TO.P,J9,12,Pin_12*
G04 #@! TO.N,Board_0-/PowerBoard/I3P_1*
X152490999Y-91485999D03*
G04 #@! TO.P,J9,13,Pin_13*
G04 #@! TO.N,Board_0-+3.3VADC*
X149950999Y-88945999D03*
G04 #@! TO.P,J9,14,Pin_14*
G04 #@! TO.N,Board_0-/PowerBoard/U1_S*
X149950999Y-91485999D03*
G04 #@! TO.P,J9,15,Pin_15*
G04 #@! TO.N,Board_0-+3V3*
X147410999Y-88945999D03*
G04 #@! TO.P,J9,16,Pin_16*
G04 #@! TO.N,Board_0-/PowerBoard/U2_S*
X147410999Y-91485999D03*
G04 #@! TO.P,J9,17,Pin_17*
G04 #@! TO.N,Board_0-GNDREF*
X144870999Y-88945999D03*
G04 #@! TO.P,J9,18,Pin_18*
G04 #@! TO.N,Board_0-/PowerBoard/U3_S*
X144870999Y-91485999D03*
G04 #@! TO.P,J9,19,Pin_19*
G04 #@! TO.N,Board_0-GND*
X142330999Y-88945999D03*
G04 #@! TO.P,J9,20,Pin_20*
X142330999Y-91485999D03*
G04 #@! TD*
D12*
G04 #@! TO.P,RV2,1*
G04 #@! TO.N,Board_0-/PowerBoard/UN*
X124167999Y-97574999D03*
G04 #@! TO.P,RV2,2*
G04 #@! TO.N,Board_0-/PowerBoard/U2*
X116867999Y-97574999D03*
G04 #@! TD*
G04 #@! TO.P,RV3,1*
G04 #@! TO.N,Board_0-/PowerBoard/UN*
X124167999Y-106210999D03*
G04 #@! TO.P,RV3,2*
G04 #@! TO.N,Board_0-/PowerBoard/U3*
X116867999Y-106210999D03*
G04 #@! TD*
G04 #@! TO.P,RV1,1*
G04 #@! TO.N,Board_0-/PowerBoard/UN*
X124167999Y-88303999D03*
G04 #@! TO.P,RV1,2*
G04 #@! TO.N,Board_0-/PowerBoard/U1*
X116867999Y-88303999D03*
G04 #@! TD*
D10*
G04 #@! TO.P,J3,1,Pin_1*
G04 #@! TO.N,Board_0-GNDREF*
X187598799Y-85979199D03*
G04 #@! TD*
D13*
G04 #@! TO.P,L1,1,1*
G04 #@! TO.N,Board_0-/PowerBoard/UN_{in1}*
X125826000Y-114529000D03*
G04 #@! TO.P,L1,2,2*
G04 #@! TO.N,Board_0-GNDREF*
X125826000Y-111379000D03*
G04 #@! TD*
D10*
G04 #@! TO.P,J1,1,Pin_1*
G04 #@! TO.N,Board_0-GND*
X137794999Y-86652999D03*
D11*
G04 #@! TO.P,J1,2,Pin_2*
G04 #@! TO.N,Board_0-+3V3*
X135254999Y-86652999D03*
G04 #@! TD*
D10*
G04 #@! TO.P,J4,1,Pin_1*
G04 #@! TO.N,Board_0-/PowerBoard/IA0+*
X186404999Y-93649999D03*
D11*
G04 #@! TO.P,J4,2,Pin_2*
G04 #@! TO.N,Board_0-/PowerBoard/IA0-*
X188944999Y-93649999D03*
G04 #@! TO.P,J4,3,Pin_3*
G04 #@! TO.N,Board_0-/PowerBoard/IB0+*
X186404999Y-96189999D03*
G04 #@! TO.P,J4,4,Pin_4*
G04 #@! TO.N,Board_0-/PowerBoard/IB0-*
X188944999Y-96189999D03*
G04 #@! TO.P,J4,5,Pin_5*
G04 #@! TO.N,Board_0-/PowerBoard/IC0+*
X186404999Y-98729999D03*
G04 #@! TO.P,J4,6,Pin_6*
G04 #@! TO.N,Board_0-/PowerBoard/IC0-*
X188944999Y-98729999D03*
G04 #@! TO.P,J4,7,Pin_7*
G04 #@! TO.N,Board_0-/PowerBoard/IA1+*
X186404999Y-101269999D03*
G04 #@! TO.P,J4,8,Pin_8*
G04 #@! TO.N,Board_0-/PowerBoard/IA1-*
X188944999Y-101269999D03*
G04 #@! TO.P,J4,9,Pin_9*
G04 #@! TO.N,Board_0-/PowerBoard/IB1+*
X186404999Y-103809999D03*
G04 #@! TO.P,J4,10,Pin_10*
G04 #@! TO.N,Board_0-/PowerBoard/IB1-*
X188944999Y-103809999D03*
G04 #@! TO.P,J4,11,Pin_11*
G04 #@! TO.N,Board_0-/PowerBoard/IC1+*
X186404999Y-106349999D03*
G04 #@! TO.P,J4,12,Pin_12*
G04 #@! TO.N,Board_0-/PowerBoard/IC1-*
X188944999Y-106349999D03*
G04 #@! TD*
D14*
G04 #@! TO.P,C6,1*
G04 #@! TO.N,Board_0-+3V3*
X189427599Y-113614399D03*
D15*
G04 #@! TO.P,C6,2*
G04 #@! TO.N,Board_0-GND*
X189427600Y-111114400D03*
G04 #@! TD*
D16*
G04 #@! TO.P,PS2,1,-Vin*
G04 #@! TO.N,Board_0-GND*
X137789999Y-90208999D03*
D17*
G04 #@! TO.P,PS2,2,+Vin*
G04 #@! TO.N,Board_0-+3V3*
X135249999Y-90208999D03*
G04 #@! TO.P,PS2,3,-Vout*
G04 #@! TO.N,Board_0-GNDREF*
X132709999Y-90208999D03*
G04 #@! TO.P,PS2,4,+Vout*
G04 #@! TO.N,Board_0-+3.3VADC*
X130169999Y-90208999D03*
G04 #@! TD*
D18*
G04 #@! TO.P,F1,1*
G04 #@! TO.N,Board_0-/PowerBoard/UN*
X117190000Y-112700000D03*
G04 #@! TO.P,F1,2*
G04 #@! TO.N,Board_0-/PowerBoard/UN_{in1}*
X122290000Y-114300000D03*
G04 #@! TD*
D19*
G04 #@! TO.P,C1,1*
G04 #@! TO.N,Board_0-/PowerBoard/U1*
X129916000Y-98584000D03*
G04 #@! TO.P,C1,2*
G04 #@! TO.N,Board_0-/PowerBoard/UN_{in1}*
X129916000Y-113584000D03*
G04 #@! TD*
D20*
G04 #@! TO.P,J2,1,Pin_1*
G04 #@! TO.N,Board_0-/PowerBoard/U1*
X112110000Y-87300000D03*
D21*
G04 #@! TO.P,J2,2,Pin_2*
X112109999Y-92379999D03*
G04 #@! TO.P,J2,3,Pin_3*
G04 #@! TO.N,Board_0-/PowerBoard/U2*
X112109999Y-97459999D03*
G04 #@! TO.P,J2,4,Pin_4*
X112109999Y-102539999D03*
G04 #@! TO.P,J2,5,Pin_5*
G04 #@! TO.N,Board_0-/PowerBoard/U3*
X112109999Y-107619999D03*
G04 #@! TO.P,J2,6,Pin_6*
G04 #@! TO.N,Board_0-/PowerBoard/UN*
X112109999Y-112699999D03*
G04 #@! TD*
D22*
G04 #@! TO.P,PS1,1,AC/L*
G04 #@! TO.N,Board_0-/PowerBoard/U1*
X135440999Y-103663999D03*
D23*
G04 #@! TO.P,PS1,2,AC/N*
G04 #@! TO.N,Board_0-GNDREF*
X135441000Y-108664000D03*
G04 #@! TO.P,PS1,3,-Vout*
G04 #@! TO.N,Board_0-GND*
X164841000Y-98464000D03*
G04 #@! TO.P,PS1,4,+Vout*
G04 #@! TO.N,Board_0-+3V3*
X164841000Y-113864000D03*
G04 #@! TD*
D24*
G04 #@! TO.N,Board_0-/PowerBoard/I1N_1*
X167355000Y-88316000D03*
G04 #@! TO.N,Board_0-/PowerBoard/I1P_1*
X167355000Y-91618000D03*
G04 #@! TO.N,Board_0-/PowerBoard/I2N_1*
X166880669Y-96562752D03*
G04 #@! TO.N,Board_0-/PowerBoard/I2P_1*
X168371000Y-100889000D03*
G04 #@! TO.N,Board_0-/PowerBoard/I3N_1*
X167228000Y-105588000D03*
G04 #@! TO.N,Board_0-/PowerBoard/I3P_1*
X167355000Y-110795000D03*
G04 #@! TO.N,Board_0-/PowerBoard/IA1+*
X175673500Y-92824500D03*
G04 #@! TO.N,Board_0-/PowerBoard/IA1-*
X175737000Y-89967000D03*
G04 #@! TO.N,Board_0-/PowerBoard/IB1+*
X175800500Y-101841500D03*
G04 #@! TO.N,Board_0-/PowerBoard/IB1-*
X175800500Y-98920500D03*
G04 #@! TO.N,Board_0-/PowerBoard/IC1+*
X175610000Y-110668000D03*
G04 #@! TO.N,Board_0-/PowerBoard/IC1-*
X175610000Y-107874000D03*
G04 #@! TO.N,Board_0-/PowerBoard/U2_S*
X148686000Y-101778000D03*
G04 #@! TO.N,Board_0-/PowerBoard/U3_S*
X148686000Y-106858000D03*
D25*
G04 #@! TO.N,Board_0-GND*
X162047000Y-112053000D03*
D24*
G04 #@! TO.N,Board_0-GNDREF*
X174594000Y-97206000D03*
X154020000Y-106858000D03*
X176041800Y-114071600D03*
X182849000Y-104826000D03*
X179293000Y-104826000D03*
X170022000Y-84633000D03*
X150464000Y-106096000D03*
X175610000Y-91364000D03*
X172943000Y-91491000D03*
X191799000Y-96173000D03*
X155544000Y-98476000D03*
X155544000Y-108509000D03*
X174594000Y-88189000D03*
X169514000Y-91491000D03*
X161031000Y-94908000D03*
X171165000Y-91491000D03*
X146273000Y-106096000D03*
X136901000Y-95035000D03*
X155544000Y-103302000D03*
X146146000Y-94158000D03*
X182214000Y-94666000D03*
X167990000Y-109271000D03*
X166847000Y-94158000D03*
X172181000Y-100381000D03*
X173628800Y-114071600D03*
X180944000Y-104826000D03*
X177261000Y-84633000D03*
X170149000Y-109271000D03*
X174594000Y-106096000D03*
X133770500Y-92069500D03*
X174594000Y-103429000D03*
X186659000Y-88443000D03*
X180944000Y-95809000D03*
X178454800Y-114071600D03*
X150464000Y-100889000D03*
X173324000Y-88189000D03*
X150718000Y-109779000D03*
X165349000Y-105830000D03*
X180867800Y-114071600D03*
X173324000Y-97206000D03*
X183103000Y-100254000D03*
X183738000Y-109271000D03*
X184754000Y-91491000D03*
X158465000Y-94031000D03*
X152496000Y-101778000D03*
X167609000Y-84633000D03*
X164621000Y-84616000D03*
X146146000Y-96190000D03*
X132710000Y-87923000D03*
X175483000Y-109271000D03*
X155544000Y-100254000D03*
X188564000Y-90094000D03*
X152496000Y-106858000D03*
X146273000Y-100889000D03*
X154969000Y-84616000D03*
X184687000Y-94522000D03*
X186125600Y-110058400D03*
X184500000Y-87046000D03*
X184881000Y-112192000D03*
X142870000Y-85764000D03*
X171215800Y-114071600D03*
X191799000Y-93760000D03*
X165857000Y-100496000D03*
X182849000Y-103429000D03*
X132710000Y-86653000D03*
X182214000Y-88062000D03*
X155544000Y-105207000D03*
X143886000Y-94273000D03*
X173324000Y-103429000D03*
X152496000Y-96444000D03*
X173324000Y-94539000D03*
X153258000Y-94412000D03*
X172435000Y-84633000D03*
X191799000Y-98586000D03*
X166085000Y-93396000D03*
X135631000Y-93892000D03*
X179674000Y-84633000D03*
X154020000Y-101778000D03*
X169768000Y-100381000D03*
X191799000Y-100999000D03*
X157068000Y-94031000D03*
X162208000Y-84616000D03*
X174594000Y-94539000D03*
X191799000Y-103412000D03*
X172562000Y-109271000D03*
X157475000Y-96940000D03*
X174848000Y-84633000D03*
X155544000Y-109779000D03*
X173324000Y-106096000D03*
X148686000Y-94285000D03*
X182722000Y-113843000D03*
X175610000Y-100381000D03*
X182087000Y-85649000D03*
X159795000Y-84616000D03*
X187395600Y-108534400D03*
X182849000Y-106096000D03*
X169540000Y-114085000D03*
X179166000Y-95809000D03*
X191799000Y-105825000D03*
X151353000Y-94285000D03*
X157382000Y-84616000D03*
X182214000Y-96952000D03*
X152556000Y-84616000D03*
X154020000Y-96444000D03*
G04 #@! TD*
D26*
G04 #@! TO.N,Board_0-+3.3VADC*
X132315000Y-84621000D02*
X130144000Y-86792000D01*
X149951000Y-88946000D02*
X145626000Y-84621000D01*
X145626000Y-84621000D02*
X132315000Y-84621000D01*
X130144000Y-86792000D02*
X130144000Y-90183000D01*
X130144000Y-90183000D02*
X130170000Y-90209000D01*
G04 #@! TO.N,Board_0-+3V3*
X139568000Y-95035000D02*
X135224000Y-90691000D01*
X135250000Y-86658000D02*
X135255000Y-86653000D01*
D27*
X164841000Y-113864000D02*
X166713000Y-115736000D01*
X166713000Y-115736000D02*
X187306000Y-115736000D01*
D26*
X135250000Y-90209000D02*
X135250000Y-86658000D01*
X164841000Y-113864000D02*
X144427000Y-113864000D01*
X144427000Y-113864000D02*
X139568000Y-109005000D01*
X139695000Y-88304000D02*
X141092000Y-86907000D01*
X135530000Y-88304000D02*
X139695000Y-88304000D01*
X135250000Y-90209000D02*
X135250000Y-88584000D01*
X135250000Y-88584000D02*
X135530000Y-88304000D01*
D27*
X187306000Y-115736000D02*
X189427600Y-113614400D01*
D26*
X139568000Y-109005000D02*
X139568000Y-95035000D01*
X145372000Y-86907000D02*
X147411000Y-88946000D01*
X141092000Y-86907000D02*
X145372000Y-86907000D01*
D28*
G04 #@! TO.N,Board_0-/PowerBoard/I1N_1*
X167355000Y-88316000D02*
X166835000Y-87796000D01*
X166835000Y-87796000D02*
X158721000Y-87796000D01*
X158721000Y-87796000D02*
X157571000Y-88946000D01*
G04 #@! TO.N,Board_0-/PowerBoard/I1P_1*
X158836000Y-90221000D02*
X157571000Y-91486000D01*
X165958000Y-90221000D02*
X158836000Y-90221000D01*
X167355000Y-91618000D02*
X165958000Y-90221000D01*
G04 #@! TO.N,Board_0-/PowerBoard/I2N_1*
X166876752Y-96562752D02*
X162950000Y-92636000D01*
X162950000Y-92636000D02*
X157094654Y-92636000D01*
X157094654Y-92636000D02*
X156306000Y-91847346D01*
X166880669Y-96562752D02*
X166876752Y-96562752D01*
X156306000Y-90221000D02*
X155031000Y-88946000D01*
X156306000Y-91847346D02*
X156306000Y-90221000D01*
G04 #@! TO.N,Board_0-/PowerBoard/I2P_1*
X168371000Y-100889000D02*
X168371000Y-98946000D01*
X156581000Y-93036000D02*
X155031000Y-91486000D01*
X168371000Y-98946000D02*
X162461000Y-93036000D01*
X162461000Y-93036000D02*
X156581000Y-93036000D01*
G04 #@! TO.N,Board_0-/PowerBoard/I3N_1*
X167228000Y-105588000D02*
X167228000Y-103772000D01*
X167228000Y-103772000D02*
X158357000Y-94901000D01*
X153766000Y-90221000D02*
X152491000Y-88946000D01*
X156471686Y-94901000D02*
X153766000Y-92195314D01*
X158357000Y-94901000D02*
X156471686Y-94901000D01*
X153766000Y-92195314D02*
X153766000Y-90221000D01*
G04 #@! TO.N,Board_0-/PowerBoard/I3P_1*
X156306000Y-95301000D02*
X152491000Y-91486000D01*
X166528000Y-103580000D02*
X158249000Y-95301000D01*
X166528000Y-109968000D02*
X166528000Y-103580000D01*
X167355000Y-110795000D02*
X166528000Y-109968000D01*
X158249000Y-95301000D02*
X156306000Y-95301000D01*
G04 #@! TO.N,Board_0-/PowerBoard/IA1+*
X186405000Y-101193000D02*
X186405000Y-101270000D01*
X176988000Y-91510000D02*
X181921314Y-91510000D01*
X183103000Y-92691686D02*
X183103000Y-97891000D01*
X175673500Y-92824500D02*
X176988000Y-91510000D01*
X181921314Y-91510000D02*
X183103000Y-92691686D01*
X183103000Y-97891000D02*
X186405000Y-101193000D01*
G04 #@! TO.N,Board_0-/PowerBoard/IA1-*
X187735000Y-99983000D02*
X188945000Y-101193000D01*
X182087000Y-91110000D02*
X183611000Y-92634000D01*
X183611000Y-97637000D02*
X185957000Y-99983000D01*
X188945000Y-101193000D02*
X188945000Y-101270000D01*
X176880000Y-91110000D02*
X182087000Y-91110000D01*
X175737000Y-89967000D02*
X176880000Y-91110000D01*
X185957000Y-99983000D02*
X187735000Y-99983000D01*
X183611000Y-92634000D02*
X183611000Y-97637000D01*
G04 #@! TO.N,Board_0-/PowerBoard/IB1+*
X175800500Y-101841500D02*
X177007000Y-100635000D01*
X177007000Y-100635000D02*
X181706000Y-100635000D01*
X181706000Y-100635000D02*
X184881000Y-103810000D01*
X184881000Y-103810000D02*
X186405000Y-103810000D01*
G04 #@! TO.N,Board_0-/PowerBoard/IB1-*
X175800500Y-98920500D02*
X176988000Y-100108000D01*
X181744686Y-100108000D02*
X184056686Y-102420000D01*
X187555000Y-102420000D02*
X188945000Y-103810000D01*
X184056686Y-102420000D02*
X187555000Y-102420000D01*
X176988000Y-100108000D02*
X181744686Y-100108000D01*
G04 #@! TO.N,Board_0-/PowerBoard/IC1+*
X185344340Y-106350000D02*
X186405000Y-106350000D01*
X182169340Y-109525000D02*
X185344340Y-106350000D01*
X175737000Y-110668000D02*
X176880000Y-109525000D01*
X176880000Y-109525000D02*
X182169340Y-109525000D01*
X175610000Y-110668000D02*
X175737000Y-110668000D01*
G04 #@! TO.N,Board_0-/PowerBoard/IC1-*
X176861000Y-109125000D02*
X182003654Y-109125000D01*
X175610000Y-107874000D02*
X176861000Y-109125000D01*
X186048654Y-105080000D02*
X187675000Y-105080000D01*
X182003654Y-109125000D02*
X186048654Y-105080000D01*
X187675000Y-105080000D02*
X188945000Y-106350000D01*
D26*
G04 #@! TO.N,Board_0-/PowerBoard/U1*
X112110000Y-87300000D02*
X115864000Y-87300000D01*
X129916000Y-98584000D02*
X127769000Y-96437000D01*
X115864000Y-87300000D02*
X116868000Y-88304000D01*
X134996000Y-103664000D02*
X129916000Y-98584000D01*
X135441000Y-103664000D02*
X134996000Y-103664000D01*
X112110000Y-87300000D02*
X112110000Y-92380000D01*
X127769000Y-86260000D02*
X126384000Y-84875000D01*
X120403000Y-84875000D02*
X116974000Y-88304000D01*
X116974000Y-88304000D02*
X116868000Y-88304000D01*
X126384000Y-84875000D02*
X120403000Y-84875000D01*
X127769000Y-96437000D02*
X127769000Y-86260000D01*
G04 #@! TO.N,Board_0-/PowerBoard/U2*
X112110000Y-97460000D02*
X112110000Y-102540000D01*
X112110000Y-97460000D02*
X116753000Y-97460000D01*
X116753000Y-97460000D02*
X116868000Y-97575000D01*
D29*
G04 #@! TO.N,Board_0-/PowerBoard/U2_S*
X148686000Y-101778000D02*
X147411000Y-100503000D01*
X147411000Y-100503000D02*
X147411000Y-91486000D01*
D26*
G04 #@! TO.N,Board_0-/PowerBoard/U3*
X112110000Y-107620000D02*
X115459000Y-107620000D01*
X115459000Y-107620000D02*
X116868000Y-106211000D01*
D29*
G04 #@! TO.N,Board_0-/PowerBoard/U3_S*
X148686000Y-106858000D02*
X144871000Y-103043000D01*
X144871000Y-103043000D02*
X144871000Y-91486000D01*
D26*
G04 #@! TO.N,Board_0-/PowerBoard/UN*
X124274000Y-88410000D02*
X124274000Y-97469000D01*
X112110000Y-112700000D02*
X117190000Y-112700000D01*
X124274000Y-97469000D02*
X124168000Y-97575000D01*
X124295000Y-97702000D02*
X124295000Y-106084000D01*
X124168000Y-88304000D02*
X124274000Y-88410000D01*
X124168000Y-106211000D02*
X117679000Y-112700000D01*
X124168000Y-97575000D02*
X124295000Y-97702000D01*
X124295000Y-106084000D02*
X124168000Y-106211000D01*
X117679000Y-112700000D02*
X117190000Y-112700000D01*
G04 #@! TO.N,Board_0-/PowerBoard/UN_{in1}*
X125826000Y-114529000D02*
X128971000Y-114529000D01*
X122290000Y-114300000D02*
X125597000Y-114300000D01*
X125597000Y-114300000D02*
X125826000Y-114529000D01*
X128971000Y-114529000D02*
X129916000Y-113584000D01*
G04 #@! TO.N,Board_0-GND*
X137790000Y-90209000D02*
X141054000Y-90209000D01*
X142331000Y-88946000D02*
X142331000Y-91486000D01*
X161793000Y-112307000D02*
X146934000Y-112307000D01*
X162047000Y-112053000D02*
X161793000Y-112307000D01*
X141054000Y-90209000D02*
X142331000Y-91486000D01*
X146934000Y-112307000D02*
X142331000Y-107704000D01*
X142331000Y-107704000D02*
X142331000Y-91486000D01*
G04 #@! TO.N,Board_0-GNDREF*
X138091000Y-96331000D02*
X138032000Y-96331000D01*
X125826000Y-111379000D02*
X128541000Y-108664000D01*
X135631000Y-93930000D02*
X135631000Y-93892000D01*
D27*
X132713500Y-88599500D02*
X132684000Y-88570000D01*
D26*
X136901000Y-95035000D02*
X136736000Y-95035000D01*
X135631000Y-93892000D02*
X135593000Y-93892000D01*
X132684000Y-88570000D02*
X132684000Y-86792000D01*
X132710000Y-91009000D02*
X132710000Y-90209000D01*
X138091000Y-106014000D02*
X138091000Y-96331000D01*
X135441000Y-108664000D02*
X138091000Y-106014000D01*
X136901000Y-95200000D02*
X136901000Y-95035000D01*
X138032000Y-96331000D02*
X136901000Y-95200000D01*
X132684000Y-90983000D02*
X132713500Y-90953500D01*
X135593000Y-93892000D02*
X132710000Y-91009000D01*
X128541000Y-108664000D02*
X135441000Y-108664000D01*
X136736000Y-95035000D02*
X135631000Y-93930000D01*
X132713500Y-90953500D02*
X132713500Y-88599500D01*
G04 #@! TD*
G04 #@! TA.AperFunction,Conductor*
G04 #@! TO.N,Board_0-GNDREF*
G36*
X146777500Y-100424154D02*
G01*
X146776968Y-100435437D01*
X146775298Y-100442909D01*
X146775543Y-100450705D01*
X146775543Y-100450707D01*
X146777439Y-100511017D01*
X146777500Y-100514913D01*
X146777500Y-100542856D01*
X146777988Y-100546721D01*
X146777989Y-100546732D01*
X146778019Y-100546970D01*
X146778934Y-100558596D01*
X146780081Y-100595096D01*
X146780082Y-100595103D01*
X146780327Y-100602889D01*
X146782500Y-100610370D01*
X146782502Y-100610380D01*
X146786022Y-100622495D01*
X146789967Y-100641542D01*
X146792526Y-100661797D01*
X146795395Y-100669045D01*
X146795398Y-100669054D01*
X146808838Y-100703001D01*
X146812621Y-100714048D01*
X146824982Y-100756593D01*
X146828953Y-100763308D01*
X146828954Y-100763310D01*
X146835375Y-100774168D01*
X146843930Y-100791631D01*
X146851448Y-100810617D01*
X146856030Y-100816924D01*
X146856031Y-100816925D01*
X146877491Y-100846462D01*
X146883905Y-100856227D01*
X146891755Y-100869500D01*
X146906458Y-100894362D01*
X146911976Y-100899879D01*
X146911976Y-100899880D01*
X146920889Y-100908793D01*
X146933525Y-100923588D01*
X146940938Y-100933791D01*
X146940943Y-100933796D01*
X146945528Y-100940107D01*
X146979667Y-100968349D01*
X146988308Y-100976212D01*
X147739378Y-101727282D01*
X147763617Y-101761579D01*
X147775018Y-101802001D01*
X147789955Y-101944121D01*
X147792458Y-101967928D01*
X147794463Y-101974100D01*
X147794465Y-101974107D01*
X147849465Y-102143377D01*
X147851473Y-102149556D01*
X147946960Y-102314944D01*
X148074747Y-102456866D01*
X148079997Y-102460680D01*
X148080000Y-102460683D01*
X148222863Y-102564479D01*
X148229248Y-102569118D01*
X148403712Y-102646794D01*
X148410070Y-102648145D01*
X148410072Y-102648146D01*
X148446874Y-102655968D01*
X148590513Y-102686500D01*
X148774984Y-102686500D01*
X148781487Y-102686500D01*
X148968288Y-102646794D01*
X149142752Y-102569118D01*
X149297253Y-102456866D01*
X149425040Y-102314944D01*
X149520527Y-102149556D01*
X149579542Y-101967928D01*
X149599504Y-101778000D01*
X149579542Y-101588072D01*
X149520527Y-101406444D01*
X149425040Y-101241056D01*
X149297253Y-101099134D01*
X149292003Y-101095319D01*
X149291999Y-101095316D01*
X149148006Y-100990699D01*
X149148004Y-100990697D01*
X149142752Y-100986882D01*
X149136821Y-100984241D01*
X149136817Y-100984239D01*
X148974226Y-100911849D01*
X148974219Y-100911846D01*
X148968288Y-100909206D01*
X148961935Y-100907855D01*
X148961927Y-100907853D01*
X148787849Y-100870852D01*
X148787846Y-100870851D01*
X148781487Y-100869500D01*
X148774984Y-100869500D01*
X148724767Y-100869500D01*
X148677314Y-100860061D01*
X148637086Y-100833181D01*
X148080819Y-100276914D01*
X148053939Y-100236686D01*
X148044500Y-100189233D01*
X148044500Y-93904000D01*
X154048451Y-93904000D01*
X155841778Y-95697327D01*
X155852472Y-95709521D01*
X155872013Y-95734987D01*
X155878455Y-95739930D01*
X155878459Y-95739934D01*
X155903919Y-95759470D01*
X155903929Y-95759478D01*
X155999124Y-95832524D01*
X156073136Y-95863181D01*
X156139640Y-95890728D01*
X156139642Y-95890728D01*
X156147149Y-95893838D01*
X156164667Y-95896144D01*
X156138088Y-99590728D01*
X156138088Y-99590729D01*
X156137983Y-99605267D01*
X156137983Y-99605269D01*
X156114878Y-102816914D01*
X156054745Y-111175394D01*
X156037838Y-111237014D01*
X155992491Y-111282036D01*
X155930749Y-111298500D01*
X147403096Y-111298500D01*
X147355643Y-111289061D01*
X147315415Y-111262181D01*
X144806126Y-108752892D01*
X144779076Y-108712251D01*
X144769810Y-108664322D01*
X144802154Y-104168522D01*
X144815992Y-104112487D01*
X144853699Y-104068785D01*
X144907106Y-104046888D01*
X144964639Y-104051541D01*
X145013832Y-104081736D01*
X147739378Y-106807283D01*
X147763617Y-106841580D01*
X147775018Y-106882002D01*
X147782780Y-106955848D01*
X147792458Y-107047928D01*
X147794463Y-107054100D01*
X147794465Y-107054107D01*
X147822698Y-107140997D01*
X147851473Y-107229556D01*
X147946960Y-107394944D01*
X148074747Y-107536866D01*
X148079997Y-107540680D01*
X148080000Y-107540683D01*
X148222863Y-107644479D01*
X148229248Y-107649118D01*
X148235181Y-107651759D01*
X148235182Y-107651760D01*
X148352515Y-107704000D01*
X148403712Y-107726794D01*
X148410070Y-107728145D01*
X148410072Y-107728146D01*
X148446874Y-107735968D01*
X148590513Y-107766500D01*
X148774984Y-107766500D01*
X148781487Y-107766500D01*
X148968288Y-107726794D01*
X149142752Y-107649118D01*
X149297253Y-107536866D01*
X149425040Y-107394944D01*
X149520527Y-107229556D01*
X149579542Y-107047928D01*
X149599504Y-106858000D01*
X149579542Y-106668072D01*
X149520527Y-106486444D01*
X149425040Y-106321056D01*
X149297253Y-106179134D01*
X149292003Y-106175319D01*
X149291999Y-106175316D01*
X149148006Y-106070699D01*
X149148004Y-106070697D01*
X149142752Y-106066882D01*
X149136821Y-106064241D01*
X149136817Y-106064239D01*
X148974226Y-105991849D01*
X148974219Y-105991846D01*
X148968288Y-105989206D01*
X148961935Y-105987855D01*
X148961927Y-105987853D01*
X148787849Y-105950852D01*
X148787846Y-105950851D01*
X148781487Y-105949500D01*
X148774984Y-105949500D01*
X148724766Y-105949500D01*
X148677313Y-105940061D01*
X148637085Y-105913181D01*
X145540819Y-102816914D01*
X145513939Y-102776686D01*
X145504500Y-102729233D01*
X145504500Y-93904000D01*
X146777500Y-93904000D01*
X146777500Y-100424154D01*
G37*
G04 #@! TD.AperFunction*
G04 #@! TD*
G04 #@! TA.AperFunction,Conductor*
G04 #@! TO.N,Board_0-GNDREF*
G36*
X192693970Y-83621140D02*
G01*
X192748060Y-83635482D01*
X192751699Y-83636510D01*
X192834579Y-83661386D01*
X192850826Y-83667535D01*
X192913126Y-83696255D01*
X192919095Y-83699205D01*
X192991382Y-83737388D01*
X193003953Y-83745016D01*
X193031262Y-83763890D01*
X193061721Y-83784942D01*
X193069223Y-83790557D01*
X193131631Y-83841060D01*
X193140616Y-83849084D01*
X193190968Y-83898650D01*
X193199130Y-83907506D01*
X193232323Y-83947230D01*
X193250605Y-83969108D01*
X193256339Y-83976522D01*
X193297166Y-84033653D01*
X193304998Y-84046115D01*
X193344322Y-84117808D01*
X193347353Y-84123708D01*
X193377044Y-84185535D01*
X193383455Y-84201702D01*
X193409590Y-84284051D01*
X193410742Y-84287898D01*
X193428075Y-84349347D01*
X193431942Y-84369036D01*
X193444544Y-84480148D01*
X193444688Y-84481478D01*
X193448854Y-84522121D01*
X193449500Y-84534765D01*
X193449500Y-115451659D01*
X193449037Y-115462365D01*
X193445550Y-115502603D01*
X193445429Y-115503920D01*
X193434461Y-115616505D01*
X193430903Y-115636263D01*
X193414551Y-115697933D01*
X193413459Y-115701799D01*
X193388617Y-115784565D01*
X193382461Y-115800832D01*
X193353751Y-115863109D01*
X193350785Y-115869110D01*
X193312616Y-115941371D01*
X193304979Y-115953958D01*
X193265056Y-116011721D01*
X193259441Y-116019223D01*
X193208938Y-116081631D01*
X193200914Y-116090616D01*
X193151348Y-116140968D01*
X193142490Y-116149132D01*
X193080890Y-116200605D01*
X193073476Y-116206339D01*
X193016345Y-116247166D01*
X193003883Y-116254998D01*
X192932219Y-116294307D01*
X192926262Y-116297368D01*
X192864463Y-116327044D01*
X192848295Y-116333455D01*
X192765947Y-116359589D01*
X192762101Y-116360741D01*
X192701059Y-116377959D01*
X192667340Y-116382616D01*
X188033456Y-116380529D01*
X187977177Y-116366994D01*
X187933174Y-116329387D01*
X187911035Y-116275905D01*
X187915584Y-116218200D01*
X187945829Y-116168850D01*
X189155461Y-114959219D01*
X189195690Y-114932339D01*
X189243143Y-114922900D01*
X190272928Y-114922900D01*
X190276238Y-114922900D01*
X190336801Y-114916389D01*
X190473804Y-114865289D01*
X190590861Y-114777661D01*
X190678489Y-114660604D01*
X190729589Y-114523601D01*
X190736100Y-114463038D01*
X190736100Y-112765762D01*
X190729589Y-112705199D01*
X190678489Y-112568196D01*
X190590861Y-112451139D01*
X190473804Y-112363511D01*
X190465496Y-112360412D01*
X190465494Y-112360411D01*
X190336801Y-112312411D01*
X190337248Y-112311212D01*
X190287549Y-112284215D01*
X190253971Y-112228471D01*
X190253246Y-112163399D01*
X190285572Y-112106925D01*
X190433798Y-111958700D01*
X190565123Y-111771149D01*
X190661884Y-111563643D01*
X190721143Y-111342487D01*
X190741098Y-111114400D01*
X190721143Y-110886313D01*
X190672936Y-110706405D01*
X190663283Y-110670378D01*
X190663282Y-110670377D01*
X190661884Y-110665157D01*
X190565123Y-110457651D01*
X190456570Y-110302622D01*
X190436903Y-110274534D01*
X190436901Y-110274532D01*
X190433798Y-110270100D01*
X190271900Y-110108202D01*
X190267469Y-110105099D01*
X190267465Y-110105096D01*
X190088786Y-109979984D01*
X190088787Y-109979984D01*
X190084349Y-109976877D01*
X189979789Y-109928120D01*
X189881746Y-109882402D01*
X189881743Y-109882400D01*
X189876843Y-109880116D01*
X189871628Y-109878718D01*
X189871621Y-109878716D01*
X189660919Y-109822258D01*
X189660908Y-109822256D01*
X189655687Y-109820857D01*
X189650295Y-109820385D01*
X189650288Y-109820384D01*
X189432995Y-109801374D01*
X189427600Y-109800902D01*
X189422205Y-109801374D01*
X189204911Y-109820384D01*
X189204902Y-109820385D01*
X189199513Y-109820857D01*
X189194292Y-109822255D01*
X189194280Y-109822258D01*
X188983578Y-109878716D01*
X188983567Y-109878719D01*
X188978357Y-109880116D01*
X188973460Y-109882399D01*
X188973453Y-109882402D01*
X188775765Y-109974585D01*
X188775759Y-109974588D01*
X188770851Y-109976877D01*
X188766417Y-109979981D01*
X188766413Y-109979984D01*
X188587734Y-110105096D01*
X188587724Y-110105103D01*
X188583300Y-110108202D01*
X188579474Y-110112027D01*
X188579468Y-110112033D01*
X188425233Y-110266268D01*
X188425227Y-110266274D01*
X188421402Y-110270100D01*
X188418303Y-110274524D01*
X188418296Y-110274534D01*
X188293184Y-110453213D01*
X188293181Y-110453217D01*
X188290077Y-110457651D01*
X188287788Y-110462559D01*
X188287785Y-110462565D01*
X188195602Y-110660253D01*
X188195599Y-110660260D01*
X188193316Y-110665157D01*
X188191919Y-110670367D01*
X188191916Y-110670378D01*
X188135458Y-110881080D01*
X188135455Y-110881092D01*
X188134057Y-110886313D01*
X188133585Y-110891702D01*
X188133584Y-110891711D01*
X188120650Y-111039556D01*
X188114102Y-111114400D01*
X188114574Y-111119795D01*
X188133584Y-111337088D01*
X188133585Y-111337095D01*
X188134057Y-111342487D01*
X188135456Y-111347708D01*
X188135458Y-111347719D01*
X188191916Y-111558421D01*
X188191918Y-111558428D01*
X188193316Y-111563643D01*
X188195600Y-111568543D01*
X188195602Y-111568546D01*
X188257901Y-111702147D01*
X188290077Y-111771149D01*
X188293184Y-111775586D01*
X188418296Y-111954265D01*
X188418299Y-111954269D01*
X188421402Y-111958700D01*
X188425233Y-111962531D01*
X188569624Y-112106922D01*
X188601952Y-112163398D01*
X188601229Y-112228469D01*
X188567653Y-112284213D01*
X188517952Y-112311212D01*
X188518399Y-112312411D01*
X188389705Y-112360411D01*
X188389699Y-112360413D01*
X188381396Y-112363511D01*
X188374298Y-112368823D01*
X188374295Y-112368826D01*
X188271435Y-112445826D01*
X188271431Y-112445829D01*
X188264339Y-112451139D01*
X188259029Y-112458231D01*
X188259026Y-112458235D01*
X188182026Y-112561095D01*
X188182023Y-112561098D01*
X188176711Y-112568196D01*
X188173613Y-112576499D01*
X188173611Y-112576505D01*
X188128319Y-112697936D01*
X188128317Y-112697943D01*
X188125611Y-112705199D01*
X188124782Y-112712900D01*
X188124782Y-112712905D01*
X188119453Y-112762475D01*
X188119100Y-112765762D01*
X188119100Y-112769072D01*
X188119100Y-113798857D01*
X188109661Y-113846310D01*
X188082781Y-113886538D01*
X187028138Y-114941181D01*
X186987910Y-114968061D01*
X186940457Y-114977500D01*
X167078543Y-114977500D01*
X167031090Y-114968061D01*
X166990862Y-114941181D01*
X166909319Y-114859638D01*
X166882439Y-114819410D01*
X166873000Y-114771957D01*
X166873000Y-112446211D01*
X166873000Y-112434000D01*
X164496319Y-110057319D01*
X164469439Y-110017091D01*
X164460000Y-109969638D01*
X164460000Y-102671911D01*
X164473515Y-102615616D01*
X164511115Y-102571593D01*
X164564602Y-102549438D01*
X164622318Y-102553980D01*
X164671681Y-102584230D01*
X165883181Y-103795730D01*
X165910061Y-103835958D01*
X165919500Y-103883411D01*
X165919500Y-109919996D01*
X165918439Y-109936178D01*
X165914250Y-109968000D01*
X165915311Y-109976060D01*
X165919500Y-110007880D01*
X165919500Y-110007885D01*
X165929850Y-110086500D01*
X165933565Y-110114725D01*
X165935162Y-110126851D01*
X165938269Y-110134352D01*
X165938271Y-110134359D01*
X165987509Y-110253228D01*
X165996476Y-110274876D01*
X166069523Y-110370072D01*
X166069525Y-110370074D01*
X166094013Y-110401987D01*
X166119481Y-110421529D01*
X166131672Y-110432221D01*
X166405856Y-110706405D01*
X166432736Y-110746633D01*
X166441793Y-110792168D01*
X166441496Y-110795000D01*
X166442175Y-110801460D01*
X166460778Y-110978467D01*
X166460779Y-110978475D01*
X166461458Y-110984928D01*
X166463463Y-110991100D01*
X166463465Y-110991107D01*
X166505279Y-111119795D01*
X166520473Y-111166556D01*
X166523720Y-111172180D01*
X166523721Y-111172182D01*
X166539387Y-111199317D01*
X166615960Y-111331944D01*
X166743747Y-111473866D01*
X166748997Y-111477680D01*
X166749000Y-111477683D01*
X166867314Y-111563643D01*
X166898248Y-111586118D01*
X167072712Y-111663794D01*
X167079070Y-111665145D01*
X167079072Y-111665146D01*
X167115874Y-111672968D01*
X167259513Y-111703500D01*
X167443984Y-111703500D01*
X167450487Y-111703500D01*
X167637288Y-111663794D01*
X167811752Y-111586118D01*
X167966253Y-111473866D01*
X168094040Y-111331944D01*
X168189527Y-111166556D01*
X168248542Y-110984928D01*
X168268504Y-110795000D01*
X168255156Y-110668000D01*
X174696496Y-110668000D01*
X174697175Y-110674460D01*
X174715778Y-110851467D01*
X174715779Y-110851475D01*
X174716458Y-110857928D01*
X174718463Y-110864100D01*
X174718465Y-110864107D01*
X174773465Y-111033377D01*
X174775473Y-111039556D01*
X174778720Y-111045180D01*
X174778721Y-111045182D01*
X174848796Y-111166556D01*
X174870960Y-111204944D01*
X174998747Y-111346866D01*
X175003997Y-111350680D01*
X175004000Y-111350683D01*
X175146863Y-111454479D01*
X175153248Y-111459118D01*
X175327712Y-111536794D01*
X175334070Y-111538145D01*
X175334072Y-111538146D01*
X175370874Y-111545968D01*
X175514513Y-111576500D01*
X175698984Y-111576500D01*
X175705487Y-111576500D01*
X175892288Y-111536794D01*
X176066752Y-111459118D01*
X176221253Y-111346866D01*
X176349040Y-111204944D01*
X176444527Y-111039556D01*
X176503542Y-110857928D01*
X176510217Y-110794408D01*
X176521617Y-110753988D01*
X176545854Y-110719693D01*
X177095729Y-110169819D01*
X177135958Y-110142939D01*
X177183411Y-110133500D01*
X182121336Y-110133500D01*
X182137518Y-110134560D01*
X182169340Y-110138750D01*
X182209220Y-110133500D01*
X182209225Y-110133500D01*
X182308796Y-110120391D01*
X182328191Y-110117838D01*
X182476216Y-110056524D01*
X182571412Y-109983477D01*
X182571412Y-109983476D01*
X182571418Y-109983470D01*
X182603327Y-109958987D01*
X182622874Y-109933513D01*
X182633558Y-109921330D01*
X185256276Y-107298611D01*
X185313515Y-107266088D01*
X185379337Y-107267449D01*
X185435181Y-107302308D01*
X185481760Y-107352906D01*
X185485801Y-107356051D01*
X185655376Y-107488039D01*
X185655381Y-107488042D01*
X185659424Y-107491189D01*
X185663931Y-107493628D01*
X185663934Y-107493630D01*
X185680221Y-107502444D01*
X185857426Y-107598342D01*
X186070365Y-107671444D01*
X186292431Y-107708500D01*
X186512436Y-107708500D01*
X186517569Y-107708500D01*
X186739635Y-107671444D01*
X186952574Y-107598342D01*
X187150576Y-107491189D01*
X187328240Y-107352906D01*
X187480722Y-107187268D01*
X187550648Y-107080239D01*
X187571191Y-107048795D01*
X187615982Y-107007561D01*
X187675000Y-106992616D01*
X187734018Y-107007561D01*
X187778809Y-107048795D01*
X187866470Y-107182972D01*
X187866478Y-107182982D01*
X187869278Y-107187268D01*
X187872752Y-107191041D01*
X187872753Y-107191043D01*
X188018288Y-107349135D01*
X188018291Y-107349138D01*
X188021760Y-107352906D01*
X188025801Y-107356051D01*
X188195376Y-107488039D01*
X188195381Y-107488042D01*
X188199424Y-107491189D01*
X188203931Y-107493628D01*
X188203934Y-107493630D01*
X188220221Y-107502444D01*
X188397426Y-107598342D01*
X188610365Y-107671444D01*
X188832431Y-107708500D01*
X189052436Y-107708500D01*
X189057569Y-107708500D01*
X189279635Y-107671444D01*
X189492574Y-107598342D01*
X189690576Y-107491189D01*
X189868240Y-107352906D01*
X190020722Y-107187268D01*
X190143860Y-106998791D01*
X190234296Y-106792616D01*
X190289564Y-106574368D01*
X190308156Y-106350000D01*
X190289564Y-106125632D01*
X190234296Y-105907384D01*
X190143860Y-105701209D01*
X190020722Y-105512732D01*
X189868240Y-105347094D01*
X189855597Y-105337253D01*
X189694623Y-105211960D01*
X189694615Y-105211955D01*
X189690576Y-105208811D01*
X189686066Y-105206370D01*
X189686061Y-105206367D01*
X189654070Y-105189055D01*
X189606564Y-105143474D01*
X189589086Y-105080000D01*
X189606564Y-105016526D01*
X189654070Y-104970945D01*
X189654109Y-104970923D01*
X189690576Y-104951189D01*
X189868240Y-104812906D01*
X190020722Y-104647268D01*
X190143860Y-104458791D01*
X190234296Y-104252616D01*
X190289564Y-104034368D01*
X190308156Y-103810000D01*
X190289564Y-103585632D01*
X190234296Y-103367384D01*
X190143860Y-103161209D01*
X190020722Y-102972732D01*
X189868240Y-102807094D01*
X189855597Y-102797253D01*
X189694623Y-102671960D01*
X189694615Y-102671955D01*
X189690576Y-102668811D01*
X189686066Y-102666370D01*
X189686061Y-102666367D01*
X189654070Y-102649055D01*
X189606564Y-102603474D01*
X189589086Y-102540000D01*
X189606564Y-102476526D01*
X189654070Y-102430945D01*
X189654109Y-102430923D01*
X189690576Y-102411189D01*
X189868240Y-102272906D01*
X190020722Y-102107268D01*
X190143860Y-101918791D01*
X190234296Y-101712616D01*
X190289564Y-101494368D01*
X190308156Y-101270000D01*
X190289564Y-101045632D01*
X190234296Y-100827384D01*
X190143860Y-100621209D01*
X190020722Y-100432732D01*
X189943554Y-100348906D01*
X189871711Y-100270864D01*
X189871708Y-100270861D01*
X189868240Y-100267094D01*
X189836578Y-100242450D01*
X189694623Y-100131960D01*
X189694615Y-100131955D01*
X189690576Y-100128811D01*
X189686066Y-100126370D01*
X189686061Y-100126367D01*
X189654070Y-100109055D01*
X189606564Y-100063474D01*
X189589086Y-100000000D01*
X189606564Y-99936526D01*
X189654070Y-99890945D01*
X189654109Y-99890923D01*
X189690576Y-99871189D01*
X189868240Y-99732906D01*
X190020722Y-99567268D01*
X190143860Y-99378791D01*
X190234296Y-99172616D01*
X190289564Y-98954368D01*
X190308156Y-98730000D01*
X190289564Y-98505632D01*
X190234296Y-98287384D01*
X190143860Y-98081209D01*
X190020722Y-97892732D01*
X189982415Y-97851120D01*
X189871711Y-97730864D01*
X189871708Y-97730861D01*
X189868240Y-97727094D01*
X189844645Y-97708729D01*
X189694623Y-97591960D01*
X189694615Y-97591955D01*
X189690576Y-97588811D01*
X189686066Y-97586370D01*
X189686061Y-97586367D01*
X189654070Y-97569055D01*
X189606564Y-97523474D01*
X189589086Y-97460000D01*
X189606564Y-97396526D01*
X189654070Y-97350945D01*
X189654109Y-97350923D01*
X189690576Y-97331189D01*
X189868240Y-97192906D01*
X190020722Y-97027268D01*
X190143860Y-96838791D01*
X190234296Y-96632616D01*
X190289564Y-96414368D01*
X190308156Y-96190000D01*
X190289564Y-95965632D01*
X190234296Y-95747384D01*
X190143860Y-95541209D01*
X190020722Y-95352732D01*
X189868240Y-95187094D01*
X189810610Y-95142238D01*
X189694623Y-95051960D01*
X189694615Y-95051955D01*
X189690576Y-95048811D01*
X189686064Y-95046369D01*
X189686061Y-95046367D01*
X189654070Y-95029055D01*
X189606564Y-94983474D01*
X189589086Y-94920000D01*
X189606564Y-94856526D01*
X189654070Y-94810945D01*
X189654109Y-94810923D01*
X189690576Y-94791189D01*
X189868240Y-94652906D01*
X190020722Y-94487268D01*
X190143860Y-94298791D01*
X190234296Y-94092616D01*
X190289564Y-93874368D01*
X190308156Y-93650000D01*
X190289564Y-93425632D01*
X190234296Y-93207384D01*
X190143860Y-93001209D01*
X190031944Y-92829909D01*
X190023525Y-92817022D01*
X190023523Y-92817020D01*
X190020722Y-92812732D01*
X190014321Y-92805779D01*
X189871711Y-92650864D01*
X189871706Y-92650859D01*
X189868240Y-92647094D01*
X189838619Y-92624039D01*
X189694623Y-92511960D01*
X189694615Y-92511955D01*
X189690576Y-92508811D01*
X189686071Y-92506373D01*
X189686065Y-92506369D01*
X189497080Y-92404096D01*
X189497074Y-92404093D01*
X189492574Y-92401658D01*
X189487733Y-92399996D01*
X189487726Y-92399993D01*
X189284488Y-92330222D01*
X189284487Y-92330221D01*
X189279635Y-92328556D01*
X189274585Y-92327713D01*
X189274576Y-92327711D01*
X189062631Y-92292344D01*
X189062622Y-92292343D01*
X189057569Y-92291500D01*
X188832431Y-92291500D01*
X188827378Y-92292343D01*
X188827368Y-92292344D01*
X188615423Y-92327711D01*
X188615411Y-92327713D01*
X188610365Y-92328556D01*
X188605515Y-92330220D01*
X188605511Y-92330222D01*
X188402273Y-92399993D01*
X188402262Y-92399997D01*
X188397426Y-92401658D01*
X188392929Y-92404091D01*
X188392919Y-92404096D01*
X188203934Y-92506369D01*
X188203922Y-92506376D01*
X188199424Y-92508811D01*
X188195389Y-92511951D01*
X188195376Y-92511960D01*
X188025801Y-92643948D01*
X188025795Y-92643952D01*
X188021760Y-92647094D01*
X188018294Y-92650858D01*
X188018294Y-92650859D01*
X187958548Y-92715760D01*
X187905924Y-92749613D01*
X187843470Y-92753461D01*
X187787089Y-92726323D01*
X187751137Y-92675110D01*
X187750677Y-92673878D01*
X187705889Y-92553796D01*
X187618261Y-92436739D01*
X187571398Y-92401658D01*
X187508304Y-92354426D01*
X187508303Y-92354425D01*
X187501204Y-92349111D01*
X187492896Y-92346012D01*
X187492894Y-92346011D01*
X187371463Y-92300719D01*
X187371458Y-92300717D01*
X187364201Y-92298011D01*
X187356497Y-92297182D01*
X187356494Y-92297182D01*
X187306924Y-92291853D01*
X187306918Y-92291852D01*
X187303638Y-92291500D01*
X185506362Y-92291500D01*
X185503082Y-92291852D01*
X185503075Y-92291853D01*
X185453505Y-92297182D01*
X185453500Y-92297182D01*
X185445799Y-92298011D01*
X185438543Y-92300717D01*
X185438536Y-92300719D01*
X185317105Y-92346011D01*
X185317099Y-92346013D01*
X185308796Y-92349111D01*
X185301698Y-92354423D01*
X185301695Y-92354426D01*
X185198835Y-92431426D01*
X185198831Y-92431429D01*
X185191739Y-92436739D01*
X185186429Y-92443831D01*
X185186426Y-92443835D01*
X185109426Y-92546695D01*
X185109423Y-92546698D01*
X185104111Y-92553796D01*
X185101013Y-92562099D01*
X185101011Y-92562105D01*
X185055719Y-92683536D01*
X185055717Y-92683543D01*
X185053011Y-92690799D01*
X185052182Y-92698500D01*
X185052182Y-92698505D01*
X185046853Y-92748075D01*
X185046500Y-92751362D01*
X185046500Y-94548638D01*
X185046852Y-94551918D01*
X185046853Y-94551924D01*
X185049191Y-94573676D01*
X185053011Y-94609201D01*
X185055717Y-94616458D01*
X185055719Y-94616463D01*
X185101011Y-94737894D01*
X185104111Y-94746204D01*
X185109425Y-94753303D01*
X185109426Y-94753304D01*
X185152575Y-94810945D01*
X185191739Y-94863261D01*
X185308796Y-94950889D01*
X185426595Y-94994826D01*
X185476130Y-95028841D01*
X185503857Y-95082152D01*
X185503264Y-95142238D01*
X185474490Y-95194991D01*
X185332753Y-95348956D01*
X185332747Y-95348963D01*
X185329278Y-95352732D01*
X185326481Y-95357012D01*
X185326474Y-95357022D01*
X185211870Y-95532438D01*
X185206140Y-95541209D01*
X185204085Y-95545892D01*
X185204080Y-95545903D01*
X185118972Y-95739934D01*
X185115704Y-95747384D01*
X185114446Y-95752349D01*
X185114445Y-95752354D01*
X185061695Y-95960657D01*
X185061693Y-95960666D01*
X185060436Y-95965632D01*
X185060012Y-95970741D01*
X185060011Y-95970751D01*
X185054983Y-96031434D01*
X185041844Y-96190000D01*
X185042268Y-96195117D01*
X185060011Y-96409248D01*
X185060012Y-96409256D01*
X185060436Y-96414368D01*
X185061693Y-96419335D01*
X185061695Y-96419342D01*
X185096376Y-96556292D01*
X185115704Y-96632616D01*
X185117764Y-96637312D01*
X185204080Y-96834096D01*
X185204083Y-96834101D01*
X185206140Y-96838791D01*
X185238809Y-96888795D01*
X185326474Y-97022977D01*
X185326477Y-97022981D01*
X185329278Y-97027268D01*
X185332752Y-97031041D01*
X185332753Y-97031043D01*
X185478288Y-97189135D01*
X185478291Y-97189138D01*
X185481760Y-97192906D01*
X185485801Y-97196051D01*
X185655376Y-97328039D01*
X185655381Y-97328042D01*
X185659424Y-97331189D01*
X185695930Y-97350945D01*
X185743434Y-97396523D01*
X185760913Y-97459996D01*
X185743437Y-97523471D01*
X185695933Y-97569053D01*
X185663930Y-97586372D01*
X185663925Y-97586374D01*
X185659424Y-97588811D01*
X185655389Y-97591951D01*
X185655376Y-97591960D01*
X185485801Y-97723948D01*
X185485795Y-97723952D01*
X185481760Y-97727094D01*
X185478297Y-97730855D01*
X185478288Y-97730864D01*
X185332753Y-97888956D01*
X185332747Y-97888963D01*
X185329278Y-97892732D01*
X185326481Y-97897012D01*
X185326474Y-97897022D01*
X185231890Y-98041795D01*
X185206140Y-98081209D01*
X185204085Y-98085893D01*
X185204079Y-98085905D01*
X185190505Y-98116851D01*
X185154118Y-98164101D01*
X185099882Y-98188900D01*
X185040341Y-98185512D01*
X184989269Y-98154720D01*
X184255819Y-97421270D01*
X184228939Y-97381042D01*
X184219500Y-97333589D01*
X184219500Y-92682004D01*
X184220561Y-92665819D01*
X184223689Y-92642059D01*
X184224750Y-92634000D01*
X184219500Y-92594122D01*
X184219500Y-92594115D01*
X184203838Y-92475150D01*
X184142524Y-92327125D01*
X184113741Y-92289614D01*
X184069477Y-92231928D01*
X184071667Y-92230247D01*
X184071665Y-92230243D01*
X184069474Y-92231925D01*
X184049931Y-92206456D01*
X184049930Y-92206455D01*
X184044987Y-92200013D01*
X184019512Y-92180465D01*
X184007326Y-92169777D01*
X182551225Y-90713676D01*
X182540530Y-90701481D01*
X182525934Y-90682459D01*
X182525930Y-90682455D01*
X182520987Y-90676013D01*
X182489074Y-90651525D01*
X182489072Y-90651523D01*
X182393876Y-90578476D01*
X182386367Y-90575365D01*
X182386366Y-90575365D01*
X182253359Y-90520271D01*
X182253352Y-90520269D01*
X182245851Y-90517162D01*
X182237796Y-90516101D01*
X182237795Y-90516101D01*
X182226456Y-90514608D01*
X182226456Y-90514607D01*
X182126885Y-90501500D01*
X182126884Y-90501500D01*
X182126876Y-90501499D01*
X182095061Y-90497311D01*
X182095060Y-90497311D01*
X182087000Y-90496250D01*
X182055178Y-90500439D01*
X182038996Y-90501500D01*
X177183411Y-90501500D01*
X177135958Y-90492061D01*
X177095730Y-90465181D01*
X176686144Y-90055595D01*
X176659264Y-90015367D01*
X176650206Y-89969831D01*
X176650504Y-89967000D01*
X176637643Y-89844638D01*
X176631221Y-89783532D01*
X176631220Y-89783531D01*
X176630542Y-89777072D01*
X176571527Y-89595444D01*
X176476040Y-89430056D01*
X176348253Y-89288134D01*
X176343003Y-89284319D01*
X176342999Y-89284316D01*
X176199006Y-89179699D01*
X176199004Y-89179697D01*
X176193752Y-89175882D01*
X176187821Y-89173241D01*
X176187817Y-89173239D01*
X176025226Y-89100849D01*
X176025219Y-89100846D01*
X176019288Y-89098206D01*
X176012935Y-89096855D01*
X176012927Y-89096853D01*
X175838849Y-89059852D01*
X175838846Y-89059851D01*
X175832487Y-89058500D01*
X175641513Y-89058500D01*
X175635154Y-89059851D01*
X175635150Y-89059852D01*
X175461072Y-89096853D01*
X175461061Y-89096856D01*
X175454712Y-89098206D01*
X175448782Y-89100845D01*
X175448773Y-89100849D01*
X175286182Y-89173239D01*
X175286174Y-89173243D01*
X175280248Y-89175882D01*
X175274999Y-89179695D01*
X175274993Y-89179699D01*
X175131000Y-89284316D01*
X175130991Y-89284323D01*
X175125747Y-89288134D01*
X175121403Y-89292957D01*
X175121400Y-89292961D01*
X175002307Y-89425228D01*
X174997960Y-89430056D01*
X174994714Y-89435676D01*
X174994711Y-89435682D01*
X174905721Y-89589817D01*
X174905718Y-89589822D01*
X174902473Y-89595444D01*
X174900467Y-89601616D01*
X174900465Y-89601622D01*
X174845465Y-89770892D01*
X174845463Y-89770901D01*
X174843458Y-89777072D01*
X174842780Y-89783522D01*
X174842778Y-89783532D01*
X174829991Y-89905201D01*
X174823496Y-89967000D01*
X174824175Y-89973460D01*
X174842778Y-90150467D01*
X174842779Y-90150475D01*
X174843458Y-90156928D01*
X174845463Y-90163100D01*
X174845465Y-90163107D01*
X174900465Y-90332377D01*
X174902473Y-90338556D01*
X174905720Y-90344180D01*
X174905721Y-90344182D01*
X174972011Y-90459000D01*
X174997960Y-90503944D01*
X175125747Y-90645866D01*
X175130997Y-90649680D01*
X175131000Y-90649683D01*
X175213331Y-90709500D01*
X175280248Y-90758118D01*
X175454712Y-90835794D01*
X175461070Y-90837145D01*
X175461072Y-90837146D01*
X175490415Y-90843383D01*
X175641513Y-90875500D01*
X175733589Y-90875500D01*
X175781042Y-90884939D01*
X175821270Y-90911819D01*
X176185770Y-91276319D01*
X176217864Y-91331906D01*
X176217864Y-91396094D01*
X176185770Y-91451681D01*
X175757770Y-91879681D01*
X175717542Y-91906561D01*
X175670089Y-91916000D01*
X175578013Y-91916000D01*
X175571654Y-91917351D01*
X175571650Y-91917352D01*
X175397572Y-91954353D01*
X175397561Y-91954356D01*
X175391212Y-91955706D01*
X175385282Y-91958345D01*
X175385273Y-91958349D01*
X175222682Y-92030739D01*
X175222674Y-92030743D01*
X175216748Y-92033382D01*
X175211499Y-92037195D01*
X175211493Y-92037199D01*
X175067500Y-92141816D01*
X175067491Y-92141823D01*
X175062247Y-92145634D01*
X175057903Y-92150457D01*
X175057900Y-92150461D01*
X174938807Y-92282728D01*
X174934460Y-92287556D01*
X174931214Y-92293176D01*
X174931211Y-92293182D01*
X174842221Y-92447317D01*
X174842218Y-92447322D01*
X174838973Y-92452944D01*
X174836967Y-92459116D01*
X174836965Y-92459122D01*
X174781965Y-92628392D01*
X174781963Y-92628401D01*
X174779958Y-92634572D01*
X174779280Y-92641022D01*
X174779278Y-92641032D01*
X174765032Y-92776581D01*
X174759996Y-92824500D01*
X174760675Y-92830960D01*
X174779278Y-93007967D01*
X174779279Y-93007975D01*
X174779958Y-93014428D01*
X174781963Y-93020600D01*
X174781965Y-93020607D01*
X174836965Y-93189877D01*
X174838973Y-93196056D01*
X174842220Y-93201680D01*
X174842221Y-93201682D01*
X174848382Y-93212354D01*
X174934460Y-93361444D01*
X175062247Y-93503366D01*
X175067497Y-93507180D01*
X175067500Y-93507183D01*
X175200014Y-93603460D01*
X175216748Y-93615618D01*
X175222681Y-93618259D01*
X175222682Y-93618260D01*
X175378456Y-93687615D01*
X175391212Y-93693294D01*
X175397570Y-93694645D01*
X175397572Y-93694646D01*
X175434374Y-93702468D01*
X175578013Y-93733000D01*
X175762484Y-93733000D01*
X175768987Y-93733000D01*
X175955788Y-93693294D01*
X176130252Y-93615618D01*
X176284753Y-93503366D01*
X176412540Y-93361444D01*
X176508027Y-93196056D01*
X176567042Y-93014428D01*
X176587004Y-92824500D01*
X176586706Y-92821668D01*
X176595764Y-92776132D01*
X176622644Y-92735904D01*
X176911232Y-92447317D01*
X177203729Y-92154819D01*
X177243958Y-92127939D01*
X177291411Y-92118500D01*
X181617903Y-92118500D01*
X181665356Y-92127939D01*
X181705584Y-92154819D01*
X182458181Y-92907416D01*
X182485061Y-92947644D01*
X182494500Y-92995097D01*
X182494500Y-97842996D01*
X182493439Y-97859178D01*
X182489250Y-97891000D01*
X182490311Y-97899060D01*
X182494500Y-97930880D01*
X182494500Y-97930885D01*
X182507608Y-98030456D01*
X182508428Y-98036687D01*
X182510162Y-98049851D01*
X182513269Y-98057352D01*
X182513271Y-98057359D01*
X182567758Y-98188900D01*
X182571476Y-98197876D01*
X182644523Y-98293072D01*
X182644525Y-98293074D01*
X182669013Y-98324987D01*
X182694481Y-98344529D01*
X182706672Y-98355221D01*
X185078639Y-100727188D01*
X185110509Y-100781951D01*
X185111164Y-100845309D01*
X185061695Y-101040656D01*
X185061692Y-101040668D01*
X185060436Y-101045632D01*
X185060012Y-101050741D01*
X185060011Y-101050751D01*
X185044242Y-101241056D01*
X185041844Y-101270000D01*
X185042268Y-101275117D01*
X185060011Y-101489248D01*
X185060012Y-101489256D01*
X185060436Y-101494368D01*
X185061693Y-101499335D01*
X185061695Y-101499342D01*
X185101635Y-101657060D01*
X185102790Y-101712947D01*
X185079282Y-101763662D01*
X185035889Y-101798900D01*
X184981429Y-101811500D01*
X184360097Y-101811500D01*
X184312644Y-101802061D01*
X184272416Y-101775181D01*
X182208911Y-99711676D01*
X182198216Y-99699481D01*
X182183620Y-99680459D01*
X182183616Y-99680455D01*
X182178673Y-99674013D01*
X182146760Y-99649525D01*
X182146758Y-99649523D01*
X182058979Y-99582167D01*
X182058008Y-99581422D01*
X182058006Y-99581421D01*
X182051562Y-99576476D01*
X182044053Y-99573365D01*
X182044052Y-99573365D01*
X181911045Y-99518271D01*
X181911038Y-99518269D01*
X181903537Y-99515162D01*
X181895482Y-99514101D01*
X181895481Y-99514101D01*
X181884142Y-99512608D01*
X181784571Y-99499500D01*
X181784570Y-99499500D01*
X181784562Y-99499499D01*
X181752747Y-99495311D01*
X181752746Y-99495311D01*
X181744686Y-99494250D01*
X181712864Y-99498439D01*
X181696682Y-99499500D01*
X177291411Y-99499500D01*
X177243958Y-99490061D01*
X177203730Y-99463181D01*
X176749644Y-99009095D01*
X176722764Y-98968867D01*
X176713706Y-98923331D01*
X176714004Y-98920500D01*
X176694042Y-98730572D01*
X176635027Y-98548944D01*
X176539540Y-98383556D01*
X176411753Y-98241634D01*
X176406503Y-98237819D01*
X176406499Y-98237816D01*
X176262506Y-98133199D01*
X176262504Y-98133197D01*
X176257252Y-98129382D01*
X176251321Y-98126741D01*
X176251317Y-98126739D01*
X176088726Y-98054349D01*
X176088719Y-98054346D01*
X176082788Y-98051706D01*
X176076435Y-98050355D01*
X176076427Y-98050353D01*
X175902349Y-98013352D01*
X175902346Y-98013351D01*
X175895987Y-98012000D01*
X175705013Y-98012000D01*
X175698654Y-98013351D01*
X175698650Y-98013352D01*
X175524572Y-98050353D01*
X175524561Y-98050356D01*
X175518212Y-98051706D01*
X175512282Y-98054345D01*
X175512273Y-98054349D01*
X175349682Y-98126739D01*
X175349674Y-98126743D01*
X175343748Y-98129382D01*
X175338499Y-98133195D01*
X175338493Y-98133199D01*
X175194500Y-98237816D01*
X175194491Y-98237823D01*
X175189247Y-98241634D01*
X175184903Y-98246457D01*
X175184900Y-98246461D01*
X175086973Y-98355221D01*
X175061460Y-98383556D01*
X175058214Y-98389176D01*
X175058211Y-98389182D01*
X174969221Y-98543317D01*
X174969218Y-98543322D01*
X174965973Y-98548944D01*
X174963967Y-98555116D01*
X174963965Y-98555122D01*
X174908965Y-98724392D01*
X174908963Y-98724401D01*
X174906958Y-98730572D01*
X174906280Y-98737022D01*
X174906278Y-98737032D01*
X174888508Y-98906115D01*
X174886996Y-98920500D01*
X174888344Y-98933330D01*
X174906278Y-99103967D01*
X174906279Y-99103975D01*
X174906958Y-99110428D01*
X174908963Y-99116600D01*
X174908965Y-99116607D01*
X174963965Y-99285877D01*
X174965973Y-99292056D01*
X174969220Y-99297680D01*
X174969221Y-99297682D01*
X175016049Y-99378791D01*
X175061460Y-99457444D01*
X175189247Y-99599366D01*
X175194497Y-99603180D01*
X175194500Y-99603183D01*
X175291989Y-99674013D01*
X175343748Y-99711618D01*
X175349681Y-99714259D01*
X175349682Y-99714260D01*
X175420971Y-99746000D01*
X175518212Y-99789294D01*
X175524570Y-99790645D01*
X175524572Y-99790646D01*
X175561374Y-99798468D01*
X175705013Y-99829000D01*
X175797089Y-99829000D01*
X175844542Y-99838439D01*
X175884770Y-99865319D01*
X176312770Y-100293319D01*
X176344864Y-100348906D01*
X176344864Y-100413094D01*
X176312770Y-100468681D01*
X175884770Y-100896681D01*
X175844542Y-100923561D01*
X175797089Y-100933000D01*
X175705013Y-100933000D01*
X175698654Y-100934351D01*
X175698650Y-100934352D01*
X175524572Y-100971353D01*
X175524561Y-100971356D01*
X175518212Y-100972706D01*
X175512282Y-100975345D01*
X175512273Y-100975349D01*
X175349682Y-101047739D01*
X175349674Y-101047743D01*
X175343748Y-101050382D01*
X175338499Y-101054195D01*
X175338493Y-101054199D01*
X175194500Y-101158816D01*
X175194491Y-101158823D01*
X175189247Y-101162634D01*
X175184903Y-101167457D01*
X175184900Y-101167461D01*
X175096012Y-101266182D01*
X175061460Y-101304556D01*
X175058214Y-101310176D01*
X175058211Y-101310182D01*
X174969221Y-101464317D01*
X174969218Y-101464322D01*
X174965973Y-101469944D01*
X174963967Y-101476116D01*
X174963965Y-101476122D01*
X174908965Y-101645392D01*
X174908963Y-101645401D01*
X174906958Y-101651572D01*
X174906280Y-101658022D01*
X174906278Y-101658032D01*
X174891473Y-101798900D01*
X174886996Y-101841500D01*
X174887675Y-101847960D01*
X174906278Y-102024967D01*
X174906279Y-102024975D01*
X174906958Y-102031428D01*
X174908963Y-102037600D01*
X174908965Y-102037607D01*
X174945340Y-102149556D01*
X174965973Y-102213056D01*
X175061460Y-102378444D01*
X175189247Y-102520366D01*
X175194497Y-102524180D01*
X175194500Y-102524183D01*
X175277148Y-102584230D01*
X175343748Y-102632618D01*
X175349681Y-102635259D01*
X175349682Y-102635260D01*
X175464769Y-102686500D01*
X175518212Y-102710294D01*
X175524570Y-102711645D01*
X175524572Y-102711646D01*
X175561374Y-102719468D01*
X175705013Y-102750000D01*
X175889484Y-102750000D01*
X175895987Y-102750000D01*
X176082788Y-102710294D01*
X176257252Y-102632618D01*
X176411753Y-102520366D01*
X176539540Y-102378444D01*
X176635027Y-102213056D01*
X176694042Y-102031428D01*
X176714004Y-101841500D01*
X176713706Y-101838668D01*
X176722764Y-101793132D01*
X176749644Y-101752904D01*
X177222730Y-101279819D01*
X177262958Y-101252939D01*
X177310411Y-101243500D01*
X181402589Y-101243500D01*
X181450042Y-101252939D01*
X181490270Y-101279819D01*
X184416778Y-104206327D01*
X184427472Y-104218521D01*
X184447013Y-104243987D01*
X184453455Y-104248930D01*
X184453456Y-104248931D01*
X184464378Y-104257312D01*
X184478925Y-104268474D01*
X184478928Y-104268477D01*
X184574124Y-104341524D01*
X184648136Y-104372180D01*
X184714640Y-104399728D01*
X184714642Y-104399728D01*
X184722149Y-104402838D01*
X184741543Y-104405391D01*
X184841115Y-104418500D01*
X184841120Y-104418500D01*
X184881000Y-104423750D01*
X184912821Y-104419560D01*
X184929004Y-104418500D01*
X185112710Y-104418500D01*
X185171727Y-104433445D01*
X185216519Y-104474678D01*
X185326474Y-104642977D01*
X185326477Y-104642981D01*
X185329278Y-104647268D01*
X185332752Y-104651041D01*
X185332753Y-104651043D01*
X185388446Y-104711541D01*
X185417831Y-104766743D01*
X185416538Y-104829265D01*
X185384898Y-104883205D01*
X181787924Y-108480181D01*
X181747696Y-108507061D01*
X181700243Y-108516500D01*
X177164411Y-108516500D01*
X177116958Y-108507061D01*
X177076730Y-108480181D01*
X176559144Y-107962595D01*
X176532264Y-107922367D01*
X176523206Y-107876831D01*
X176523504Y-107874000D01*
X176506021Y-107707655D01*
X176504221Y-107690532D01*
X176504220Y-107690531D01*
X176503542Y-107684072D01*
X176444527Y-107502444D01*
X176349040Y-107337056D01*
X176221253Y-107195134D01*
X176216003Y-107191319D01*
X176215999Y-107191316D01*
X176072006Y-107086699D01*
X176072004Y-107086697D01*
X176066752Y-107082882D01*
X176060821Y-107080241D01*
X176060817Y-107080239D01*
X175898226Y-107007849D01*
X175898219Y-107007846D01*
X175892288Y-107005206D01*
X175885935Y-107003855D01*
X175885927Y-107003853D01*
X175711849Y-106966852D01*
X175711846Y-106966851D01*
X175705487Y-106965500D01*
X175514513Y-106965500D01*
X175508154Y-106966851D01*
X175508150Y-106966852D01*
X175334072Y-107003853D01*
X175334061Y-107003856D01*
X175327712Y-107005206D01*
X175321782Y-107007845D01*
X175321773Y-107007849D01*
X175159182Y-107080239D01*
X175159174Y-107080243D01*
X175153248Y-107082882D01*
X175147999Y-107086695D01*
X175147993Y-107086699D01*
X175004000Y-107191316D01*
X175003991Y-107191323D01*
X174998747Y-107195134D01*
X174994403Y-107199957D01*
X174994400Y-107199961D01*
X174875307Y-107332228D01*
X174870960Y-107337056D01*
X174867714Y-107342676D01*
X174867711Y-107342682D01*
X174778721Y-107496817D01*
X174778718Y-107496822D01*
X174775473Y-107502444D01*
X174773467Y-107508616D01*
X174773465Y-107508622D01*
X174718465Y-107677892D01*
X174718463Y-107677901D01*
X174716458Y-107684072D01*
X174715780Y-107690522D01*
X174715778Y-107690532D01*
X174697778Y-107861795D01*
X174696496Y-107874000D01*
X174697175Y-107880460D01*
X174715778Y-108057467D01*
X174715779Y-108057475D01*
X174716458Y-108063928D01*
X174718463Y-108070100D01*
X174718465Y-108070107D01*
X174773465Y-108239377D01*
X174775473Y-108245556D01*
X174870960Y-108410944D01*
X174998747Y-108552866D01*
X175003997Y-108556680D01*
X175004000Y-108556683D01*
X175046094Y-108587266D01*
X175153248Y-108665118D01*
X175327712Y-108742794D01*
X175334070Y-108744145D01*
X175334072Y-108744146D01*
X175370874Y-108751968D01*
X175514513Y-108782500D01*
X175606589Y-108782500D01*
X175654042Y-108791939D01*
X175694270Y-108818819D01*
X176122269Y-109246818D01*
X176154363Y-109302405D01*
X176154363Y-109366593D01*
X176122269Y-109422180D01*
X175818596Y-109725853D01*
X175772308Y-109755059D01*
X175717956Y-109761493D01*
X175711840Y-109760850D01*
X175705487Y-109759500D01*
X175514513Y-109759500D01*
X175508154Y-109760851D01*
X175508150Y-109760852D01*
X175334072Y-109797853D01*
X175334061Y-109797856D01*
X175327712Y-109799206D01*
X175321782Y-109801845D01*
X175321773Y-109801849D01*
X175159182Y-109874239D01*
X175159174Y-109874243D01*
X175153248Y-109876882D01*
X175147999Y-109880695D01*
X175147993Y-109880699D01*
X175004000Y-109985316D01*
X175003991Y-109985323D01*
X174998747Y-109989134D01*
X174994403Y-109993957D01*
X174994400Y-109993961D01*
X174875307Y-110126228D01*
X174870960Y-110131056D01*
X174867714Y-110136676D01*
X174867711Y-110136682D01*
X174778721Y-110290817D01*
X174778718Y-110290822D01*
X174775473Y-110296444D01*
X174773467Y-110302616D01*
X174773465Y-110302622D01*
X174718465Y-110471892D01*
X174718463Y-110471901D01*
X174716458Y-110478072D01*
X174715780Y-110484522D01*
X174715778Y-110484532D01*
X174703759Y-110598892D01*
X174696496Y-110668000D01*
X168255156Y-110668000D01*
X168248542Y-110605072D01*
X168189527Y-110423444D01*
X168094040Y-110258056D01*
X167966253Y-110116134D01*
X167961003Y-110112319D01*
X167960999Y-110112316D01*
X167817006Y-110007699D01*
X167817004Y-110007697D01*
X167811752Y-110003882D01*
X167805821Y-110001241D01*
X167805817Y-110001239D01*
X167643226Y-109928849D01*
X167643219Y-109928846D01*
X167637288Y-109926206D01*
X167630935Y-109924855D01*
X167630927Y-109924853D01*
X167456849Y-109887852D01*
X167456846Y-109887851D01*
X167450487Y-109886500D01*
X167443984Y-109886500D01*
X167358411Y-109886500D01*
X167310958Y-109877061D01*
X167270730Y-109850181D01*
X167172819Y-109752270D01*
X167145939Y-109712042D01*
X167136500Y-109664589D01*
X167136500Y-106620500D01*
X167153113Y-106558500D01*
X167198500Y-106513113D01*
X167260500Y-106496500D01*
X167316984Y-106496500D01*
X167323487Y-106496500D01*
X167510288Y-106456794D01*
X167684752Y-106379118D01*
X167839253Y-106266866D01*
X167967040Y-106124944D01*
X168062527Y-105959556D01*
X168121542Y-105777928D01*
X168141504Y-105588000D01*
X168121542Y-105398072D01*
X168062527Y-105216444D01*
X167967040Y-105051056D01*
X167868349Y-104941448D01*
X167844736Y-104902916D01*
X167836500Y-104858478D01*
X167836500Y-103820012D01*
X167837561Y-103803827D01*
X167840690Y-103780059D01*
X167841751Y-103772000D01*
X167820838Y-103613150D01*
X167759524Y-103465124D01*
X167686478Y-103369929D01*
X167686478Y-103369928D01*
X167686470Y-103369919D01*
X167666934Y-103344459D01*
X167666930Y-103344455D01*
X167661987Y-103338013D01*
X167636512Y-103318465D01*
X167624326Y-103307777D01*
X164647948Y-100331399D01*
X164617111Y-100280179D01*
X164613825Y-100220482D01*
X164638856Y-100166187D01*
X164686383Y-100129916D01*
X164745355Y-100120100D01*
X164841000Y-100127628D01*
X165101249Y-100107146D01*
X165355089Y-100046204D01*
X165596271Y-99946303D01*
X165818856Y-99809903D01*
X166017363Y-99640363D01*
X166186903Y-99441856D01*
X166323303Y-99219271D01*
X166423204Y-98978089D01*
X166484146Y-98724249D01*
X166504628Y-98464000D01*
X166486251Y-98230505D01*
X166496067Y-98171534D01*
X166532339Y-98124007D01*
X166586634Y-98098976D01*
X166646330Y-98102262D01*
X166697550Y-98133099D01*
X167726181Y-99161730D01*
X167753061Y-99201958D01*
X167762500Y-99249411D01*
X167762500Y-100159478D01*
X167754264Y-100203916D01*
X167730650Y-100242450D01*
X167636306Y-100347228D01*
X167636301Y-100347234D01*
X167631960Y-100352056D01*
X167628714Y-100357676D01*
X167628711Y-100357682D01*
X167539721Y-100511817D01*
X167539718Y-100511822D01*
X167536473Y-100517444D01*
X167534467Y-100523616D01*
X167534465Y-100523622D01*
X167479465Y-100692892D01*
X167479463Y-100692901D01*
X167477458Y-100699072D01*
X167476780Y-100705522D01*
X167476778Y-100705532D01*
X167458778Y-100876795D01*
X167457496Y-100889000D01*
X167458175Y-100895460D01*
X167476778Y-101072467D01*
X167476779Y-101072475D01*
X167477458Y-101078928D01*
X167479463Y-101085100D01*
X167479465Y-101085107D01*
X167506224Y-101167461D01*
X167536473Y-101260556D01*
X167539720Y-101266180D01*
X167539721Y-101266182D01*
X167620701Y-101406444D01*
X167631960Y-101425944D01*
X167759747Y-101567866D01*
X167764997Y-101571680D01*
X167765000Y-101571683D01*
X167883849Y-101658032D01*
X167914248Y-101680118D01*
X167920181Y-101682759D01*
X167920182Y-101682760D01*
X168077728Y-101752904D01*
X168088712Y-101757794D01*
X168095070Y-101759145D01*
X168095072Y-101759146D01*
X168131874Y-101766968D01*
X168275513Y-101797500D01*
X168459984Y-101797500D01*
X168466487Y-101797500D01*
X168653288Y-101757794D01*
X168827752Y-101680118D01*
X168982253Y-101567866D01*
X169110040Y-101425944D01*
X169205527Y-101260556D01*
X169264542Y-101078928D01*
X169284504Y-100889000D01*
X169264542Y-100699072D01*
X169205527Y-100517444D01*
X169110040Y-100352056D01*
X169011349Y-100242448D01*
X168987736Y-100203916D01*
X168979500Y-100159478D01*
X168979500Y-98994004D01*
X168980561Y-98977819D01*
X168981149Y-98973352D01*
X168984750Y-98946000D01*
X168982243Y-98926960D01*
X168979500Y-98906120D01*
X168979500Y-98906115D01*
X168964899Y-98795212D01*
X168963838Y-98787150D01*
X168956832Y-98770237D01*
X168902524Y-98639124D01*
X168829477Y-98543928D01*
X168829474Y-98543925D01*
X168829471Y-98543921D01*
X168809931Y-98518456D01*
X168809930Y-98518455D01*
X168804987Y-98512013D01*
X168779512Y-98492465D01*
X168767326Y-98481777D01*
X167591826Y-97306277D01*
X167560310Y-97252774D01*
X167558686Y-97190699D01*
X167587357Y-97135624D01*
X167619709Y-97099696D01*
X167715196Y-96934308D01*
X167774211Y-96752680D01*
X167794173Y-96562752D01*
X167774211Y-96372824D01*
X167715196Y-96191196D01*
X167619709Y-96025808D01*
X167491922Y-95883886D01*
X167486672Y-95880071D01*
X167486668Y-95880068D01*
X167342675Y-95775451D01*
X167342673Y-95775449D01*
X167337421Y-95771634D01*
X167331490Y-95768993D01*
X167331486Y-95768991D01*
X167168895Y-95696601D01*
X167168888Y-95696598D01*
X167162957Y-95693958D01*
X167156604Y-95692607D01*
X167156596Y-95692605D01*
X166982518Y-95655604D01*
X166982515Y-95655603D01*
X166976156Y-95654252D01*
X166969653Y-95654252D01*
X166880162Y-95654252D01*
X166832709Y-95644813D01*
X166792481Y-95617933D01*
X163701132Y-92526583D01*
X163669491Y-92472641D01*
X163668200Y-92410118D01*
X163697584Y-92354919D01*
X163726722Y-92323268D01*
X163803039Y-92206456D01*
X163817191Y-92184795D01*
X163861982Y-92143561D01*
X163921000Y-92128616D01*
X163980018Y-92143561D01*
X164024809Y-92184795D01*
X164112470Y-92318972D01*
X164112478Y-92318982D01*
X164115278Y-92323268D01*
X164118752Y-92327041D01*
X164118753Y-92327043D01*
X164264288Y-92485135D01*
X164264291Y-92485138D01*
X164267760Y-92488906D01*
X164314322Y-92525147D01*
X164441376Y-92624039D01*
X164441381Y-92624042D01*
X164445424Y-92627189D01*
X164449931Y-92629628D01*
X164449934Y-92629630D01*
X164549544Y-92683536D01*
X164643426Y-92734342D01*
X164856365Y-92807444D01*
X165078431Y-92844500D01*
X165298436Y-92844500D01*
X165303569Y-92844500D01*
X165525635Y-92807444D01*
X165738574Y-92734342D01*
X165936576Y-92627189D01*
X166114240Y-92488906D01*
X166266722Y-92323268D01*
X166389860Y-92134791D01*
X166390296Y-92135076D01*
X166432658Y-92090609D01*
X166495158Y-92072697D01*
X166558130Y-92088870D01*
X166604262Y-92134683D01*
X166609388Y-92143561D01*
X166615960Y-92154944D01*
X166743747Y-92296866D01*
X166748997Y-92300680D01*
X166749000Y-92300683D01*
X166831593Y-92360690D01*
X166898248Y-92409118D01*
X166904181Y-92411759D01*
X166904182Y-92411760D01*
X167064659Y-92483209D01*
X167072712Y-92486794D01*
X167079070Y-92488145D01*
X167079072Y-92488146D01*
X167082648Y-92488906D01*
X167259513Y-92526500D01*
X167443984Y-92526500D01*
X167450487Y-92526500D01*
X167637288Y-92486794D01*
X167811752Y-92409118D01*
X167966253Y-92296866D01*
X168094040Y-92154944D01*
X168189527Y-91989556D01*
X168248542Y-91807928D01*
X168268504Y-91618000D01*
X168248542Y-91428072D01*
X168189527Y-91246444D01*
X168094040Y-91081056D01*
X167966253Y-90939134D01*
X167961003Y-90935319D01*
X167960999Y-90935316D01*
X167817006Y-90830699D01*
X167817004Y-90830697D01*
X167811752Y-90826882D01*
X167805821Y-90824241D01*
X167805817Y-90824239D01*
X167643226Y-90751849D01*
X167643219Y-90751846D01*
X167637288Y-90749206D01*
X167630935Y-90747855D01*
X167630927Y-90747853D01*
X167456849Y-90710852D01*
X167456846Y-90710851D01*
X167450487Y-90709500D01*
X167443984Y-90709500D01*
X167358411Y-90709500D01*
X167310958Y-90700061D01*
X167270730Y-90673181D01*
X166581033Y-89983484D01*
X166551777Y-89937056D01*
X166545425Y-89882547D01*
X166549145Y-89847940D01*
X166549144Y-89847940D01*
X166549500Y-89844638D01*
X166549500Y-89097101D01*
X166567773Y-89032311D01*
X166617205Y-88986616D01*
X166683229Y-88973483D01*
X166746385Y-88996782D01*
X166898248Y-89107118D01*
X166904181Y-89109759D01*
X166904182Y-89109760D01*
X167040310Y-89170368D01*
X167072712Y-89184794D01*
X167079070Y-89186145D01*
X167079072Y-89186146D01*
X167115874Y-89193968D01*
X167259513Y-89224500D01*
X167443984Y-89224500D01*
X167450487Y-89224500D01*
X167637288Y-89184794D01*
X167811752Y-89107118D01*
X167966253Y-88994866D01*
X168094040Y-88852944D01*
X168189527Y-88687556D01*
X168248542Y-88505928D01*
X168268504Y-88316000D01*
X168248542Y-88126072D01*
X168189527Y-87944444D01*
X168094040Y-87779056D01*
X167966253Y-87637134D01*
X167961003Y-87633319D01*
X167960999Y-87633316D01*
X167817006Y-87528699D01*
X167817004Y-87528697D01*
X167811752Y-87524882D01*
X167805821Y-87522241D01*
X167805817Y-87522239D01*
X167643226Y-87449849D01*
X167643219Y-87449846D01*
X167637288Y-87447206D01*
X167630935Y-87445855D01*
X167630927Y-87445853D01*
X167456849Y-87408852D01*
X167456846Y-87408851D01*
X167450487Y-87407500D01*
X167443984Y-87407500D01*
X167364337Y-87407500D01*
X167316886Y-87398062D01*
X167276658Y-87371183D01*
X167273930Y-87368455D01*
X167268987Y-87362013D01*
X167259851Y-87355003D01*
X167237084Y-87337533D01*
X167237072Y-87337523D01*
X167218961Y-87323626D01*
X167148322Y-87269422D01*
X167148320Y-87269421D01*
X167141876Y-87264476D01*
X167134367Y-87261365D01*
X167134366Y-87261365D01*
X167001359Y-87206271D01*
X167001352Y-87206269D01*
X166993851Y-87203162D01*
X166985796Y-87202101D01*
X166985795Y-87202101D01*
X166974456Y-87200608D01*
X166874885Y-87187500D01*
X166874884Y-87187500D01*
X166874876Y-87187499D01*
X166843061Y-87183311D01*
X166843060Y-87183311D01*
X166835000Y-87182250D01*
X166803178Y-87186439D01*
X166786996Y-87187500D01*
X158769012Y-87187500D01*
X158752827Y-87186439D01*
X158729059Y-87183310D01*
X158721000Y-87182249D01*
X158712941Y-87183310D01*
X158570208Y-87202100D01*
X158570200Y-87202102D01*
X158562149Y-87203162D01*
X158554644Y-87206270D01*
X158554639Y-87206272D01*
X158421633Y-87261365D01*
X158421628Y-87261367D01*
X158414124Y-87264476D01*
X158407679Y-87269420D01*
X158407676Y-87269423D01*
X158318929Y-87337522D01*
X158318928Y-87337521D01*
X158318925Y-87337525D01*
X158293459Y-87357066D01*
X158293456Y-87357068D01*
X158287013Y-87362013D01*
X158282071Y-87368452D01*
X158282064Y-87368460D01*
X158267466Y-87387484D01*
X158256775Y-87399674D01*
X158054360Y-87602089D01*
X157994630Y-87635217D01*
X157926419Y-87631690D01*
X157910490Y-87626222D01*
X157910482Y-87626220D01*
X157905635Y-87624556D01*
X157900582Y-87623712D01*
X157900579Y-87623712D01*
X157688631Y-87588344D01*
X157688622Y-87588343D01*
X157683569Y-87587500D01*
X157458431Y-87587500D01*
X157453378Y-87588343D01*
X157453368Y-87588344D01*
X157241423Y-87623711D01*
X157241411Y-87623713D01*
X157236365Y-87624556D01*
X157231515Y-87626220D01*
X157231511Y-87626222D01*
X157028273Y-87695993D01*
X157028262Y-87695997D01*
X157023426Y-87697658D01*
X157018929Y-87700091D01*
X157018919Y-87700096D01*
X156829934Y-87802369D01*
X156829922Y-87802376D01*
X156825424Y-87804811D01*
X156821389Y-87807951D01*
X156821376Y-87807960D01*
X156651801Y-87939948D01*
X156651795Y-87939952D01*
X156647760Y-87943094D01*
X156644297Y-87946855D01*
X156644288Y-87946864D01*
X156498753Y-88104956D01*
X156498747Y-88104963D01*
X156495278Y-88108732D01*
X156492481Y-88113012D01*
X156492474Y-88113022D01*
X156404809Y-88247205D01*
X156360017Y-88288438D01*
X156301000Y-88303383D01*
X156241983Y-88288438D01*
X156197191Y-88247205D01*
X156109525Y-88113022D01*
X156109523Y-88113020D01*
X156106722Y-88108732D01*
X156050455Y-88047610D01*
X155957711Y-87946864D01*
X155957708Y-87946861D01*
X155954240Y-87943094D01*
X155918788Y-87915500D01*
X155780623Y-87807960D01*
X155780615Y-87807955D01*
X155776576Y-87804811D01*
X155772071Y-87802373D01*
X155772065Y-87802369D01*
X155583080Y-87700096D01*
X155583074Y-87700093D01*
X155578574Y-87697658D01*
X155573733Y-87695996D01*
X155573726Y-87695993D01*
X155370488Y-87626222D01*
X155370487Y-87626221D01*
X155365635Y-87624556D01*
X155360585Y-87623713D01*
X155360576Y-87623711D01*
X155148631Y-87588344D01*
X155148622Y-87588343D01*
X155143569Y-87587500D01*
X154918431Y-87587500D01*
X154913378Y-87588343D01*
X154913368Y-87588344D01*
X154701423Y-87623711D01*
X154701411Y-87623713D01*
X154696365Y-87624556D01*
X154691515Y-87626220D01*
X154691511Y-87626222D01*
X154488273Y-87695993D01*
X154488262Y-87695997D01*
X154483426Y-87697658D01*
X154478929Y-87700091D01*
X154478919Y-87700096D01*
X154289934Y-87802369D01*
X154289922Y-87802376D01*
X154285424Y-87804811D01*
X154281389Y-87807951D01*
X154281376Y-87807960D01*
X154111801Y-87939948D01*
X154111795Y-87939952D01*
X154107760Y-87943094D01*
X154104297Y-87946855D01*
X154104288Y-87946864D01*
X153958753Y-88104956D01*
X153958747Y-88104963D01*
X153955278Y-88108732D01*
X153952481Y-88113012D01*
X153952474Y-88113022D01*
X153864809Y-88247205D01*
X153820017Y-88288438D01*
X153761000Y-88303383D01*
X153701983Y-88288438D01*
X153657191Y-88247205D01*
X153569525Y-88113022D01*
X153569523Y-88113020D01*
X153566722Y-88108732D01*
X153510455Y-88047610D01*
X153417711Y-87946864D01*
X153417708Y-87946861D01*
X153414240Y-87943094D01*
X153378788Y-87915500D01*
X153240623Y-87807960D01*
X153240615Y-87807955D01*
X153236576Y-87804811D01*
X153232071Y-87802373D01*
X153232065Y-87802369D01*
X153043080Y-87700096D01*
X153043074Y-87700093D01*
X153038574Y-87697658D01*
X153033733Y-87695996D01*
X153033726Y-87695993D01*
X152830488Y-87626222D01*
X152830487Y-87626221D01*
X152825635Y-87624556D01*
X152820585Y-87623713D01*
X152820576Y-87623711D01*
X152608631Y-87588344D01*
X152608622Y-87588343D01*
X152603569Y-87587500D01*
X152378431Y-87587500D01*
X152373378Y-87588343D01*
X152373368Y-87588344D01*
X152161423Y-87623711D01*
X152161411Y-87623713D01*
X152156365Y-87624556D01*
X152151515Y-87626220D01*
X152151511Y-87626222D01*
X151948273Y-87695993D01*
X151948262Y-87695997D01*
X151943426Y-87697658D01*
X151938929Y-87700091D01*
X151938919Y-87700096D01*
X151749934Y-87802369D01*
X151749922Y-87802376D01*
X151745424Y-87804811D01*
X151741389Y-87807951D01*
X151741376Y-87807960D01*
X151571801Y-87939948D01*
X151571795Y-87939952D01*
X151567760Y-87943094D01*
X151564297Y-87946855D01*
X151564288Y-87946864D01*
X151418753Y-88104956D01*
X151418747Y-88104963D01*
X151415278Y-88108732D01*
X151412481Y-88113012D01*
X151412474Y-88113022D01*
X151324809Y-88247205D01*
X151280017Y-88288438D01*
X151221000Y-88303383D01*
X151161983Y-88288438D01*
X151117191Y-88247205D01*
X151029525Y-88113022D01*
X151029523Y-88113020D01*
X151026722Y-88108732D01*
X150970455Y-88047610D01*
X150877711Y-87946864D01*
X150877708Y-87946861D01*
X150874240Y-87943094D01*
X150838788Y-87915500D01*
X150700623Y-87807960D01*
X150700615Y-87807955D01*
X150696576Y-87804811D01*
X150692071Y-87802373D01*
X150692065Y-87802369D01*
X150503080Y-87700096D01*
X150503074Y-87700093D01*
X150498574Y-87697658D01*
X150493733Y-87695996D01*
X150493726Y-87695993D01*
X150290488Y-87626222D01*
X150290487Y-87626221D01*
X150285635Y-87624556D01*
X150280585Y-87623713D01*
X150280576Y-87623711D01*
X150068621Y-87588343D01*
X150068620Y-87588342D01*
X150063569Y-87587500D01*
X150059817Y-87587500D01*
X150018537Y-87576590D01*
X149983004Y-87551770D01*
X149304952Y-86873718D01*
X186248800Y-86873718D01*
X186249153Y-86880314D01*
X186254373Y-86928867D01*
X186257911Y-86943841D01*
X186302347Y-87062977D01*
X186310762Y-87078389D01*
X186386298Y-87179292D01*
X186398707Y-87191701D01*
X186499610Y-87267237D01*
X186515022Y-87275652D01*
X186634158Y-87320088D01*
X186649132Y-87323626D01*
X186697685Y-87328846D01*
X186704282Y-87329200D01*
X187332474Y-87329200D01*
X187345349Y-87325749D01*
X187348800Y-87312874D01*
X187848800Y-87312874D01*
X187852250Y-87325749D01*
X187865126Y-87329200D01*
X188493318Y-87329200D01*
X188499914Y-87328846D01*
X188548467Y-87323626D01*
X188563441Y-87320088D01*
X188682577Y-87275652D01*
X188697989Y-87267237D01*
X188798892Y-87191701D01*
X188811301Y-87179292D01*
X188886837Y-87078389D01*
X188895252Y-87062977D01*
X188939688Y-86943841D01*
X188943226Y-86928867D01*
X188948446Y-86880314D01*
X188948800Y-86873718D01*
X188948800Y-86245526D01*
X188945349Y-86232650D01*
X188932474Y-86229200D01*
X187865126Y-86229200D01*
X187852250Y-86232650D01*
X187848800Y-86245526D01*
X187848800Y-87312874D01*
X187348800Y-87312874D01*
X187348800Y-86245526D01*
X187345349Y-86232650D01*
X187332474Y-86229200D01*
X186265126Y-86229200D01*
X186252250Y-86232650D01*
X186248800Y-86245526D01*
X186248800Y-86873718D01*
X149304952Y-86873718D01*
X148144108Y-85712874D01*
X186248800Y-85712874D01*
X186252250Y-85725749D01*
X186265126Y-85729200D01*
X187332474Y-85729200D01*
X187345349Y-85725749D01*
X187348800Y-85712874D01*
X187848800Y-85712874D01*
X187852250Y-85725749D01*
X187865126Y-85729200D01*
X188932474Y-85729200D01*
X188945349Y-85725749D01*
X188948800Y-85712874D01*
X188948800Y-85084682D01*
X188948446Y-85078085D01*
X188943226Y-85029532D01*
X188939688Y-85014558D01*
X188895252Y-84895422D01*
X188886837Y-84880010D01*
X188811301Y-84779107D01*
X188798892Y-84766698D01*
X188697989Y-84691162D01*
X188682577Y-84682747D01*
X188563441Y-84638311D01*
X188548467Y-84634773D01*
X188499914Y-84629553D01*
X188493318Y-84629200D01*
X187865126Y-84629200D01*
X187852250Y-84632650D01*
X187848800Y-84645526D01*
X187848800Y-85712874D01*
X187348800Y-85712874D01*
X187348800Y-84645526D01*
X187345349Y-84632650D01*
X187332474Y-84629200D01*
X186704282Y-84629200D01*
X186697685Y-84629553D01*
X186649132Y-84634773D01*
X186634158Y-84638311D01*
X186515022Y-84682747D01*
X186499610Y-84691162D01*
X186398707Y-84766698D01*
X186386298Y-84779107D01*
X186310762Y-84880010D01*
X186302347Y-84895422D01*
X186257911Y-85014558D01*
X186254373Y-85029532D01*
X186249153Y-85078085D01*
X186248800Y-85084682D01*
X186248800Y-85712874D01*
X148144108Y-85712874D01*
X146378464Y-83947230D01*
X146370291Y-83938213D01*
X146342568Y-83904432D01*
X146260223Y-83836853D01*
X146224327Y-83788453D01*
X146215485Y-83728846D01*
X146235786Y-83672109D01*
X146280435Y-83631642D01*
X146338888Y-83617000D01*
X192662199Y-83617000D01*
X192693970Y-83621140D01*
G37*
G04 #@! TD.AperFunction*
G04 #@! TA.AperFunction,Conductor*
G36*
X156166543Y-95896391D02*
G01*
X156266115Y-95909500D01*
X156266120Y-95909500D01*
X156306000Y-95914750D01*
X156337822Y-95910560D01*
X156354006Y-95909500D01*
X157945589Y-95909500D01*
X157993042Y-95918939D01*
X158033270Y-95945819D01*
X159240407Y-97152956D01*
X159269047Y-97197678D01*
X159276350Y-97250280D01*
X159260979Y-97301113D01*
X159225751Y-97340854D01*
X156149839Y-99582166D01*
X156149837Y-99582167D01*
X156138088Y-99590728D01*
X156164668Y-95896144D01*
X156166543Y-95896391D01*
G37*
G04 #@! TD.AperFunction*
G04 #@! TA.AperFunction,Conductor*
G36*
X156379982Y-93611371D02*
G01*
X156422149Y-93628838D01*
X156441543Y-93631391D01*
X156541115Y-93644500D01*
X156541120Y-93644500D01*
X156581000Y-93649750D01*
X156612821Y-93645560D01*
X156629004Y-93644500D01*
X162157589Y-93644500D01*
X162205042Y-93653939D01*
X162245270Y-93680819D01*
X165171900Y-96607449D01*
X165202737Y-96658669D01*
X165206023Y-96718365D01*
X165180992Y-96772660D01*
X165133465Y-96808932D01*
X165074490Y-96818748D01*
X164845854Y-96800754D01*
X164841000Y-96800372D01*
X164836146Y-96800754D01*
X164585602Y-96820472D01*
X164585599Y-96820472D01*
X164580751Y-96820854D01*
X164576023Y-96821988D01*
X164576017Y-96821990D01*
X164331647Y-96880658D01*
X164331635Y-96880661D01*
X164326911Y-96881796D01*
X164322414Y-96883658D01*
X164322410Y-96883660D01*
X164090233Y-96979831D01*
X164090229Y-96979833D01*
X164085729Y-96981697D01*
X164081576Y-96984241D01*
X164081570Y-96984245D01*
X163867300Y-97115549D01*
X163867289Y-97115556D01*
X163863144Y-97118097D01*
X163859447Y-97121254D01*
X163859438Y-97121261D01*
X163668337Y-97284476D01*
X163668330Y-97284482D01*
X163664637Y-97287637D01*
X163661482Y-97291330D01*
X163661476Y-97291337D01*
X163498261Y-97482438D01*
X163498254Y-97482447D01*
X163495097Y-97486144D01*
X163492556Y-97490289D01*
X163492549Y-97490300D01*
X163361245Y-97704570D01*
X163361241Y-97704576D01*
X163358697Y-97708729D01*
X163356833Y-97713229D01*
X163356831Y-97713233D01*
X163260660Y-97945410D01*
X163258796Y-97949911D01*
X163257661Y-97954635D01*
X163257658Y-97954647D01*
X163198990Y-98199017D01*
X163198988Y-98199023D01*
X163197854Y-98203751D01*
X163197472Y-98208599D01*
X163197472Y-98208602D01*
X163187923Y-98329932D01*
X163177372Y-98464000D01*
X163177754Y-98468854D01*
X163184899Y-98559641D01*
X163175083Y-98618616D01*
X163138811Y-98666143D01*
X163084516Y-98691174D01*
X163024820Y-98687888D01*
X162973600Y-98657051D01*
X158821225Y-94504676D01*
X158810530Y-94492481D01*
X158795934Y-94473459D01*
X158795930Y-94473455D01*
X158790987Y-94467013D01*
X158759074Y-94442525D01*
X158759072Y-94442523D01*
X158663876Y-94369476D01*
X158656367Y-94366365D01*
X158656366Y-94366365D01*
X158523359Y-94311271D01*
X158523352Y-94311269D01*
X158515851Y-94308162D01*
X158507796Y-94307101D01*
X158507795Y-94307101D01*
X158496456Y-94305608D01*
X158496456Y-94305607D01*
X158396885Y-94292500D01*
X158396884Y-94292500D01*
X158396876Y-94292499D01*
X158365061Y-94288311D01*
X158365060Y-94288311D01*
X158357000Y-94287250D01*
X158325178Y-94291439D01*
X158308996Y-94292500D01*
X156775097Y-94292500D01*
X156727644Y-94283061D01*
X156687416Y-94256181D01*
X156244849Y-93813614D01*
X156211956Y-93754880D01*
X156214599Y-93687615D01*
X156251999Y-93631642D01*
X156313133Y-93603460D01*
X156379982Y-93611371D01*
G37*
G04 #@! TD.AperFunction*
G04 #@! TA.AperFunction,Conductor*
G36*
X134031902Y-91155533D02*
G01*
X134078812Y-91196818D01*
X134169696Y-91331285D01*
X134332652Y-91501310D01*
X134521998Y-91641350D01*
X134732288Y-91747376D01*
X134864903Y-91787988D01*
X134878399Y-91792121D01*
X134929771Y-91823005D01*
X138523181Y-95416415D01*
X138550061Y-95456643D01*
X138559500Y-95504096D01*
X138559500Y-95542079D01*
X138543068Y-95603765D01*
X138498127Y-95649102D01*
X138436589Y-95666073D01*
X137841854Y-95671290D01*
X136674058Y-95681534D01*
X136625190Y-95671964D01*
X136584027Y-95643940D01*
X136581984Y-95641837D01*
X133034257Y-91989765D01*
X133002712Y-91932665D01*
X133004515Y-91867454D01*
X133039167Y-91812182D01*
X133097078Y-91782148D01*
X133108929Y-91779593D01*
X133118981Y-91776515D01*
X133326383Y-91693174D01*
X133335747Y-91688453D01*
X133526097Y-91571250D01*
X133534527Y-91565016D01*
X133702321Y-91417337D01*
X133709590Y-91409753D01*
X133850007Y-91235849D01*
X133855884Y-91227154D01*
X133867822Y-91205785D01*
X133911062Y-91160668D01*
X133970813Y-91142368D01*
X134031902Y-91155533D01*
G37*
G04 #@! TD.AperFunction*
G04 #@! TA.AperFunction,Conductor*
G36*
X143660018Y-92143561D02*
G01*
X143704809Y-92184795D01*
X143792470Y-92318972D01*
X143792478Y-92318982D01*
X143795278Y-92323268D01*
X143798752Y-92327041D01*
X143798753Y-92327043D01*
X143944288Y-92485135D01*
X143944291Y-92485138D01*
X143947760Y-92488906D01*
X143994322Y-92525147D01*
X144121376Y-92624039D01*
X144121381Y-92624042D01*
X144125424Y-92627189D01*
X144162206Y-92647094D01*
X144172517Y-92652674D01*
X144220022Y-92698255D01*
X144237500Y-92761729D01*
X144237500Y-95492271D01*
X144221068Y-95553957D01*
X144176127Y-95599294D01*
X144114588Y-95616266D01*
X143464588Y-95621968D01*
X143402129Y-95605721D01*
X143356295Y-95560287D01*
X143339500Y-95497973D01*
X143339500Y-92444674D01*
X143347983Y-92399598D01*
X143372268Y-92360694D01*
X143406722Y-92323268D01*
X143409532Y-92318968D01*
X143497191Y-92184795D01*
X143541982Y-92143561D01*
X143601000Y-92128616D01*
X143660018Y-92143561D01*
G37*
G04 #@! TD.AperFunction*
G04 #@! TA.AperFunction,Conductor*
G36*
X151280018Y-92143561D02*
G01*
X151324809Y-92184795D01*
X151412470Y-92318972D01*
X151412478Y-92318982D01*
X151415278Y-92323268D01*
X151418752Y-92327041D01*
X151418753Y-92327043D01*
X151564288Y-92485135D01*
X151564291Y-92485138D01*
X151567760Y-92488906D01*
X151614322Y-92525147D01*
X151741376Y-92624039D01*
X151741381Y-92624042D01*
X151745424Y-92627189D01*
X151749931Y-92629628D01*
X151749934Y-92629630D01*
X151849544Y-92683536D01*
X151943426Y-92734342D01*
X152156365Y-92807444D01*
X152378431Y-92844500D01*
X152598436Y-92844500D01*
X152603569Y-92844500D01*
X152825635Y-92807444D01*
X152846415Y-92800309D01*
X152914626Y-92796780D01*
X152974360Y-92829909D01*
X154048451Y-93904000D01*
X148044500Y-93904000D01*
X148044500Y-92761729D01*
X148061978Y-92698255D01*
X148109483Y-92652674D01*
X148156576Y-92627189D01*
X148334240Y-92488906D01*
X148486722Y-92323268D01*
X148489532Y-92318968D01*
X148577191Y-92184795D01*
X148621982Y-92143561D01*
X148681000Y-92128616D01*
X148740018Y-92143561D01*
X148784809Y-92184795D01*
X148872470Y-92318972D01*
X148872478Y-92318982D01*
X148875278Y-92323268D01*
X148878752Y-92327041D01*
X148878753Y-92327043D01*
X149024288Y-92485135D01*
X149024291Y-92485138D01*
X149027760Y-92488906D01*
X149074322Y-92525147D01*
X149201376Y-92624039D01*
X149201381Y-92624042D01*
X149205424Y-92627189D01*
X149209931Y-92629628D01*
X149209934Y-92629630D01*
X149309544Y-92683536D01*
X149403426Y-92734342D01*
X149616365Y-92807444D01*
X149838431Y-92844500D01*
X150058436Y-92844500D01*
X150063569Y-92844500D01*
X150285635Y-92807444D01*
X150498574Y-92734342D01*
X150696576Y-92627189D01*
X150874240Y-92488906D01*
X151026722Y-92323268D01*
X151029532Y-92318968D01*
X151117191Y-92184795D01*
X151161982Y-92143561D01*
X151221000Y-92128616D01*
X151280018Y-92143561D01*
G37*
G04 #@! TD.AperFunction*
G04 #@! TA.AperFunction,Conductor*
G36*
X146200018Y-92143561D02*
G01*
X146244809Y-92184795D01*
X146332470Y-92318972D01*
X146332478Y-92318982D01*
X146335278Y-92323268D01*
X146338752Y-92327041D01*
X146338753Y-92327043D01*
X146484288Y-92485135D01*
X146484291Y-92485138D01*
X146487760Y-92488906D01*
X146534322Y-92525147D01*
X146661376Y-92624039D01*
X146661381Y-92624042D01*
X146665424Y-92627189D01*
X146702206Y-92647094D01*
X146712517Y-92652674D01*
X146760022Y-92698255D01*
X146777500Y-92761729D01*
X146777500Y-93904000D01*
X145504500Y-93904000D01*
X145504500Y-92761729D01*
X145521978Y-92698255D01*
X145569483Y-92652674D01*
X145616576Y-92627189D01*
X145794240Y-92488906D01*
X145946722Y-92323268D01*
X145949532Y-92318968D01*
X146037191Y-92184795D01*
X146081982Y-92143561D01*
X146141000Y-92128616D01*
X146200018Y-92143561D01*
G37*
G04 #@! TD.AperFunction*
G04 #@! TA.AperFunction,Conductor*
G36*
X134135291Y-85646977D02*
G01*
X134180872Y-85694483D01*
X134195711Y-85758624D01*
X134175626Y-85821321D01*
X134056140Y-86004209D01*
X134054085Y-86008892D01*
X134054080Y-86008903D01*
X133967764Y-86205687D01*
X133965704Y-86210384D01*
X133964446Y-86215349D01*
X133964445Y-86215354D01*
X133911695Y-86423657D01*
X133911693Y-86423666D01*
X133910436Y-86428632D01*
X133910012Y-86433741D01*
X133910011Y-86433751D01*
X133896708Y-86594299D01*
X133891844Y-86653000D01*
X133892268Y-86658117D01*
X133910011Y-86872248D01*
X133910012Y-86872256D01*
X133910436Y-86877368D01*
X133911693Y-86882335D01*
X133911695Y-86882342D01*
X133964445Y-87090645D01*
X133965704Y-87095616D01*
X133967764Y-87100312D01*
X134054080Y-87297096D01*
X134054083Y-87297101D01*
X134056140Y-87301791D01*
X134179278Y-87490268D01*
X134182749Y-87494038D01*
X134182758Y-87494050D01*
X134208729Y-87522261D01*
X134233017Y-87561169D01*
X134241500Y-87606244D01*
X134241500Y-88528358D01*
X134240903Y-88540511D01*
X134236620Y-88584000D01*
X134239886Y-88617167D01*
X134240903Y-88627488D01*
X134241500Y-88639642D01*
X134241500Y-88961939D01*
X134234417Y-89003248D01*
X134213976Y-89039838D01*
X134102923Y-89177374D01*
X134102920Y-89177377D01*
X134099613Y-89181474D01*
X134097049Y-89186063D01*
X134097040Y-89186077D01*
X134082199Y-89212643D01*
X134038959Y-89257757D01*
X133979208Y-89276054D01*
X133918121Y-89262888D01*
X133871212Y-89221603D01*
X133786618Y-89096441D01*
X133780020Y-89088270D01*
X133625357Y-88926897D01*
X133617475Y-88919960D01*
X133437770Y-88787050D01*
X133428820Y-88781539D01*
X133229233Y-88680911D01*
X133219496Y-88676998D01*
X133005766Y-88611544D01*
X132995507Y-88609333D01*
X132977523Y-88607030D01*
X132963862Y-88609174D01*
X132960000Y-88622453D01*
X132960000Y-90335000D01*
X132943387Y-90397000D01*
X132898000Y-90442387D01*
X132836000Y-90459000D01*
X132584000Y-90459000D01*
X132522000Y-90442387D01*
X132476613Y-90397000D01*
X132460000Y-90335000D01*
X132460000Y-88620186D01*
X132457544Y-88609350D01*
X132446434Y-88609232D01*
X132407464Y-88617631D01*
X132353151Y-88617167D01*
X132304247Y-88593536D01*
X132270134Y-88551271D01*
X132257358Y-88498484D01*
X132218994Y-86196679D01*
X132228025Y-86148120D01*
X132255292Y-86106941D01*
X132696415Y-85665818D01*
X132736643Y-85638939D01*
X132784096Y-85629500D01*
X134071817Y-85629500D01*
X134135291Y-85646977D01*
G37*
G04 #@! TD.AperFunction*
G04 #@! TA.AperFunction,Conductor*
G36*
X145204357Y-85638939D02*
G01*
X145244585Y-85665819D01*
X145265585Y-85686819D01*
X145295835Y-85736182D01*
X145300377Y-85793898D01*
X145278222Y-85847385D01*
X145234199Y-85884985D01*
X145177904Y-85898500D01*
X141147640Y-85898500D01*
X141135486Y-85897903D01*
X141098061Y-85894217D01*
X141092000Y-85893620D01*
X141085939Y-85894217D01*
X141042453Y-85898500D01*
X140900363Y-85912494D01*
X140900355Y-85912495D01*
X140894299Y-85913092D01*
X140888475Y-85914858D01*
X140888468Y-85914860D01*
X140710023Y-85968991D01*
X140710019Y-85968992D01*
X140704196Y-85970759D01*
X140698830Y-85973626D01*
X140698823Y-85973630D01*
X140534372Y-86061531D01*
X140534368Y-86061533D01*
X140528996Y-86064405D01*
X140524288Y-86068268D01*
X140524283Y-86068272D01*
X140380138Y-86186569D01*
X140380133Y-86186573D01*
X140375432Y-86190432D01*
X140371573Y-86195133D01*
X140371571Y-86195136D01*
X140347706Y-86224215D01*
X140339536Y-86233228D01*
X139365181Y-87207585D01*
X139315818Y-87237835D01*
X139258102Y-87242377D01*
X139204615Y-87220222D01*
X139167015Y-87176199D01*
X139153500Y-87119904D01*
X139153500Y-85754362D01*
X139154899Y-85754362D01*
X139167932Y-85695355D01*
X139213555Y-85647232D01*
X139277454Y-85629500D01*
X145156904Y-85629500D01*
X145204357Y-85638939D01*
G37*
G04 #@! TD.AperFunction*
G04 #@! TD*
M02*
