G04 #@! TF.GenerationSoftware,KiCad,Pcbnew,7.0.0-da2b9df05c~163~ubuntu22.04.1*
G04 #@! TF.CreationDate,2023-02-25T14:43:59+01:00*
G04 #@! TF.ProjectId,power_board,706f7765-725f-4626-9f61-72642e6b6963,rev?*
G04 #@! TF.SameCoordinates,Original*
G04 #@! TF.FileFunction,Soldermask,Top*
G04 #@! TF.FilePolarity,Negative*
%FSLAX46Y46*%
G04 Gerber Fmt 4.6, Leading zero omitted, Abs format (unit mm)*
G04 Created by KiCad (PCBNEW 7.0.0-da2b9df05c~163~ubuntu22.04.1) date 2023-02-25 14:43:59*
%MOMM*%
%LPD*%
G01*
G04 APERTURE LIST*
G04 Aperture macros list*
%AMRoundRect*
0 Rectangle with rounded corners*
0 $1 Rounding radius*
0 $2 $3 $4 $5 $6 $7 $8 $9 X,Y pos of 4 corners*
0 Add a 4 corners polygon primitive as box body*
4,1,4,$2,$3,$4,$5,$6,$7,$8,$9,$2,$3,0*
0 Add four circle primitives for the rounded corners*
1,1,$1+$1,$2,$3*
1,1,$1+$1,$4,$5*
1,1,$1+$1,$6,$7*
1,1,$1+$1,$8,$9*
0 Add four rect primitives between the rounded corners*
20,1,$1+$1,$2,$3,$4,$5,0*
20,1,$1+$1,$4,$5,$6,$7,0*
20,1,$1+$1,$6,$7,$8,$9,0*
20,1,$1+$1,$8,$9,$2,$3,0*%
G04 Aperture macros list end*
%ADD10R,1.700000X1.700000*%
%ADD11O,1.700000X1.700000*%
%ADD12R,2.800000X3.500000*%
%ADD13RoundRect,0.250000X0.700000X-0.275000X0.700000X0.275000X-0.700000X0.275000X-0.700000X-0.275000X0*%
%ADD14R,1.600000X1.600000*%
%ADD15C,1.600000*%
%ADD16R,1.750000X2.250000*%
%ADD17O,1.750000X2.250000*%
%ADD18C,1.270000*%
%ADD19C,2.400000*%
%ADD20RoundRect,0.250000X-1.550000X0.650000X-1.550000X-0.650000X1.550000X-0.650000X1.550000X0.650000X0*%
%ADD21O,3.600000X1.800000*%
%ADD22R,2.300000X2.000000*%
%ADD23C,2.300000*%
G04 APERTURE END LIST*
D10*
G04 #@! TO.C,J9*
X165190999Y-88945999D03*
D11*
X165190999Y-91485999D03*
X162650999Y-88945999D03*
X162650999Y-91485999D03*
X160110999Y-88945999D03*
X160110999Y-91485999D03*
X157570999Y-88945999D03*
X157570999Y-91485999D03*
X155030999Y-88945999D03*
X155030999Y-91485999D03*
X152490999Y-88945999D03*
X152490999Y-91485999D03*
X149950999Y-88945999D03*
X149950999Y-91485999D03*
X147410999Y-88945999D03*
X147410999Y-91485999D03*
X144870999Y-88945999D03*
X144870999Y-91485999D03*
X142330999Y-88945999D03*
X142330999Y-91485999D03*
G04 #@! TD*
D12*
G04 #@! TO.C,RV2*
X124167999Y-97574999D03*
X116867999Y-97574999D03*
G04 #@! TD*
G04 #@! TO.C,RV3*
X124167999Y-106210999D03*
X116867999Y-106210999D03*
G04 #@! TD*
G04 #@! TO.C,RV1*
X124167999Y-88303999D03*
X116867999Y-88303999D03*
G04 #@! TD*
D10*
G04 #@! TO.C,J3*
X187598799Y-85979199D03*
G04 #@! TD*
D13*
G04 #@! TO.C,L1*
X125826000Y-114529000D03*
X125826000Y-111379000D03*
G04 #@! TD*
D10*
G04 #@! TO.C,J1*
X137794999Y-86652999D03*
D11*
X135254999Y-86652999D03*
G04 #@! TD*
D10*
G04 #@! TO.C,J4*
X186404999Y-93649999D03*
D11*
X188944999Y-93649999D03*
X186404999Y-96189999D03*
X188944999Y-96189999D03*
X186404999Y-98729999D03*
X188944999Y-98729999D03*
X186404999Y-101269999D03*
X188944999Y-101269999D03*
X186404999Y-103809999D03*
X188944999Y-103809999D03*
X186404999Y-106349999D03*
X188944999Y-106349999D03*
G04 #@! TD*
D14*
G04 #@! TO.C,C6*
X189427599Y-113614399D03*
D15*
X189427600Y-111114400D03*
G04 #@! TD*
D16*
G04 #@! TO.C,PS2*
X137789999Y-90208999D03*
D17*
X135249999Y-90208999D03*
X132709999Y-90208999D03*
X130169999Y-90208999D03*
G04 #@! TD*
D18*
G04 #@! TO.C,F1*
X117190000Y-112700000D03*
X122290000Y-114300000D03*
G04 #@! TD*
D19*
G04 #@! TO.C,C1*
X129916000Y-98584000D03*
X129916000Y-113584000D03*
G04 #@! TD*
D20*
G04 #@! TO.C,J2*
X112110000Y-87300000D03*
D21*
X112109999Y-92379999D03*
X112109999Y-97459999D03*
X112109999Y-102539999D03*
X112109999Y-107619999D03*
X112109999Y-112699999D03*
G04 #@! TD*
D22*
G04 #@! TO.C,PS1*
X135440999Y-103663999D03*
D23*
X135441000Y-108664000D03*
X164841000Y-98464000D03*
X164841000Y-113864000D03*
G04 #@! TD*
M02*
