G04 #@! TF.GenerationSoftware,KiCad,Pcbnew,7.0.0-da2b9df05c~163~ubuntu22.04.1*
G04 #@! TF.CreationDate,2023-02-25T14:43:59+01:00*
G04 #@! TF.ProjectId,power_board,706f7765-725f-4626-9f61-72642e6b6963,rev?*
G04 #@! TF.SameCoordinates,Original*
G04 #@! TF.FileFunction,Soldermask,Bot*
G04 #@! TF.FilePolarity,Negative*
%FSLAX46Y46*%
G04 Gerber Fmt 4.6, Leading zero omitted, Abs format (unit mm)*
G04 Created by KiCad (PCBNEW 7.0.0-da2b9df05c~163~ubuntu22.04.1) date 2023-02-25 14:43:59*
%MOMM*%
%LPD*%
G01*
G04 APERTURE LIST*
G04 Aperture macros list*
%AMRoundRect*
0 Rectangle with rounded corners*
0 $1 Rounding radius*
0 $2 $3 $4 $5 $6 $7 $8 $9 X,Y pos of 4 corners*
0 Add a 4 corners polygon primitive as box body*
4,1,4,$2,$3,$4,$5,$6,$7,$8,$9,$2,$3,0*
0 Add four circle primitives for the rounded corners*
1,1,$1+$1,$2,$3*
1,1,$1+$1,$4,$5*
1,1,$1+$1,$6,$7*
1,1,$1+$1,$8,$9*
0 Add four rect primitives between the rounded corners*
20,1,$1+$1,$2,$3,$4,$5,0*
20,1,$1+$1,$4,$5,$6,$7,0*
20,1,$1+$1,$6,$7,$8,$9,0*
20,1,$1+$1,$8,$9,$2,$3,0*%
G04 Aperture macros list end*
%ADD10R,1.700000X1.700000*%
%ADD11O,1.700000X1.700000*%
%ADD12R,1.600000X1.600000*%
%ADD13C,1.600000*%
%ADD14R,1.750000X2.250000*%
%ADD15O,1.750000X2.250000*%
%ADD16C,1.270000*%
%ADD17C,2.400000*%
%ADD18RoundRect,0.250000X-1.550000X0.650000X-1.550000X-0.650000X1.550000X-0.650000X1.550000X0.650000X0*%
%ADD19O,3.600000X1.800000*%
%ADD20R,2.300000X2.000000*%
%ADD21C,2.300000*%
%ADD22RoundRect,0.237500X-0.237500X0.300000X-0.237500X-0.300000X0.237500X-0.300000X0.237500X0.300000X0*%
%ADD23RoundRect,0.250000X-0.400000X-0.625000X0.400000X-0.625000X0.400000X0.625000X-0.400000X0.625000X0*%
%ADD24RoundRect,0.237500X-0.300000X-0.237500X0.300000X-0.237500X0.300000X0.237500X-0.300000X0.237500X0*%
%ADD25RoundRect,0.250000X0.625000X-0.312500X0.625000X0.312500X-0.625000X0.312500X-0.625000X-0.312500X0*%
%ADD26RoundRect,0.237500X-0.250000X-0.237500X0.250000X-0.237500X0.250000X0.237500X-0.250000X0.237500X0*%
%ADD27RoundRect,0.237500X-0.237500X0.250000X-0.237500X-0.250000X0.237500X-0.250000X0.237500X0.250000X0*%
%ADD28RoundRect,0.218750X0.256250X-0.218750X0.256250X0.218750X-0.256250X0.218750X-0.256250X-0.218750X0*%
%ADD29RoundRect,0.237500X0.237500X-0.300000X0.237500X0.300000X-0.237500X0.300000X-0.237500X-0.300000X0*%
%ADD30RoundRect,0.150000X0.200000X-0.150000X0.200000X0.150000X-0.200000X0.150000X-0.200000X-0.150000X0*%
%ADD31RoundRect,0.237500X0.250000X0.237500X-0.250000X0.237500X-0.250000X-0.237500X0.250000X-0.237500X0*%
G04 APERTURE END LIST*
D10*
G04 #@! TO.C,J9*
X165190999Y-88945999D03*
D11*
X165190999Y-91485999D03*
X162650999Y-88945999D03*
X162650999Y-91485999D03*
X160110999Y-88945999D03*
X160110999Y-91485999D03*
X157570999Y-88945999D03*
X157570999Y-91485999D03*
X155030999Y-88945999D03*
X155030999Y-91485999D03*
X152490999Y-88945999D03*
X152490999Y-91485999D03*
X149950999Y-88945999D03*
X149950999Y-91485999D03*
X147410999Y-88945999D03*
X147410999Y-91485999D03*
X144870999Y-88945999D03*
X144870999Y-91485999D03*
X142330999Y-88945999D03*
X142330999Y-91485999D03*
G04 #@! TD*
D10*
G04 #@! TO.C,J3*
X187598799Y-85979199D03*
G04 #@! TD*
G04 #@! TO.C,J1*
X137794999Y-86652999D03*
D11*
X135254999Y-86652999D03*
G04 #@! TD*
D10*
G04 #@! TO.C,J4*
X186404999Y-93649999D03*
D11*
X188944999Y-93649999D03*
X186404999Y-96189999D03*
X188944999Y-96189999D03*
X186404999Y-98729999D03*
X188944999Y-98729999D03*
X186404999Y-101269999D03*
X188944999Y-101269999D03*
X186404999Y-103809999D03*
X188944999Y-103809999D03*
X186404999Y-106349999D03*
X188944999Y-106349999D03*
G04 #@! TD*
D12*
G04 #@! TO.C,C6*
X189427599Y-113614399D03*
D13*
X189427600Y-111114400D03*
G04 #@! TD*
D14*
G04 #@! TO.C,PS2*
X137789999Y-90208999D03*
D15*
X135249999Y-90208999D03*
X132709999Y-90208999D03*
X130169999Y-90208999D03*
G04 #@! TD*
D16*
G04 #@! TO.C,F1*
X117190000Y-112700000D03*
X122290000Y-114300000D03*
G04 #@! TD*
D17*
G04 #@! TO.C,C1*
X129916000Y-98584000D03*
X129916000Y-113584000D03*
G04 #@! TD*
D18*
G04 #@! TO.C,J2*
X112110000Y-87300000D03*
D19*
X112109999Y-92379999D03*
X112109999Y-97459999D03*
X112109999Y-102539999D03*
X112109999Y-107619999D03*
X112109999Y-112699999D03*
G04 #@! TD*
D20*
G04 #@! TO.C,PS1*
X135440999Y-103663999D03*
D21*
X135441000Y-108664000D03*
X164841000Y-98464000D03*
X164841000Y-113864000D03*
G04 #@! TD*
D22*
G04 #@! TO.C,C5*
X152496000Y-108509000D03*
X152496000Y-110234000D03*
G04 #@! TD*
D23*
G04 #@! TO.C,R5*
X123006000Y-97448000D03*
X126106000Y-97448000D03*
G04 #@! TD*
D24*
G04 #@! TO.C,C48*
X168397500Y-97079000D03*
X170122500Y-97079000D03*
G04 #@! TD*
G04 #@! TO.C,C47*
X168397500Y-103683000D03*
X170122500Y-103683000D03*
G04 #@! TD*
D23*
G04 #@! TO.C,R9*
X140532000Y-108534400D03*
X143632000Y-108534400D03*
G04 #@! TD*
G04 #@! TO.C,R7*
X140532000Y-98476000D03*
X143632000Y-98476000D03*
G04 #@! TD*
D25*
G04 #@! TO.C,R78*
X174164666Y-92888000D03*
X174164666Y-89963000D03*
G04 #@! TD*
D24*
G04 #@! TO.C,C45*
X168476166Y-94789000D03*
X170201166Y-94789000D03*
G04 #@! TD*
D25*
G04 #@! TO.C,R65*
X183103000Y-110648500D03*
X183103000Y-107723500D03*
G04 #@! TD*
D26*
G04 #@! TO.C,R76*
X177465000Y-110710000D03*
X179290000Y-110710000D03*
G04 #@! TD*
D23*
G04 #@! TO.C,R2*
X117900000Y-97460000D03*
X121000000Y-97460000D03*
G04 #@! TD*
D24*
G04 #@! TO.C,C39*
X177493166Y-94666000D03*
X179218166Y-94666000D03*
G04 #@! TD*
D23*
G04 #@! TO.C,R12*
X145612000Y-108534400D03*
X148712000Y-108534400D03*
G04 #@! TD*
D26*
G04 #@! TO.C,R74*
X177443166Y-101867000D03*
X179268166Y-101867000D03*
G04 #@! TD*
D27*
G04 #@! TO.C,R82*
X171878666Y-88138000D03*
X171878666Y-89963000D03*
G04 #@! TD*
D25*
G04 #@! TO.C,R79*
X174213000Y-101778000D03*
X174213000Y-98853000D03*
G04 #@! TD*
D27*
G04 #@! TO.C,R69*
X180895666Y-97017500D03*
X180895666Y-98842500D03*
G04 #@! TD*
G04 #@! TO.C,R14*
X154020000Y-103379000D03*
X154020000Y-105204000D03*
G04 #@! TD*
G04 #@! TO.C,R15*
X154020000Y-108459000D03*
X154020000Y-110284000D03*
G04 #@! TD*
D23*
G04 #@! TO.C,R8*
X140532000Y-103429000D03*
X143632000Y-103429000D03*
G04 #@! TD*
D26*
G04 #@! TO.C,R75*
X177443166Y-98819000D03*
X179268166Y-98819000D03*
G04 #@! TD*
D22*
G04 #@! TO.C,C3*
X152496000Y-98476000D03*
X152496000Y-100201000D03*
G04 #@! TD*
D24*
G04 #@! TO.C,C44*
X177515000Y-105884000D03*
X179240000Y-105884000D03*
G04 #@! TD*
D25*
G04 #@! TO.C,R63*
X183054666Y-92826500D03*
X183054666Y-89901500D03*
G04 #@! TD*
D24*
G04 #@! TO.C,C49*
X168424000Y-112573000D03*
X170149000Y-112573000D03*
G04 #@! TD*
D27*
G04 #@! TO.C,R83*
X171927000Y-101881500D03*
X171927000Y-103706500D03*
G04 #@! TD*
G04 #@! TO.C,R81*
X171878666Y-92987500D03*
X171878666Y-94812500D03*
G04 #@! TD*
D28*
G04 #@! TO.C,D2*
X191638000Y-112332500D03*
X191638000Y-110757500D03*
G04 #@! TD*
D27*
G04 #@! TO.C,R84*
X171927000Y-97055500D03*
X171927000Y-98880500D03*
G04 #@! TD*
D26*
G04 #@! TO.C,R92*
X168374000Y-107747000D03*
X170199000Y-107747000D03*
G04 #@! TD*
D23*
G04 #@! TO.C,R1*
X117926000Y-92380000D03*
X121026000Y-92380000D03*
G04 #@! TD*
D26*
G04 #@! TO.C,R90*
X168347500Y-98857000D03*
X170172500Y-98857000D03*
G04 #@! TD*
D27*
G04 #@! TO.C,R70*
X180917500Y-110686500D03*
X180917500Y-112511500D03*
G04 #@! TD*
D25*
G04 #@! TO.C,R80*
X174112500Y-110733500D03*
X174112500Y-107808500D03*
G04 #@! TD*
D29*
G04 #@! TO.C,C2*
X160396000Y-113931500D03*
X160396000Y-112206500D03*
G04 #@! TD*
D24*
G04 #@! TO.C,C43*
X177515000Y-112488000D03*
X179240000Y-112488000D03*
G04 #@! TD*
D25*
G04 #@! TO.C,R64*
X183054666Y-101744000D03*
X183054666Y-98819000D03*
G04 #@! TD*
D23*
G04 #@! TO.C,R4*
X123032000Y-92368000D03*
X126132000Y-92368000D03*
G04 #@! TD*
D30*
G04 #@! TO.C,D1*
X158618000Y-112369000D03*
X158618000Y-113769000D03*
G04 #@! TD*
D26*
G04 #@! TO.C,R77*
X177465000Y-107662000D03*
X179290000Y-107662000D03*
G04 #@! TD*
G04 #@! TO.C,R73*
X177443166Y-89840000D03*
X179268166Y-89840000D03*
G04 #@! TD*
D23*
G04 #@! TO.C,R6*
X123006000Y-107608000D03*
X126106000Y-107608000D03*
G04 #@! TD*
D26*
G04 #@! TO.C,R91*
X168350500Y-110795000D03*
X170175500Y-110795000D03*
G04 #@! TD*
D23*
G04 #@! TO.C,R3*
X117900000Y-107620000D03*
X121000000Y-107620000D03*
G04 #@! TD*
D24*
G04 #@! TO.C,C46*
X168476166Y-88185000D03*
X170201166Y-88185000D03*
G04 #@! TD*
G04 #@! TO.C,C40*
X177493166Y-88062000D03*
X179218166Y-88062000D03*
G04 #@! TD*
G04 #@! TO.C,C42*
X177519666Y-97041000D03*
X179244666Y-97041000D03*
G04 #@! TD*
D26*
G04 #@! TO.C,R87*
X168426166Y-93011000D03*
X170251166Y-93011000D03*
G04 #@! TD*
D31*
G04 #@! TO.C,R22*
X191661500Y-109132000D03*
X189836500Y-109132000D03*
G04 #@! TD*
D27*
G04 #@! TO.C,R66*
X180895666Y-92864500D03*
X180895666Y-94689500D03*
G04 #@! TD*
D26*
G04 #@! TO.C,R89*
X168347500Y-101905000D03*
X170172500Y-101905000D03*
G04 #@! TD*
D27*
G04 #@! TO.C,R67*
X180895666Y-88038500D03*
X180895666Y-89863500D03*
G04 #@! TD*
G04 #@! TO.C,R13*
X154020000Y-98426000D03*
X154020000Y-100251000D03*
G04 #@! TD*
G04 #@! TO.C,R85*
X171953500Y-110771500D03*
X171953500Y-112596500D03*
G04 #@! TD*
D24*
G04 #@! TO.C,C50*
X168397500Y-105969000D03*
X170122500Y-105969000D03*
G04 #@! TD*
D26*
G04 #@! TO.C,R88*
X168426166Y-89963000D03*
X170251166Y-89963000D03*
G04 #@! TD*
G04 #@! TO.C,R72*
X177443166Y-92888000D03*
X179268166Y-92888000D03*
G04 #@! TD*
D24*
G04 #@! TO.C,C41*
X177493166Y-103645000D03*
X179218166Y-103645000D03*
G04 #@! TD*
D27*
G04 #@! TO.C,R71*
X180917500Y-105860500D03*
X180917500Y-107685500D03*
G04 #@! TD*
G04 #@! TO.C,R86*
X171953500Y-105945500D03*
X171953500Y-107770500D03*
G04 #@! TD*
D23*
G04 #@! TO.C,R11*
X145612000Y-103429000D03*
X148712000Y-103429000D03*
G04 #@! TD*
D27*
G04 #@! TO.C,R68*
X180895666Y-101843500D03*
X180895666Y-103668500D03*
G04 #@! TD*
D22*
G04 #@! TO.C,C4*
X152496000Y-103429000D03*
X152496000Y-105154000D03*
G04 #@! TD*
D23*
G04 #@! TO.C,R10*
X145612000Y-98476000D03*
X148712000Y-98476000D03*
G04 #@! TD*
M02*
