G04 #@! TF.GenerationSoftware,KiCad,Pcbnew,7.0.0-da2b9df05c~163~ubuntu22.04.1*
G04 #@! TF.CreationDate,2023-02-25T14:43:30+01:00*
G04 #@! TF.ProjectId,metering_board,6d657465-7269-46e6-975f-626f6172642e,rev?*
G04 #@! TF.SameCoordinates,Original*
G04 #@! TF.FileFunction,Copper,L2,Bot*
G04 #@! TF.FilePolarity,Positive*
%FSLAX46Y46*%
G04 Gerber Fmt 4.6, Leading zero omitted, Abs format (unit mm)*
G04 Created by KiCad (PCBNEW 7.0.0-da2b9df05c~163~ubuntu22.04.1) date 2023-02-25 14:43:30*
%MOMM*%
%LPD*%
G01*
G04 APERTURE LIST*
G04 #@! TA.AperFunction,ComponentPad*
%ADD10R,1.700000X1.700000*%
G04 #@! TD*
G04 #@! TA.AperFunction,ComponentPad*
%ADD11O,1.700000X1.700000*%
G04 #@! TD*
G04 #@! TA.AperFunction,SMDPad,CuDef*
%ADD12R,1.000000X1.500000*%
G04 #@! TD*
G04 #@! TA.AperFunction,ViaPad*
%ADD13C,0.800000*%
G04 #@! TD*
G04 #@! TA.AperFunction,Conductor*
%ADD14C,0.250000*%
G04 #@! TD*
G04 #@! TA.AperFunction,Conductor*
%ADD15C,0.200000*%
G04 #@! TD*
G04 #@! TA.AperFunction,Conductor*
%ADD16C,1.000000*%
G04 #@! TD*
G04 APERTURE END LIST*
G04 #@! TO.C,PM0_1*
G36*
X172604000Y-107672000D02*
G01*
X172104000Y-107672000D01*
X172104000Y-107072000D01*
X172604000Y-107072000D01*
X172604000Y-107672000D01*
G37*
G04 #@! TO.C,PM1_2*
G36*
X157334000Y-106910000D02*
G01*
X156834000Y-106910000D01*
X156834000Y-106310000D01*
X157334000Y-106310000D01*
X157334000Y-106910000D01*
G37*
G04 #@! TO.C,PM1_1*
G36*
X172604000Y-111101000D02*
G01*
X172104000Y-111101000D01*
X172104000Y-110501000D01*
X172604000Y-110501000D01*
X172604000Y-111101000D01*
G37*
G04 #@! TO.C,PM0_2*
G36*
X157364000Y-103354000D02*
G01*
X156864000Y-103354000D01*
X156864000Y-102754000D01*
X157364000Y-102754000D01*
X157364000Y-103354000D01*
G37*
G04 #@! TD*
D10*
G04 #@! TO.P,J12,1,Pin_1*
G04 #@! TO.N,Board_0-+3.3VADC*
X172465999Y-85527999D03*
D11*
G04 #@! TO.P,J12,2,Pin_2*
G04 #@! TO.N,Board_0-GNDREF*
X169925999Y-85527999D03*
G04 #@! TD*
D10*
G04 #@! TO.P,J8,1,Pin_1*
G04 #@! TO.N,Board_0-+3V3*
X124967999Y-88574999D03*
D11*
G04 #@! TO.P,J8,2,Pin_2*
G04 #@! TO.N,Board_0-GND*
X124967999Y-91114999D03*
G04 #@! TO.P,J8,3,Pin_3*
G04 #@! TO.N,Board_0-Net-(J8-Pin_3)*
X124967999Y-93654999D03*
G04 #@! TO.P,J8,4,Pin_4*
G04 #@! TO.N,Board_0-Net-(J8-Pin_4)*
X124967999Y-96194999D03*
G04 #@! TO.P,J8,5,Pin_5*
G04 #@! TO.N,Board_0-Net-(J8-Pin_5)*
X124967999Y-98734999D03*
G04 #@! TO.P,J8,6,Pin_6*
G04 #@! TO.N,Board_0-Net-(J8-Pin_6)*
X124967999Y-101274999D03*
G04 #@! TO.P,J8,7,Pin_7*
G04 #@! TO.N,Board_0-Net-(J8-Pin_7)*
X124967999Y-103814999D03*
G04 #@! TO.P,J8,8,Pin_8*
G04 #@! TO.N,Board_0-Net-(J8-Pin_8)*
X124967999Y-106354999D03*
G04 #@! TO.P,J8,9,Pin_9*
G04 #@! TO.N,Board_0-GND*
X124967999Y-108894999D03*
G04 #@! TO.P,J8,10,Pin_10*
G04 #@! TO.N,Board_0-+3V3*
X124967999Y-111434999D03*
G04 #@! TD*
D10*
G04 #@! TO.P,J7,1,Pin_1*
G04 #@! TO.N,Board_0-/MeteringIC0/CF1*
X177418999Y-105100999D03*
D11*
G04 #@! TO.P,J7,2,Pin_2*
G04 #@! TO.N,Board_0-/MeteringIC0/CF2*
X177418999Y-107640999D03*
G04 #@! TO.P,J7,3,Pin_3*
G04 #@! TO.N,Board_0-GNDREF*
X177418999Y-110180999D03*
G04 #@! TD*
D10*
G04 #@! TO.P,J11,1,Pin_1*
G04 #@! TO.N,Board_0-/MeteringIC1/CF1*
X137159999Y-109022999D03*
D11*
G04 #@! TO.P,J11,2,Pin_2*
G04 #@! TO.N,Board_0-/MeteringIC1/CF2*
X137159999Y-111562999D03*
G04 #@! TO.P,J11,3,Pin_3*
G04 #@! TO.N,Board_0-GNDREF*
X137159999Y-114102999D03*
G04 #@! TD*
D12*
G04 #@! TO.P,PM0_1,1,A*
G04 #@! TO.N,Board_0-+3.3VADC*
X173003999Y-107371999D03*
G04 #@! TO.P,PM0_1,2,C*
G04 #@! TO.N,Board_0-/MeteringIC0/PM0*
X171703999Y-107371999D03*
G04 #@! TO.P,PM0_1,3,B*
G04 #@! TO.N,Board_0-GNDREF*
X170403999Y-107371999D03*
G04 #@! TD*
D10*
G04 #@! TO.P,J10,1,Pin_1*
G04 #@! TO.N,Board_0-/I1P_0*
X165195999Y-91490999D03*
D11*
G04 #@! TO.P,J10,2,Pin_2*
G04 #@! TO.N,Board_0-/I1N_0*
X165195999Y-88950999D03*
G04 #@! TO.P,J10,3,Pin_3*
G04 #@! TO.N,Board_0-/I2P_0*
X162655999Y-91490999D03*
G04 #@! TO.P,J10,4,Pin_4*
G04 #@! TO.N,Board_0-/I2N_0*
X162655999Y-88950999D03*
G04 #@! TO.P,J10,5,Pin_5*
G04 #@! TO.N,Board_0-/I3P_0*
X160115999Y-91490999D03*
G04 #@! TO.P,J10,6,Pin_6*
G04 #@! TO.N,Board_0-/I3N_0*
X160115999Y-88950999D03*
G04 #@! TO.P,J10,7,Pin_7*
G04 #@! TO.N,Board_0-/I1P_1*
X157575999Y-91490999D03*
G04 #@! TO.P,J10,8,Pin_8*
G04 #@! TO.N,Board_0-/I1N_1*
X157575999Y-88950999D03*
G04 #@! TO.P,J10,9,Pin_9*
G04 #@! TO.N,Board_0-/I2P_1*
X155035999Y-91490999D03*
G04 #@! TO.P,J10,10,Pin_10*
G04 #@! TO.N,Board_0-/I2N_1*
X155035999Y-88950999D03*
G04 #@! TO.P,J10,11,Pin_11*
G04 #@! TO.N,Board_0-/I3P_1*
X152495999Y-91490999D03*
G04 #@! TO.P,J10,12,Pin_12*
G04 #@! TO.N,Board_0-/I3N_1*
X152495999Y-88950999D03*
G04 #@! TO.P,J10,13,Pin_13*
G04 #@! TO.N,Board_0-/U1_S*
X149955999Y-91490999D03*
G04 #@! TO.P,J10,14,Pin_14*
G04 #@! TO.N,Board_0-+3.3VADC*
X149955999Y-88950999D03*
G04 #@! TO.P,J10,15,Pin_15*
G04 #@! TO.N,Board_0-/U2_S*
X147415999Y-91490999D03*
G04 #@! TO.P,J10,16,Pin_16*
G04 #@! TO.N,Board_0-+3V3*
X147415999Y-88950999D03*
G04 #@! TO.P,J10,17,Pin_17*
G04 #@! TO.N,Board_0-/U3_S*
X144875999Y-91490999D03*
G04 #@! TO.P,J10,18,Pin_18*
G04 #@! TO.N,Board_0-GNDREF*
X144875999Y-88950999D03*
G04 #@! TO.P,J10,19,Pin_19*
G04 #@! TO.N,Board_0-GND*
X142335999Y-91490999D03*
G04 #@! TO.P,J10,20,Pin_20*
X142335999Y-88950999D03*
G04 #@! TD*
D12*
G04 #@! TO.P,PM1_2,1,A*
G04 #@! TO.N,Board_0-+3.3VADC*
X157733999Y-106609999D03*
G04 #@! TO.P,PM1_2,2,C*
G04 #@! TO.N,Board_0-/MeteringIC1/PM1*
X156433999Y-106609999D03*
G04 #@! TO.P,PM1_2,3,B*
G04 #@! TO.N,Board_0-GNDREF*
X155133999Y-106609999D03*
G04 #@! TD*
G04 #@! TO.P,PM1_1,1,A*
G04 #@! TO.N,Board_0-+3.3VADC*
X173003999Y-110800999D03*
G04 #@! TO.P,PM1_1,2,C*
G04 #@! TO.N,Board_0-/MeteringIC0/PM1*
X171703999Y-110800999D03*
G04 #@! TO.P,PM1_1,3,B*
G04 #@! TO.N,Board_0-GNDREF*
X170403999Y-110800999D03*
G04 #@! TD*
G04 #@! TO.P,PM0_2,1,A*
G04 #@! TO.N,Board_0-+3.3VADC*
X157763999Y-103053999D03*
G04 #@! TO.P,PM0_2,2,C*
G04 #@! TO.N,Board_0-/MeteringIC1/PM0*
X156463999Y-103053999D03*
G04 #@! TO.P,PM0_2,3,B*
G04 #@! TO.N,Board_0-GNDREF*
X155163999Y-103053999D03*
G04 #@! TD*
D13*
G04 #@! TO.N,Board_0-+3.3VADC*
X164084000Y-102927000D03*
X157427631Y-102054500D03*
G04 #@! TO.N,Board_0-/I1N_1*
X141986000Y-104578000D03*
G04 #@! TO.N,Board_0-/I1P_1*
X143088144Y-104661856D03*
G04 #@! TO.N,Board_0-/I2N_1*
X143129000Y-106486500D03*
G04 #@! TO.N,Board_0-/I2P_1*
X142177997Y-105656003D03*
G04 #@! TO.N,Board_0-/I3N_1*
X142113000Y-107740000D03*
G04 #@! TO.N,Board_0-/I3P_1*
X141478000Y-106737000D03*
G04 #@! TO.N,Board_0-/MeteringConn/CS_0*
X172212000Y-101022000D03*
X142494000Y-99371000D03*
G04 #@! TO.N,Board_0-/MeteringConn/CS_1*
X142494000Y-100635000D03*
X151785136Y-104337364D03*
G04 #@! TO.N,Board_0-/MeteringConn/MISO*
X142494000Y-103181000D03*
X170852408Y-103702160D03*
X151130000Y-104992500D03*
X152181484Y-100138437D03*
G04 #@! TO.N,Board_0-/MeteringConn/MOSI*
X150495000Y-103689000D03*
X173228000Y-102927000D03*
X169926000Y-103689000D03*
X145161000Y-96825000D03*
G04 #@! TO.N,Board_0-/MeteringConn/RESET*
X138430000Y-101403000D03*
X158242000Y-94943000D03*
X150749000Y-90227000D03*
X168275000Y-94943000D03*
G04 #@! TO.N,Board_0-/MeteringConn/SCLK*
X145062760Y-98256760D03*
X153416000Y-99879000D03*
X171124457Y-101077457D03*
G04 #@! TO.N,Board_0-/MeteringIC0/PM0*
X171577500Y-107376820D03*
G04 #@! TO.N,Board_0-/MeteringIC0/PM1*
X171323000Y-109023000D03*
G04 #@! TO.N,Board_0-/MeteringIC1/CF1*
X153670000Y-110801000D03*
G04 #@! TO.N,Board_0-/MeteringIC1/CF2*
X155321000Y-110801000D03*
G04 #@! TO.N,Board_0-/MeteringIC1/PM0*
X156337500Y-103069900D03*
G04 #@! TO.N,Board_0-/MeteringIC1/PM1*
X155448000Y-104708500D03*
G04 #@! TO.N,Board_0-/U1_S*
X166116000Y-108354500D03*
X146685000Y-108388000D03*
G04 #@! TO.N,Board_0-/U2_S*
X147701000Y-109023000D03*
X167033000Y-109006500D03*
G04 #@! TO.N,Board_0-/U3_S*
X168021000Y-109531000D03*
X148717000Y-109658000D03*
G04 #@! TO.N,Board_0-GND*
X127635000Y-106356000D03*
X129667000Y-88957000D03*
X127635000Y-93656000D03*
X127762000Y-89592000D03*
G04 #@! TO.N,Board_0-GNDREF*
X172593000Y-94545000D03*
X159893000Y-114992000D03*
X160207000Y-93639000D03*
X138049000Y-104451000D03*
X166370000Y-107118000D03*
X137601000Y-102529500D03*
X153670000Y-112706000D03*
X176784000Y-97847000D03*
X153857000Y-85511000D03*
X147066000Y-107245000D03*
X160207000Y-97957000D03*
X171069000Y-88957000D03*
X163763000Y-85511000D03*
X177860000Y-114340000D03*
X146304000Y-85528000D03*
X145094000Y-110530000D03*
X137160000Y-93656000D03*
X147193000Y-98736000D03*
X150495000Y-97085000D03*
X165033000Y-93512000D03*
X144907000Y-114992000D03*
X166751000Y-98228000D03*
X168402000Y-114992000D03*
X174498000Y-104832000D03*
X149098000Y-114992000D03*
X156270000Y-94655000D03*
X177546000Y-96069000D03*
X169037000Y-108879000D03*
X152146000Y-105848000D03*
X140589000Y-114992000D03*
X147066000Y-105086000D03*
X156270000Y-85511000D03*
X153603000Y-103037000D03*
X149031000Y-85511000D03*
X161096000Y-85511000D03*
X175133000Y-110674000D03*
X158683000Y-85511000D03*
X157226000Y-97974000D03*
X166533000Y-103926000D03*
X153924000Y-97974000D03*
X153289000Y-114992000D03*
X163001000Y-110530000D03*
X163576000Y-97974000D03*
X148844000Y-97085000D03*
X172593000Y-114992000D03*
X139954000Y-93656000D03*
X172593000Y-97212000D03*
X166430000Y-85511000D03*
X155194000Y-103054000D03*
X164211000Y-114992000D03*
X160909000Y-106610000D03*
X147701000Y-97339000D03*
X151444000Y-85511000D03*
X149733000Y-107245000D03*
X158810000Y-110530000D03*
X139319000Y-109785000D03*
X173355000Y-112833000D03*
X169799000Y-96958000D03*
G04 #@! TD*
D14*
G04 #@! TO.N,Board_0-+3.3VADC*
X157734000Y-106610000D02*
X159495000Y-104849000D01*
X159559000Y-104849000D02*
X157764000Y-103054000D01*
X171481000Y-104849000D02*
X159559000Y-104849000D01*
X159495000Y-104849000D02*
X159559000Y-104849000D01*
X173004000Y-106372000D02*
X171481000Y-104849000D01*
X173004000Y-107372000D02*
X173004000Y-106372000D01*
X164084000Y-102927000D02*
X164084000Y-104849000D01*
X173004000Y-107372000D02*
X173004000Y-110801000D01*
D15*
G04 #@! TO.N,Board_0-/I1N_1*
X156499000Y-91843000D02*
X156499000Y-90028000D01*
X141540000Y-98563681D02*
X144713681Y-95390000D01*
X141986000Y-104578000D02*
X141540000Y-104132000D01*
X144713681Y-95390000D02*
X152952000Y-95390000D01*
X141540000Y-104132000D02*
X141540000Y-98563681D01*
X152952000Y-95390000D02*
X156499000Y-91843000D01*
X156499000Y-90028000D02*
X157576000Y-88951000D01*
G04 #@! TO.N,Board_0-/I1P_1*
X143088144Y-104661856D02*
X141867000Y-103440712D01*
X153350000Y-95717000D02*
X157576000Y-91491000D01*
X141867000Y-103440712D02*
X141867000Y-98699129D01*
X144849129Y-95717000D02*
X153350000Y-95717000D01*
X141867000Y-98699129D02*
X144849129Y-95717000D01*
G04 #@! TO.N,Board_0-/I2N_1*
X143129000Y-106486500D02*
X142121782Y-106486500D01*
X140886000Y-98292785D02*
X144442785Y-94736000D01*
X153959000Y-91937109D02*
X153959000Y-90028000D01*
X144442785Y-94736000D02*
X151160109Y-94736000D01*
X153959000Y-90028000D02*
X155036000Y-88951000D01*
X140886000Y-105250718D02*
X140886000Y-98292785D01*
X142121782Y-106486500D02*
X140886000Y-105250718D01*
X151160109Y-94736000D02*
X153959000Y-91937109D01*
G04 #@! TO.N,Board_0-/I2P_1*
X141213000Y-98428233D02*
X144578233Y-95063000D01*
X141213000Y-104691712D02*
X141213000Y-98428233D01*
X142177291Y-105656003D02*
X141213000Y-104691712D01*
X144578233Y-95063000D02*
X151464000Y-95063000D01*
X151464000Y-95063000D02*
X155036000Y-91491000D01*
X142177997Y-105656003D02*
X142177291Y-105656003D01*
G04 #@! TO.N,Board_0-/I3N_1*
X140232000Y-98021889D02*
X144171889Y-94082000D01*
X140232000Y-106377712D02*
X140232000Y-98021889D01*
X144171889Y-94082000D02*
X148961000Y-94082000D01*
X151419000Y-91624000D02*
X151419000Y-90028000D01*
X148961000Y-94082000D02*
X151419000Y-91624000D01*
X141594288Y-107740000D02*
X140232000Y-106377712D01*
X142113000Y-107740000D02*
X141594288Y-107740000D01*
X151419000Y-90028000D02*
X152496000Y-88951000D01*
G04 #@! TO.N,Board_0-/I3P_1*
X140559000Y-98157337D02*
X144307337Y-94409000D01*
X140559000Y-105818000D02*
X140559000Y-98157337D01*
X144307337Y-94409000D02*
X149578000Y-94409000D01*
X141478000Y-106737000D02*
X140559000Y-105818000D01*
X149578000Y-94409000D02*
X152496000Y-91491000D01*
D14*
G04 #@! TO.N,Board_0-/MeteringConn/CS_0*
X167259000Y-96069000D02*
X172212000Y-101022000D01*
X142494000Y-99371000D02*
X144509000Y-97356000D01*
X144994932Y-96069000D02*
X167259000Y-96069000D01*
X144509000Y-97356000D02*
X144509000Y-96554932D01*
X144509000Y-96554932D02*
X144994932Y-96069000D01*
G04 #@! TO.N,Board_0-/MeteringConn/CS_1*
X148226000Y-104341000D02*
X144520000Y-100635000D01*
X144520000Y-100635000D02*
X142494000Y-100635000D01*
X151785136Y-104337364D02*
X151781500Y-104341000D01*
X151781500Y-104341000D02*
X148226000Y-104341000D01*
G04 #@! TO.N,Board_0-/MeteringConn/MISO*
X151130000Y-104992500D02*
X150855500Y-104718000D01*
X170852408Y-103599408D02*
X170852408Y-103702160D01*
X146532842Y-103181000D02*
X142494000Y-103181000D01*
X152811047Y-100768000D02*
X168021000Y-100768000D01*
X150855500Y-104718000D02*
X148069842Y-104718000D01*
X152181484Y-100138437D02*
X152811047Y-100768000D01*
X148069842Y-104718000D02*
X146532842Y-103181000D01*
X168021000Y-100768000D02*
X170852408Y-103599408D01*
G04 #@! TO.N,Board_0-/MeteringConn/MOSI*
X173228000Y-102927000D02*
X171704000Y-104451000D01*
X144145000Y-99726842D02*
X145821158Y-101403000D01*
X150495000Y-102159000D02*
X149739000Y-101403000D01*
X150495000Y-103689000D02*
X150495000Y-102159000D01*
X144886000Y-97512158D02*
X144145000Y-98253158D01*
X145161000Y-96825000D02*
X144886000Y-97100000D01*
X149739000Y-101403000D02*
X167640000Y-101403000D01*
X171704000Y-104451000D02*
X170679180Y-104451000D01*
X169926000Y-103697820D02*
X169926000Y-103689000D01*
X145821158Y-101403000D02*
X149739000Y-101403000D01*
X170679180Y-104451000D02*
X169926000Y-103697820D01*
X144886000Y-97100000D02*
X144886000Y-97512158D01*
X144145000Y-98253158D02*
X144145000Y-99726842D01*
X167640000Y-101403000D02*
X169926000Y-103689000D01*
G04 #@! TO.N,Board_0-/MeteringConn/RESET*
X138430000Y-97255000D02*
X138430000Y-101403000D01*
X150749000Y-90227000D02*
X144315000Y-90227000D01*
X143570000Y-90972000D02*
X143570000Y-92115000D01*
X158242000Y-94943000D02*
X168275000Y-94943000D01*
X144315000Y-90227000D02*
X143570000Y-90972000D01*
X143570000Y-92115000D02*
X138430000Y-97255000D01*
G04 #@! TO.N,Board_0-/MeteringConn/SCLK*
X145235520Y-98084000D02*
X151621000Y-98084000D01*
X153416000Y-99879000D02*
X169926000Y-99879000D01*
X145062760Y-98256760D02*
X145235520Y-98084000D01*
X151621000Y-98084000D02*
X153416000Y-99879000D01*
X169926000Y-99879000D02*
X171124457Y-101077457D01*
G04 #@! TO.N,Board_0-/MeteringIC0/PM1*
X171704000Y-109404000D02*
X171704000Y-110801000D01*
X171323000Y-109023000D02*
X171704000Y-109404000D01*
G04 #@! TO.N,Board_0-/MeteringIC1/CF1*
X139700000Y-111563000D02*
X137160000Y-109023000D01*
X153670000Y-110801000D02*
X152908000Y-111563000D01*
X152908000Y-111563000D02*
X139700000Y-111563000D01*
G04 #@! TO.N,Board_0-/MeteringIC1/CF2*
X137541000Y-111944000D02*
X137160000Y-111563000D01*
X155321000Y-110801000D02*
X154178000Y-111944000D01*
X154178000Y-111944000D02*
X137541000Y-111944000D01*
G04 #@! TO.N,Board_0-/MeteringIC1/PM1*
X156434000Y-105694500D02*
X156434000Y-106610000D01*
X155448000Y-104708500D02*
X156434000Y-105694500D01*
G04 #@! TO.N,Board_0-/U1_S*
X142383068Y-108392000D02*
X141228000Y-108392000D01*
X146685000Y-108388000D02*
X142387068Y-108388000D01*
X146702000Y-108371000D02*
X146685000Y-108388000D01*
X141228000Y-108392000D02*
X139880000Y-107044000D01*
X139880000Y-97876085D02*
X144026085Y-93730000D01*
X147717000Y-93730000D02*
X149956000Y-91491000D01*
X139880000Y-107044000D02*
X139880000Y-97876085D01*
X142387068Y-108388000D02*
X142383068Y-108392000D01*
X144026085Y-93730000D02*
X147717000Y-93730000D01*
X166099500Y-108371000D02*
X146702000Y-108371000D01*
X166116000Y-108354500D02*
X166099500Y-108371000D01*
G04 #@! TO.N,Board_0-/U2_S*
X167033000Y-109006500D02*
X167032500Y-109006000D01*
X139503000Y-108064000D02*
X140479000Y-109040000D01*
X144573000Y-92593000D02*
X139503000Y-97663000D01*
X147684000Y-109040000D02*
X147701000Y-109023000D01*
X140479000Y-109040000D02*
X147684000Y-109040000D01*
X147718000Y-109006000D02*
X147701000Y-109023000D01*
X167032500Y-109006000D02*
X147718000Y-109006000D01*
X146314000Y-92593000D02*
X144573000Y-92593000D01*
X147416000Y-91491000D02*
X146314000Y-92593000D01*
X139503000Y-97663000D02*
X139503000Y-108064000D01*
G04 #@! TO.N,Board_0-/U3_S*
X139126000Y-97506842D02*
X139126000Y-108220158D01*
X144876000Y-91756842D02*
X139126000Y-97506842D01*
X148717000Y-109658000D02*
X167894000Y-109658000D01*
X167894000Y-109658000D02*
X168021000Y-109531000D01*
X139126000Y-108220158D02*
X140580842Y-109675000D01*
X148700000Y-109675000D02*
X148717000Y-109658000D01*
X144876000Y-91491000D02*
X144876000Y-91756842D01*
X140580842Y-109675000D02*
X148700000Y-109675000D01*
D16*
G04 #@! TO.N,Board_0-GND*
X129667000Y-88957000D02*
X129661000Y-88951000D01*
X126366000Y-91115000D02*
X124968000Y-91115000D01*
X142336000Y-88951000D02*
X129673000Y-88951000D01*
X129673000Y-88951000D02*
X129667000Y-88957000D01*
X142336000Y-88951000D02*
X142336000Y-91491000D01*
X127889000Y-89592000D02*
X127762000Y-89592000D01*
X127762000Y-89592000D02*
X127762000Y-89719000D01*
X129661000Y-88951000D02*
X128530000Y-88951000D01*
X127762000Y-89719000D02*
X126366000Y-91115000D01*
X128530000Y-88951000D02*
X127889000Y-89592000D01*
D14*
G04 #@! TO.N,Board_0-GNDREF*
X155164000Y-103054000D02*
X155194000Y-103054000D01*
D16*
X144876000Y-86956000D02*
X146304000Y-85528000D01*
D14*
X155134000Y-106610000D02*
X152908000Y-106610000D01*
D16*
X144876000Y-88951000D02*
X144876000Y-86956000D01*
D14*
X152908000Y-106610000D02*
X152146000Y-105848000D01*
G04 #@! TD*
G04 #@! TA.AperFunction,Conductor*
G04 #@! TO.N,Board_0-GND*
G36*
X130621000Y-83767113D02*
G01*
X130666387Y-83812500D01*
X130683000Y-83874500D01*
X130683000Y-116125500D01*
X130666387Y-116187500D01*
X130621000Y-116232887D01*
X130559000Y-116249500D01*
X121598341Y-116249500D01*
X121587638Y-116249037D01*
X121584272Y-116248745D01*
X121547396Y-116245550D01*
X121546078Y-116245429D01*
X121433493Y-116234461D01*
X121413735Y-116230903D01*
X121352065Y-116214551D01*
X121348199Y-116213459D01*
X121265433Y-116188617D01*
X121249166Y-116182461D01*
X121186889Y-116153751D01*
X121180888Y-116150785D01*
X121108627Y-116112616D01*
X121096040Y-116104979D01*
X121038277Y-116065056D01*
X121030775Y-116059441D01*
X120968367Y-116008938D01*
X120959382Y-116000914D01*
X120909030Y-115951348D01*
X120900866Y-115942490D01*
X120849384Y-115880878D01*
X120843672Y-115873493D01*
X120802831Y-115816344D01*
X120795004Y-115803889D01*
X120755662Y-115732163D01*
X120752660Y-115726320D01*
X120722948Y-115664449D01*
X120716547Y-115648308D01*
X120690391Y-115565892D01*
X120689268Y-115562141D01*
X120671918Y-115500630D01*
X120668060Y-115480985D01*
X120655421Y-115369551D01*
X120655338Y-115368778D01*
X120651146Y-115327877D01*
X120650500Y-115315238D01*
X120650500Y-111435000D01*
X123604844Y-111435000D01*
X123605268Y-111440117D01*
X123623011Y-111654248D01*
X123623012Y-111654256D01*
X123623436Y-111659368D01*
X123624693Y-111664335D01*
X123624695Y-111664342D01*
X123677445Y-111872645D01*
X123678704Y-111877616D01*
X123680764Y-111882312D01*
X123767080Y-112079096D01*
X123767083Y-112079101D01*
X123769140Y-112083791D01*
X123828505Y-112174656D01*
X123889474Y-112267977D01*
X123889477Y-112267981D01*
X123892278Y-112272268D01*
X123895752Y-112276041D01*
X123895753Y-112276043D01*
X124041288Y-112434135D01*
X124041291Y-112434138D01*
X124044760Y-112437906D01*
X124048801Y-112441051D01*
X124218376Y-112573039D01*
X124218381Y-112573042D01*
X124222424Y-112576189D01*
X124226931Y-112578628D01*
X124226934Y-112578630D01*
X124415919Y-112680903D01*
X124420426Y-112683342D01*
X124633365Y-112756444D01*
X124855431Y-112793500D01*
X125075436Y-112793500D01*
X125080569Y-112793500D01*
X125302635Y-112756444D01*
X125515574Y-112683342D01*
X125713576Y-112576189D01*
X125891240Y-112437906D01*
X126043722Y-112272268D01*
X126166860Y-112083791D01*
X126257296Y-111877616D01*
X126312564Y-111659368D01*
X126331156Y-111435000D01*
X126312564Y-111210632D01*
X126257296Y-110992384D01*
X126166860Y-110786209D01*
X126043722Y-110597732D01*
X125891240Y-110432094D01*
X125878597Y-110422253D01*
X125717623Y-110296960D01*
X125717615Y-110296955D01*
X125713576Y-110293811D01*
X125709071Y-110291373D01*
X125709065Y-110291369D01*
X125670305Y-110270394D01*
X125624665Y-110227844D01*
X125605526Y-110168454D01*
X125617734Y-110107263D01*
X125658198Y-110059764D01*
X125834643Y-109936215D01*
X125842909Y-109929278D01*
X126002278Y-109769909D01*
X126009215Y-109761643D01*
X126138498Y-109577008D01*
X126143886Y-109567676D01*
X126239143Y-109363397D01*
X126242831Y-109353263D01*
X126294943Y-109158780D01*
X126295311Y-109147551D01*
X126284369Y-109145000D01*
X123651631Y-109145000D01*
X123640688Y-109147551D01*
X123641056Y-109158780D01*
X123693168Y-109353263D01*
X123696856Y-109363397D01*
X123792113Y-109567676D01*
X123797501Y-109577008D01*
X123926784Y-109761643D01*
X123933721Y-109769909D01*
X124093090Y-109929278D01*
X124101356Y-109936215D01*
X124277801Y-110059764D01*
X124318264Y-110107263D01*
X124330473Y-110168454D01*
X124311334Y-110227844D01*
X124265695Y-110270393D01*
X124226939Y-110291366D01*
X124226924Y-110291375D01*
X124222424Y-110293811D01*
X124218389Y-110296951D01*
X124218376Y-110296960D01*
X124048801Y-110428948D01*
X124048795Y-110428952D01*
X124044760Y-110432094D01*
X124041297Y-110435855D01*
X124041288Y-110435864D01*
X123895753Y-110593956D01*
X123895747Y-110593963D01*
X123892278Y-110597732D01*
X123889481Y-110602012D01*
X123889474Y-110602022D01*
X123771942Y-110781920D01*
X123769140Y-110786209D01*
X123767085Y-110790892D01*
X123767080Y-110790903D01*
X123680764Y-110987687D01*
X123678704Y-110992384D01*
X123677446Y-110997349D01*
X123677445Y-110997354D01*
X123624695Y-111205657D01*
X123624693Y-111205666D01*
X123623436Y-111210632D01*
X123623012Y-111215741D01*
X123623011Y-111215751D01*
X123605268Y-111429883D01*
X123604844Y-111435000D01*
X120650500Y-111435000D01*
X120650500Y-106355000D01*
X123604844Y-106355000D01*
X123605268Y-106360117D01*
X123623011Y-106574248D01*
X123623012Y-106574256D01*
X123623436Y-106579368D01*
X123624693Y-106584335D01*
X123624695Y-106584342D01*
X123677445Y-106792645D01*
X123678704Y-106797616D01*
X123680764Y-106802312D01*
X123767080Y-106999096D01*
X123767083Y-106999101D01*
X123769140Y-107003791D01*
X123828505Y-107094656D01*
X123889474Y-107187977D01*
X123889477Y-107187981D01*
X123892278Y-107192268D01*
X123895752Y-107196041D01*
X123895753Y-107196043D01*
X124041288Y-107354135D01*
X124041291Y-107354138D01*
X124044760Y-107357906D01*
X124048801Y-107361051D01*
X124218376Y-107493039D01*
X124218381Y-107493042D01*
X124222424Y-107496189D01*
X124265691Y-107519604D01*
X124265695Y-107519606D01*
X124311335Y-107562155D01*
X124330475Y-107621545D01*
X124318267Y-107682737D01*
X124277803Y-107730236D01*
X124101352Y-107853788D01*
X124093092Y-107860719D01*
X123933719Y-108020092D01*
X123926784Y-108028357D01*
X123797508Y-108212982D01*
X123792110Y-108222332D01*
X123696856Y-108426602D01*
X123693168Y-108436736D01*
X123641056Y-108631219D01*
X123640688Y-108642448D01*
X123651631Y-108645000D01*
X126284369Y-108645000D01*
X126295311Y-108642448D01*
X126294943Y-108631219D01*
X126242831Y-108436736D01*
X126239143Y-108426602D01*
X126143889Y-108222332D01*
X126138491Y-108212982D01*
X126009215Y-108028357D01*
X126002280Y-108020092D01*
X125842909Y-107860721D01*
X125834635Y-107853778D01*
X125658198Y-107730234D01*
X125617734Y-107682735D01*
X125605526Y-107621543D01*
X125624666Y-107562153D01*
X125670304Y-107519606D01*
X125713576Y-107496189D01*
X125891240Y-107357906D01*
X126043722Y-107192268D01*
X126166860Y-107003791D01*
X126257296Y-106797616D01*
X126312564Y-106579368D01*
X126331156Y-106355000D01*
X126312564Y-106130632D01*
X126257296Y-105912384D01*
X126166860Y-105706209D01*
X126043722Y-105517732D01*
X125891240Y-105352094D01*
X125878597Y-105342253D01*
X125717623Y-105216960D01*
X125717615Y-105216955D01*
X125713576Y-105213811D01*
X125709066Y-105211370D01*
X125709061Y-105211367D01*
X125677070Y-105194055D01*
X125629564Y-105148474D01*
X125612086Y-105085000D01*
X125629564Y-105021526D01*
X125677070Y-104975945D01*
X125677109Y-104975923D01*
X125713576Y-104956189D01*
X125891240Y-104817906D01*
X126043722Y-104652268D01*
X126166860Y-104463791D01*
X126257296Y-104257616D01*
X126312564Y-104039368D01*
X126331156Y-103815000D01*
X126312564Y-103590632D01*
X126257296Y-103372384D01*
X126166860Y-103166209D01*
X126043722Y-102977732D01*
X125891240Y-102812094D01*
X125878597Y-102802253D01*
X125717623Y-102676960D01*
X125717615Y-102676955D01*
X125713576Y-102673811D01*
X125709064Y-102671369D01*
X125709061Y-102671367D01*
X125677070Y-102654055D01*
X125629564Y-102608474D01*
X125612086Y-102545000D01*
X125629564Y-102481526D01*
X125677070Y-102435945D01*
X125677109Y-102435923D01*
X125713576Y-102416189D01*
X125891240Y-102277906D01*
X126043722Y-102112268D01*
X126166860Y-101923791D01*
X126257296Y-101717616D01*
X126312564Y-101499368D01*
X126331156Y-101275000D01*
X126312564Y-101050632D01*
X126257296Y-100832384D01*
X126166860Y-100626209D01*
X126043722Y-100437732D01*
X125891240Y-100272094D01*
X125878597Y-100262253D01*
X125717623Y-100136960D01*
X125717615Y-100136955D01*
X125713576Y-100133811D01*
X125709064Y-100131369D01*
X125709061Y-100131367D01*
X125677070Y-100114055D01*
X125629564Y-100068474D01*
X125612086Y-100005000D01*
X125629564Y-99941526D01*
X125677070Y-99895945D01*
X125677109Y-99895923D01*
X125713576Y-99876189D01*
X125891240Y-99737906D01*
X126043722Y-99572268D01*
X126166860Y-99383791D01*
X126257296Y-99177616D01*
X126312564Y-98959368D01*
X126331156Y-98735000D01*
X126312564Y-98510632D01*
X126257296Y-98292384D01*
X126166860Y-98086209D01*
X126043722Y-97897732D01*
X125891240Y-97732094D01*
X125878597Y-97722253D01*
X125717623Y-97596960D01*
X125717615Y-97596955D01*
X125713576Y-97593811D01*
X125709064Y-97591369D01*
X125709061Y-97591367D01*
X125677070Y-97574055D01*
X125629564Y-97528474D01*
X125612086Y-97465000D01*
X125629564Y-97401526D01*
X125677070Y-97355945D01*
X125677109Y-97355923D01*
X125713576Y-97336189D01*
X125891240Y-97197906D01*
X126043722Y-97032268D01*
X126166860Y-96843791D01*
X126257296Y-96637616D01*
X126312564Y-96419368D01*
X126331156Y-96195000D01*
X126312564Y-95970632D01*
X126257296Y-95752384D01*
X126166860Y-95546209D01*
X126043722Y-95357732D01*
X125891240Y-95192094D01*
X125878597Y-95182253D01*
X125717623Y-95056960D01*
X125717615Y-95056955D01*
X125713576Y-95053811D01*
X125709064Y-95051369D01*
X125709061Y-95051367D01*
X125677070Y-95034055D01*
X125629564Y-94988474D01*
X125612086Y-94925000D01*
X125629564Y-94861526D01*
X125677070Y-94815945D01*
X125677109Y-94815923D01*
X125713576Y-94796189D01*
X125891240Y-94657906D01*
X126043722Y-94492268D01*
X126166860Y-94303791D01*
X126257296Y-94097616D01*
X126312564Y-93879368D01*
X126331156Y-93655000D01*
X126312564Y-93430632D01*
X126257296Y-93212384D01*
X126166860Y-93006209D01*
X126043722Y-92817732D01*
X125891240Y-92652094D01*
X125878597Y-92642253D01*
X125717623Y-92516960D01*
X125717615Y-92516955D01*
X125713576Y-92513811D01*
X125709071Y-92511373D01*
X125709065Y-92511369D01*
X125670305Y-92490394D01*
X125624665Y-92447844D01*
X125605526Y-92388454D01*
X125617734Y-92327263D01*
X125658198Y-92279764D01*
X125834643Y-92156215D01*
X125842909Y-92149278D01*
X126002278Y-91989909D01*
X126009215Y-91981643D01*
X126138498Y-91797008D01*
X126143886Y-91787676D01*
X126239143Y-91583397D01*
X126242831Y-91573263D01*
X126294943Y-91378780D01*
X126295311Y-91367551D01*
X126284369Y-91365000D01*
X123651631Y-91365000D01*
X123640688Y-91367551D01*
X123641056Y-91378780D01*
X123693168Y-91573263D01*
X123696856Y-91583397D01*
X123792113Y-91787676D01*
X123797501Y-91797008D01*
X123926784Y-91981643D01*
X123933721Y-91989909D01*
X124093090Y-92149278D01*
X124101356Y-92156215D01*
X124277801Y-92279764D01*
X124318264Y-92327263D01*
X124330473Y-92388454D01*
X124311334Y-92447844D01*
X124265695Y-92490393D01*
X124226939Y-92511366D01*
X124226924Y-92511375D01*
X124222424Y-92513811D01*
X124218389Y-92516951D01*
X124218376Y-92516960D01*
X124048801Y-92648948D01*
X124048795Y-92648952D01*
X124044760Y-92652094D01*
X124041297Y-92655855D01*
X124041288Y-92655864D01*
X123895753Y-92813956D01*
X123895747Y-92813963D01*
X123892278Y-92817732D01*
X123889481Y-92822012D01*
X123889474Y-92822022D01*
X123771942Y-93001920D01*
X123769140Y-93006209D01*
X123767085Y-93010892D01*
X123767080Y-93010903D01*
X123680764Y-93207687D01*
X123678704Y-93212384D01*
X123677446Y-93217349D01*
X123677445Y-93217354D01*
X123624695Y-93425657D01*
X123624693Y-93425666D01*
X123623436Y-93430632D01*
X123623012Y-93435741D01*
X123623011Y-93435751D01*
X123605268Y-93649883D01*
X123604844Y-93655000D01*
X123605268Y-93660117D01*
X123623011Y-93874248D01*
X123623012Y-93874256D01*
X123623436Y-93879368D01*
X123624693Y-93884335D01*
X123624695Y-93884342D01*
X123677445Y-94092645D01*
X123678704Y-94097616D01*
X123680764Y-94102312D01*
X123767080Y-94299096D01*
X123767083Y-94299101D01*
X123769140Y-94303791D01*
X123828505Y-94394656D01*
X123889474Y-94487977D01*
X123889477Y-94487981D01*
X123892278Y-94492268D01*
X123895752Y-94496041D01*
X123895753Y-94496043D01*
X124041288Y-94654135D01*
X124041291Y-94654138D01*
X124044760Y-94657906D01*
X124048801Y-94661051D01*
X124218376Y-94793039D01*
X124218381Y-94793042D01*
X124222424Y-94796189D01*
X124226931Y-94798628D01*
X124226934Y-94798630D01*
X124258930Y-94815945D01*
X124306436Y-94861526D01*
X124323913Y-94925000D01*
X124306436Y-94988474D01*
X124258930Y-95034055D01*
X124226934Y-95051369D01*
X124226922Y-95051376D01*
X124222424Y-95053811D01*
X124218389Y-95056951D01*
X124218376Y-95056960D01*
X124048801Y-95188948D01*
X124048795Y-95188952D01*
X124044760Y-95192094D01*
X124041297Y-95195855D01*
X124041288Y-95195864D01*
X123895753Y-95353956D01*
X123895747Y-95353963D01*
X123892278Y-95357732D01*
X123889481Y-95362012D01*
X123889474Y-95362022D01*
X123771942Y-95541920D01*
X123769140Y-95546209D01*
X123767085Y-95550892D01*
X123767080Y-95550903D01*
X123680764Y-95747687D01*
X123678704Y-95752384D01*
X123677446Y-95757349D01*
X123677445Y-95757354D01*
X123624695Y-95965657D01*
X123624693Y-95965666D01*
X123623436Y-95970632D01*
X123623012Y-95975741D01*
X123623011Y-95975751D01*
X123605268Y-96189883D01*
X123604844Y-96195000D01*
X123605268Y-96200117D01*
X123623011Y-96414248D01*
X123623012Y-96414256D01*
X123623436Y-96419368D01*
X123624693Y-96424335D01*
X123624695Y-96424342D01*
X123677445Y-96632645D01*
X123678704Y-96637616D01*
X123680764Y-96642312D01*
X123767080Y-96839096D01*
X123767083Y-96839101D01*
X123769140Y-96843791D01*
X123828505Y-96934656D01*
X123889474Y-97027977D01*
X123889477Y-97027981D01*
X123892278Y-97032268D01*
X123895752Y-97036041D01*
X123895753Y-97036043D01*
X124041288Y-97194135D01*
X124041291Y-97194138D01*
X124044760Y-97197906D01*
X124048801Y-97201051D01*
X124218376Y-97333039D01*
X124218381Y-97333042D01*
X124222424Y-97336189D01*
X124226931Y-97338628D01*
X124226934Y-97338630D01*
X124258930Y-97355945D01*
X124306436Y-97401526D01*
X124323913Y-97465000D01*
X124306436Y-97528474D01*
X124258930Y-97574055D01*
X124226934Y-97591369D01*
X124226922Y-97591376D01*
X124222424Y-97593811D01*
X124218389Y-97596951D01*
X124218376Y-97596960D01*
X124048801Y-97728948D01*
X124048795Y-97728952D01*
X124044760Y-97732094D01*
X124041297Y-97735855D01*
X124041288Y-97735864D01*
X123895753Y-97893956D01*
X123895747Y-97893963D01*
X123892278Y-97897732D01*
X123889481Y-97902012D01*
X123889474Y-97902022D01*
X123771942Y-98081920D01*
X123769140Y-98086209D01*
X123767085Y-98090892D01*
X123767080Y-98090903D01*
X123680764Y-98287687D01*
X123678704Y-98292384D01*
X123677446Y-98297349D01*
X123677445Y-98297354D01*
X123624695Y-98505657D01*
X123624693Y-98505666D01*
X123623436Y-98510632D01*
X123623012Y-98515741D01*
X123623011Y-98515751D01*
X123605268Y-98729883D01*
X123604844Y-98735000D01*
X123605268Y-98740117D01*
X123623011Y-98954248D01*
X123623012Y-98954256D01*
X123623436Y-98959368D01*
X123624693Y-98964335D01*
X123624695Y-98964342D01*
X123677445Y-99172645D01*
X123678704Y-99177616D01*
X123680764Y-99182312D01*
X123767080Y-99379096D01*
X123767083Y-99379101D01*
X123769140Y-99383791D01*
X123828505Y-99474656D01*
X123889474Y-99567977D01*
X123889477Y-99567981D01*
X123892278Y-99572268D01*
X123895752Y-99576041D01*
X123895753Y-99576043D01*
X124041288Y-99734135D01*
X124041291Y-99734138D01*
X124044760Y-99737906D01*
X124048801Y-99741051D01*
X124218376Y-99873039D01*
X124218381Y-99873042D01*
X124222424Y-99876189D01*
X124226931Y-99878628D01*
X124226934Y-99878630D01*
X124258930Y-99895945D01*
X124306436Y-99941526D01*
X124323913Y-100005000D01*
X124306436Y-100068474D01*
X124258930Y-100114055D01*
X124226934Y-100131369D01*
X124226922Y-100131376D01*
X124222424Y-100133811D01*
X124218389Y-100136951D01*
X124218376Y-100136960D01*
X124048801Y-100268948D01*
X124048795Y-100268952D01*
X124044760Y-100272094D01*
X124041297Y-100275855D01*
X124041288Y-100275864D01*
X123895753Y-100433956D01*
X123895747Y-100433963D01*
X123892278Y-100437732D01*
X123889481Y-100442012D01*
X123889474Y-100442022D01*
X123771942Y-100621920D01*
X123769140Y-100626209D01*
X123767085Y-100630892D01*
X123767080Y-100630903D01*
X123680764Y-100827687D01*
X123678704Y-100832384D01*
X123677446Y-100837349D01*
X123677445Y-100837354D01*
X123624695Y-101045657D01*
X123624693Y-101045666D01*
X123623436Y-101050632D01*
X123623012Y-101055741D01*
X123623011Y-101055751D01*
X123605268Y-101269883D01*
X123604844Y-101275000D01*
X123605268Y-101280117D01*
X123623011Y-101494248D01*
X123623012Y-101494256D01*
X123623436Y-101499368D01*
X123624693Y-101504335D01*
X123624695Y-101504342D01*
X123677445Y-101712645D01*
X123678704Y-101717616D01*
X123680764Y-101722312D01*
X123767080Y-101919096D01*
X123767083Y-101919101D01*
X123769140Y-101923791D01*
X123828505Y-102014656D01*
X123889474Y-102107977D01*
X123889477Y-102107981D01*
X123892278Y-102112268D01*
X123895752Y-102116041D01*
X123895753Y-102116043D01*
X124041288Y-102274135D01*
X124041291Y-102274138D01*
X124044760Y-102277906D01*
X124048801Y-102281051D01*
X124218376Y-102413039D01*
X124218381Y-102413042D01*
X124222424Y-102416189D01*
X124226931Y-102418628D01*
X124226934Y-102418630D01*
X124258930Y-102435945D01*
X124306436Y-102481526D01*
X124323913Y-102545000D01*
X124306436Y-102608474D01*
X124258930Y-102654055D01*
X124226934Y-102671369D01*
X124226922Y-102671376D01*
X124222424Y-102673811D01*
X124218389Y-102676951D01*
X124218376Y-102676960D01*
X124048801Y-102808948D01*
X124048795Y-102808952D01*
X124044760Y-102812094D01*
X124041297Y-102815855D01*
X124041288Y-102815864D01*
X123895753Y-102973956D01*
X123895747Y-102973963D01*
X123892278Y-102977732D01*
X123889481Y-102982012D01*
X123889474Y-102982022D01*
X123771942Y-103161920D01*
X123769140Y-103166209D01*
X123767085Y-103170892D01*
X123767080Y-103170903D01*
X123680764Y-103367687D01*
X123678704Y-103372384D01*
X123677446Y-103377349D01*
X123677445Y-103377354D01*
X123624695Y-103585657D01*
X123624693Y-103585666D01*
X123623436Y-103590632D01*
X123623012Y-103595741D01*
X123623011Y-103595751D01*
X123605268Y-103809883D01*
X123604844Y-103815000D01*
X123605268Y-103820117D01*
X123623011Y-104034248D01*
X123623012Y-104034256D01*
X123623436Y-104039368D01*
X123624693Y-104044335D01*
X123624695Y-104044342D01*
X123677445Y-104252645D01*
X123678704Y-104257616D01*
X123680764Y-104262312D01*
X123767080Y-104459096D01*
X123767083Y-104459101D01*
X123769140Y-104463791D01*
X123828505Y-104554656D01*
X123889474Y-104647977D01*
X123889477Y-104647981D01*
X123892278Y-104652268D01*
X123895752Y-104656041D01*
X123895753Y-104656043D01*
X124041288Y-104814135D01*
X124041291Y-104814138D01*
X124044760Y-104817906D01*
X124048801Y-104821051D01*
X124218376Y-104953039D01*
X124218381Y-104953042D01*
X124222424Y-104956189D01*
X124258930Y-104975945D01*
X124306434Y-105021523D01*
X124323913Y-105084996D01*
X124306437Y-105148471D01*
X124258933Y-105194053D01*
X124226930Y-105211372D01*
X124226925Y-105211374D01*
X124222424Y-105213811D01*
X124218389Y-105216951D01*
X124218376Y-105216960D01*
X124048801Y-105348948D01*
X124048795Y-105348952D01*
X124044760Y-105352094D01*
X124041297Y-105355855D01*
X124041288Y-105355864D01*
X123895753Y-105513956D01*
X123895747Y-105513963D01*
X123892278Y-105517732D01*
X123889481Y-105522012D01*
X123889474Y-105522022D01*
X123771942Y-105701920D01*
X123769140Y-105706209D01*
X123767085Y-105710892D01*
X123767080Y-105710903D01*
X123680764Y-105907687D01*
X123678704Y-105912384D01*
X123677446Y-105917349D01*
X123677445Y-105917354D01*
X123624695Y-106125657D01*
X123624693Y-106125666D01*
X123623436Y-106130632D01*
X123623012Y-106135741D01*
X123623011Y-106135751D01*
X123605268Y-106349883D01*
X123604844Y-106355000D01*
X120650500Y-106355000D01*
X120650500Y-89473638D01*
X123609500Y-89473638D01*
X123616011Y-89534201D01*
X123618717Y-89541458D01*
X123618719Y-89541463D01*
X123664011Y-89662894D01*
X123667111Y-89671204D01*
X123754739Y-89788261D01*
X123871796Y-89875889D01*
X124001380Y-89924221D01*
X124051759Y-89959200D01*
X124079212Y-90014045D01*
X124077023Y-90075337D01*
X124045728Y-90128084D01*
X123933714Y-90240098D01*
X123926784Y-90248357D01*
X123797508Y-90432982D01*
X123792110Y-90442332D01*
X123696856Y-90646602D01*
X123693168Y-90656736D01*
X123641056Y-90851219D01*
X123640688Y-90862448D01*
X123651631Y-90865000D01*
X126284369Y-90865000D01*
X126295311Y-90862448D01*
X126294943Y-90851219D01*
X126242831Y-90656736D01*
X126239143Y-90646602D01*
X126143889Y-90442332D01*
X126138491Y-90432982D01*
X126009215Y-90248357D01*
X126002280Y-90240092D01*
X125890272Y-90128084D01*
X125858976Y-90075338D01*
X125856787Y-90014045D01*
X125884240Y-89959200D01*
X125934617Y-89924222D01*
X126064204Y-89875889D01*
X126181261Y-89788261D01*
X126268889Y-89671204D01*
X126319989Y-89534201D01*
X126326500Y-89473638D01*
X126326500Y-87676362D01*
X126319989Y-87615799D01*
X126268889Y-87478796D01*
X126181261Y-87361739D01*
X126064204Y-87274111D01*
X126055896Y-87271012D01*
X126055894Y-87271011D01*
X125934463Y-87225719D01*
X125934458Y-87225717D01*
X125927201Y-87223011D01*
X125919497Y-87222182D01*
X125919494Y-87222182D01*
X125869924Y-87216853D01*
X125869918Y-87216852D01*
X125866638Y-87216500D01*
X124069362Y-87216500D01*
X124066082Y-87216852D01*
X124066075Y-87216853D01*
X124016505Y-87222182D01*
X124016500Y-87222182D01*
X124008799Y-87223011D01*
X124001543Y-87225717D01*
X124001536Y-87225719D01*
X123880105Y-87271011D01*
X123880099Y-87271013D01*
X123871796Y-87274111D01*
X123864698Y-87279423D01*
X123864695Y-87279426D01*
X123761835Y-87356426D01*
X123761831Y-87356429D01*
X123754739Y-87361739D01*
X123749429Y-87368831D01*
X123749426Y-87368835D01*
X123672426Y-87471695D01*
X123672423Y-87471698D01*
X123667111Y-87478796D01*
X123664013Y-87487099D01*
X123664011Y-87487105D01*
X123618719Y-87608536D01*
X123618717Y-87608543D01*
X123616011Y-87615799D01*
X123615182Y-87623500D01*
X123615182Y-87623505D01*
X123609853Y-87673075D01*
X123609500Y-87676362D01*
X123609500Y-89473638D01*
X120650500Y-89473638D01*
X120650500Y-84698336D01*
X120650961Y-84687658D01*
X120654489Y-84646928D01*
X120654540Y-84646373D01*
X120665540Y-84533475D01*
X120669091Y-84513756D01*
X120685480Y-84451947D01*
X120686510Y-84448300D01*
X120711387Y-84365415D01*
X120717530Y-84349182D01*
X120746269Y-84286843D01*
X120749190Y-84280933D01*
X120787396Y-84208602D01*
X120795006Y-84196061D01*
X120834957Y-84138256D01*
X120840534Y-84130804D01*
X120891078Y-84068346D01*
X120899068Y-84059399D01*
X120948674Y-84009007D01*
X120957482Y-84000889D01*
X121019145Y-83949363D01*
X121026479Y-83943691D01*
X121083669Y-83902821D01*
X121096094Y-83895012D01*
X121167866Y-83855646D01*
X121173648Y-83852674D01*
X121235559Y-83822944D01*
X121251681Y-83816551D01*
X121334129Y-83790384D01*
X121337835Y-83789274D01*
X121399369Y-83771918D01*
X121419014Y-83768060D01*
X121530482Y-83755417D01*
X121531175Y-83755342D01*
X121567341Y-83751635D01*
X121572124Y-83751146D01*
X121584762Y-83750500D01*
X130559000Y-83750500D01*
X130621000Y-83767113D01*
G37*
G04 #@! TD.AperFunction*
G04 #@! TD*
G04 #@! TA.AperFunction,Conductor*
G04 #@! TO.N,Board_0-GNDREF*
G36*
X178412341Y-83750961D02*
G01*
X178453026Y-83754485D01*
X178453656Y-83754543D01*
X178566520Y-83765539D01*
X178586247Y-83769092D01*
X178648020Y-83785471D01*
X178651731Y-83786519D01*
X178734574Y-83811384D01*
X178750826Y-83817535D01*
X178813126Y-83846255D01*
X178819095Y-83849205D01*
X178891382Y-83887388D01*
X178903953Y-83895016D01*
X178931262Y-83913890D01*
X178961721Y-83934942D01*
X178969223Y-83940557D01*
X179031631Y-83991060D01*
X179040616Y-83999084D01*
X179090968Y-84048650D01*
X179099132Y-84057508D01*
X179150605Y-84119108D01*
X179156339Y-84126522D01*
X179197166Y-84183653D01*
X179204998Y-84196115D01*
X179207708Y-84201056D01*
X179244322Y-84267808D01*
X179247346Y-84273693D01*
X179277048Y-84335545D01*
X179283455Y-84351702D01*
X179309592Y-84434059D01*
X179310744Y-84437903D01*
X179319343Y-84468387D01*
X179324000Y-84502052D01*
X179324000Y-115496136D01*
X179319856Y-115527924D01*
X179314541Y-115547964D01*
X179313451Y-115551822D01*
X179288617Y-115634564D01*
X179282461Y-115650832D01*
X179253751Y-115713109D01*
X179250785Y-115719110D01*
X179212616Y-115791371D01*
X179204979Y-115803958D01*
X179165056Y-115861721D01*
X179159441Y-115869223D01*
X179108938Y-115931631D01*
X179100914Y-115940616D01*
X179051348Y-115990968D01*
X179042490Y-115999132D01*
X178980890Y-116050605D01*
X178973476Y-116056339D01*
X178916345Y-116097166D01*
X178903883Y-116104998D01*
X178832219Y-116144307D01*
X178826262Y-116147368D01*
X178764463Y-116177044D01*
X178748296Y-116183455D01*
X178665947Y-116209590D01*
X178662100Y-116210742D01*
X178600651Y-116228075D01*
X178580962Y-116231942D01*
X178469850Y-116244544D01*
X178468521Y-116244688D01*
X178445201Y-116247078D01*
X178427875Y-116248854D01*
X178415235Y-116249500D01*
X135506000Y-116249500D01*
X135444000Y-116232887D01*
X135398613Y-116187500D01*
X135382000Y-116125500D01*
X135382000Y-114355551D01*
X135832688Y-114355551D01*
X135833056Y-114366780D01*
X135885168Y-114561263D01*
X135888856Y-114571397D01*
X135984113Y-114775676D01*
X135989501Y-114785008D01*
X136118784Y-114969643D01*
X136125721Y-114977909D01*
X136285090Y-115137278D01*
X136293356Y-115144215D01*
X136477991Y-115273498D01*
X136487323Y-115278886D01*
X136691602Y-115374143D01*
X136701736Y-115377831D01*
X136896219Y-115429943D01*
X136907448Y-115430311D01*
X136910000Y-115419369D01*
X137410000Y-115419369D01*
X137412551Y-115430311D01*
X137423780Y-115429943D01*
X137618263Y-115377831D01*
X137628397Y-115374143D01*
X137832676Y-115278886D01*
X137842008Y-115273498D01*
X138026643Y-115144215D01*
X138034909Y-115137278D01*
X138194278Y-114977909D01*
X138201215Y-114969643D01*
X138330498Y-114785008D01*
X138335886Y-114775676D01*
X138431143Y-114571397D01*
X138434831Y-114561263D01*
X138486943Y-114366780D01*
X138487311Y-114355551D01*
X138476369Y-114353000D01*
X137426326Y-114353000D01*
X137413450Y-114356450D01*
X137410000Y-114369326D01*
X137410000Y-115419369D01*
X136910000Y-115419369D01*
X136910000Y-114369326D01*
X136906549Y-114356450D01*
X136893674Y-114353000D01*
X135843631Y-114353000D01*
X135832688Y-114355551D01*
X135382000Y-114355551D01*
X135382000Y-92510000D01*
X135398613Y-92448000D01*
X135444000Y-92402613D01*
X135506000Y-92386000D01*
X140465000Y-92386000D01*
X140527000Y-92402613D01*
X140572387Y-92448000D01*
X140589000Y-92510000D01*
X140589000Y-93275000D01*
X140605326Y-93275000D01*
X141214733Y-93275000D01*
X141271028Y-93288515D01*
X141315051Y-93326115D01*
X141337206Y-93379602D01*
X141332664Y-93437318D01*
X141302414Y-93486681D01*
X138037793Y-96751300D01*
X138029444Y-96758898D01*
X138022982Y-96763000D01*
X138017641Y-96768686D01*
X138017639Y-96768689D01*
X137976339Y-96812668D01*
X137973634Y-96815460D01*
X137953865Y-96835230D01*
X137951481Y-96838302D01*
X137951478Y-96838306D01*
X137951322Y-96838508D01*
X137943752Y-96847370D01*
X137913414Y-96879679D01*
X137909659Y-96886507D01*
X137909658Y-96886510D01*
X137903579Y-96897567D01*
X137892903Y-96913819D01*
X137885168Y-96923791D01*
X137885160Y-96923802D01*
X137880386Y-96929959D01*
X137877291Y-96937110D01*
X137877288Y-96937116D01*
X137862786Y-96970628D01*
X137857648Y-96981115D01*
X137840065Y-97013098D01*
X137840061Y-97013106D01*
X137836305Y-97019940D01*
X137834366Y-97027491D01*
X137834363Y-97027499D01*
X137831225Y-97039722D01*
X137824926Y-97058119D01*
X137816819Y-97076855D01*
X137815599Y-97084553D01*
X137815598Y-97084559D01*
X137809888Y-97120611D01*
X137807520Y-97132045D01*
X137798438Y-97167417D01*
X137798436Y-97167426D01*
X137796500Y-97174970D01*
X137796500Y-97182766D01*
X137796500Y-97195385D01*
X137794972Y-97214783D01*
X137791780Y-97234943D01*
X137792514Y-97242708D01*
X137792514Y-97242711D01*
X137795950Y-97279058D01*
X137796500Y-97290727D01*
X137796500Y-100701243D01*
X137788264Y-100745681D01*
X137764650Y-100784214D01*
X137690960Y-100866056D01*
X137687714Y-100871676D01*
X137687711Y-100871682D01*
X137598721Y-101025817D01*
X137598718Y-101025822D01*
X137595473Y-101031444D01*
X137593467Y-101037616D01*
X137593465Y-101037622D01*
X137538465Y-101206892D01*
X137538463Y-101206901D01*
X137536458Y-101213072D01*
X137535780Y-101219522D01*
X137535778Y-101219532D01*
X137525864Y-101313866D01*
X137516496Y-101403000D01*
X137517175Y-101409460D01*
X137535778Y-101586467D01*
X137535779Y-101586475D01*
X137536458Y-101592928D01*
X137538463Y-101599100D01*
X137538465Y-101599107D01*
X137590789Y-101760140D01*
X137595473Y-101774556D01*
X137598720Y-101780180D01*
X137598721Y-101780182D01*
X137661056Y-101888150D01*
X137690960Y-101939944D01*
X137818747Y-102081866D01*
X137823997Y-102085680D01*
X137824000Y-102085683D01*
X137889955Y-102133602D01*
X137973248Y-102194118D01*
X137979181Y-102196759D01*
X137979182Y-102196760D01*
X138120058Y-102259482D01*
X138147712Y-102271794D01*
X138154070Y-102273145D01*
X138154072Y-102273146D01*
X138157389Y-102273851D01*
X138334513Y-102311500D01*
X138368500Y-102311500D01*
X138430500Y-102328113D01*
X138475887Y-102373500D01*
X138492500Y-102435500D01*
X138492500Y-107651279D01*
X138473995Y-107716446D01*
X138424005Y-107762163D01*
X138357448Y-107774785D01*
X138294190Y-107750546D01*
X138263308Y-107727428D01*
X138263303Y-107727425D01*
X138256204Y-107722111D01*
X138247896Y-107719012D01*
X138247894Y-107719011D01*
X138126463Y-107673719D01*
X138126458Y-107673717D01*
X138119201Y-107671011D01*
X138111497Y-107670182D01*
X138111494Y-107670182D01*
X138061924Y-107664853D01*
X138061918Y-107664852D01*
X138058638Y-107664500D01*
X136261362Y-107664500D01*
X136258082Y-107664852D01*
X136258075Y-107664853D01*
X136208505Y-107670182D01*
X136208500Y-107670182D01*
X136200799Y-107671011D01*
X136193543Y-107673717D01*
X136193536Y-107673719D01*
X136072105Y-107719011D01*
X136072099Y-107719013D01*
X136063796Y-107722111D01*
X136056698Y-107727423D01*
X136056695Y-107727426D01*
X135953835Y-107804426D01*
X135953831Y-107804429D01*
X135946739Y-107809739D01*
X135941429Y-107816831D01*
X135941426Y-107816835D01*
X135864426Y-107919695D01*
X135864423Y-107919698D01*
X135859111Y-107926796D01*
X135856013Y-107935099D01*
X135856011Y-107935105D01*
X135810719Y-108056536D01*
X135810717Y-108056543D01*
X135808011Y-108063799D01*
X135807182Y-108071500D01*
X135807182Y-108071505D01*
X135801853Y-108121075D01*
X135801500Y-108124362D01*
X135801500Y-109921638D01*
X135801852Y-109924918D01*
X135801853Y-109924924D01*
X135803082Y-109936358D01*
X135808011Y-109982201D01*
X135810717Y-109989458D01*
X135810719Y-109989463D01*
X135841792Y-110072771D01*
X135859111Y-110119204D01*
X135864425Y-110126303D01*
X135864426Y-110126304D01*
X135934436Y-110219827D01*
X135946739Y-110236261D01*
X136063796Y-110323889D01*
X136181595Y-110367826D01*
X136231130Y-110401841D01*
X136258857Y-110455152D01*
X136258264Y-110515238D01*
X136229490Y-110567991D01*
X136087753Y-110721956D01*
X136087747Y-110721963D01*
X136084278Y-110725732D01*
X136081481Y-110730012D01*
X136081474Y-110730022D01*
X136000688Y-110853676D01*
X135961140Y-110914209D01*
X135959085Y-110918892D01*
X135959080Y-110918903D01*
X135901138Y-111051000D01*
X135870704Y-111120384D01*
X135869446Y-111125349D01*
X135869445Y-111125354D01*
X135816695Y-111333657D01*
X135816693Y-111333666D01*
X135815436Y-111338632D01*
X135815012Y-111343741D01*
X135815011Y-111343751D01*
X135802282Y-111497369D01*
X135796844Y-111563000D01*
X135797268Y-111568117D01*
X135815011Y-111782248D01*
X135815012Y-111782256D01*
X135815436Y-111787368D01*
X135816693Y-111792335D01*
X135816695Y-111792342D01*
X135869445Y-112000645D01*
X135870704Y-112005616D01*
X135872764Y-112010312D01*
X135959080Y-112207096D01*
X135959083Y-112207101D01*
X135961140Y-112211791D01*
X136020505Y-112302656D01*
X136081474Y-112395977D01*
X136081477Y-112395981D01*
X136084278Y-112400268D01*
X136087752Y-112404041D01*
X136087753Y-112404043D01*
X136233288Y-112562135D01*
X136233291Y-112562138D01*
X136236760Y-112565906D01*
X136254169Y-112579456D01*
X136410376Y-112701039D01*
X136410381Y-112701042D01*
X136414424Y-112704189D01*
X136457691Y-112727604D01*
X136457695Y-112727606D01*
X136503335Y-112770155D01*
X136522475Y-112829545D01*
X136510267Y-112890737D01*
X136469803Y-112938236D01*
X136293352Y-113061788D01*
X136285092Y-113068719D01*
X136125719Y-113228092D01*
X136118784Y-113236357D01*
X135989508Y-113420982D01*
X135984110Y-113430332D01*
X135888856Y-113634602D01*
X135885168Y-113644736D01*
X135833056Y-113839219D01*
X135832688Y-113850448D01*
X135843631Y-113853000D01*
X138476369Y-113853000D01*
X138487311Y-113850448D01*
X138486943Y-113839219D01*
X138434831Y-113644736D01*
X138431143Y-113634602D01*
X138335889Y-113430332D01*
X138330491Y-113420982D01*
X138201215Y-113236357D01*
X138194280Y-113228092D01*
X138034909Y-113068721D01*
X138026635Y-113061778D01*
X137850198Y-112938234D01*
X137809734Y-112890735D01*
X137797526Y-112829543D01*
X137816666Y-112770153D01*
X137862304Y-112727606D01*
X137905576Y-112704189D01*
X138034750Y-112603647D01*
X138070651Y-112584219D01*
X138110914Y-112577500D01*
X154099154Y-112577500D01*
X154110437Y-112578031D01*
X154117909Y-112579702D01*
X154186017Y-112577560D01*
X154189913Y-112577500D01*
X154213958Y-112577500D01*
X154217856Y-112577500D01*
X154221724Y-112577011D01*
X154221947Y-112576983D01*
X154233608Y-112576064D01*
X154277889Y-112574673D01*
X154297490Y-112568977D01*
X154316541Y-112565032D01*
X154336797Y-112562474D01*
X154368022Y-112550110D01*
X154377993Y-112546163D01*
X154389043Y-112542379D01*
X154431593Y-112530018D01*
X154449165Y-112519625D01*
X154466632Y-112511068D01*
X154485617Y-112503552D01*
X154521475Y-112477498D01*
X154531223Y-112471096D01*
X154569362Y-112448542D01*
X154583793Y-112434110D01*
X154598588Y-112421472D01*
X154615107Y-112409472D01*
X154643360Y-112375318D01*
X154651203Y-112366699D01*
X155272085Y-111745819D01*
X155312314Y-111718939D01*
X155359767Y-111709500D01*
X155409984Y-111709500D01*
X155416487Y-111709500D01*
X155603288Y-111669794D01*
X155770115Y-111595518D01*
X169404000Y-111595518D01*
X169404353Y-111602114D01*
X169409573Y-111650667D01*
X169413111Y-111665641D01*
X169457547Y-111784777D01*
X169465962Y-111800189D01*
X169541498Y-111901092D01*
X169553907Y-111913501D01*
X169654810Y-111989037D01*
X169670222Y-111997452D01*
X169789358Y-112041888D01*
X169804332Y-112045426D01*
X169852885Y-112050646D01*
X169859482Y-112051000D01*
X170137674Y-112051000D01*
X170150549Y-112047549D01*
X170154000Y-112034674D01*
X170154000Y-111067326D01*
X170150549Y-111054450D01*
X170137674Y-111051000D01*
X169420326Y-111051000D01*
X169407450Y-111054450D01*
X169404000Y-111067326D01*
X169404000Y-111595518D01*
X155770115Y-111595518D01*
X155777752Y-111592118D01*
X155932253Y-111479866D01*
X156060040Y-111337944D01*
X156155527Y-111172556D01*
X156214542Y-110990928D01*
X156234504Y-110801000D01*
X156214542Y-110611072D01*
X156189719Y-110534674D01*
X169404000Y-110534674D01*
X169407450Y-110547549D01*
X169420326Y-110551000D01*
X170137674Y-110551000D01*
X170150549Y-110547549D01*
X170154000Y-110534674D01*
X170154000Y-109567326D01*
X170150549Y-109554450D01*
X170137674Y-109551000D01*
X169859482Y-109551000D01*
X169852885Y-109551353D01*
X169804332Y-109556573D01*
X169789358Y-109560111D01*
X169670222Y-109604547D01*
X169654810Y-109612962D01*
X169553907Y-109688498D01*
X169541498Y-109700907D01*
X169465962Y-109801810D01*
X169457547Y-109817222D01*
X169413111Y-109936358D01*
X169409573Y-109951332D01*
X169404353Y-109999885D01*
X169404000Y-110006482D01*
X169404000Y-110534674D01*
X156189719Y-110534674D01*
X156163447Y-110453818D01*
X156158905Y-110396102D01*
X156181060Y-110342615D01*
X156225083Y-110305015D01*
X156281378Y-110291500D01*
X167481816Y-110291500D01*
X167520133Y-110297569D01*
X167554697Y-110315179D01*
X167564248Y-110322118D01*
X167570182Y-110324760D01*
X167570184Y-110324761D01*
X167730419Y-110396102D01*
X167738712Y-110399794D01*
X167745070Y-110401145D01*
X167745072Y-110401146D01*
X167748342Y-110401841D01*
X167925513Y-110439500D01*
X168109984Y-110439500D01*
X168116487Y-110439500D01*
X168303288Y-110399794D01*
X168477752Y-110322118D01*
X168632253Y-110209866D01*
X168760040Y-110067944D01*
X168855527Y-109902556D01*
X168914542Y-109720928D01*
X168934504Y-109531000D01*
X168924523Y-109436036D01*
X168915221Y-109347532D01*
X168915220Y-109347531D01*
X168914542Y-109341072D01*
X168855527Y-109159444D01*
X168760040Y-108994056D01*
X168632253Y-108852134D01*
X168627003Y-108848319D01*
X168626999Y-108848316D01*
X168483006Y-108743699D01*
X168483004Y-108743697D01*
X168477752Y-108739882D01*
X168471821Y-108737241D01*
X168471817Y-108737239D01*
X168309226Y-108664849D01*
X168309219Y-108664846D01*
X168303288Y-108662206D01*
X168296935Y-108660855D01*
X168296927Y-108660853D01*
X168122849Y-108623852D01*
X168122846Y-108623851D01*
X168116487Y-108622500D01*
X167931933Y-108622500D01*
X167869933Y-108605887D01*
X167824546Y-108560500D01*
X167805652Y-108527775D01*
X167772040Y-108469556D01*
X167644253Y-108327634D01*
X167639003Y-108323819D01*
X167638999Y-108323816D01*
X167495006Y-108219199D01*
X167495004Y-108219197D01*
X167489752Y-108215382D01*
X167483821Y-108212741D01*
X167483817Y-108212739D01*
X167380003Y-108166518D01*
X169404000Y-108166518D01*
X169404353Y-108173114D01*
X169409573Y-108221667D01*
X169413111Y-108236641D01*
X169457547Y-108355777D01*
X169465962Y-108371189D01*
X169541498Y-108472092D01*
X169553907Y-108484501D01*
X169654810Y-108560037D01*
X169670222Y-108568452D01*
X169789358Y-108612888D01*
X169804332Y-108616426D01*
X169852885Y-108621646D01*
X169859482Y-108622000D01*
X170137674Y-108622000D01*
X170150549Y-108618549D01*
X170154000Y-108605674D01*
X170154000Y-107638326D01*
X170150549Y-107625450D01*
X170137674Y-107622000D01*
X169420326Y-107622000D01*
X169407450Y-107625450D01*
X169404000Y-107638326D01*
X169404000Y-108166518D01*
X167380003Y-108166518D01*
X167321226Y-108140349D01*
X167321219Y-108140346D01*
X167315288Y-108137706D01*
X167308935Y-108136355D01*
X167308927Y-108136353D01*
X167134849Y-108099352D01*
X167134846Y-108099351D01*
X167128487Y-108098000D01*
X167121984Y-108098000D01*
X167078002Y-108098000D01*
X167027566Y-108087280D01*
X166985852Y-108056972D01*
X166960071Y-108012317D01*
X166952535Y-107989124D01*
X166950527Y-107982944D01*
X166855040Y-107817556D01*
X166727253Y-107675634D01*
X166722003Y-107671819D01*
X166721999Y-107671816D01*
X166578006Y-107567199D01*
X166578004Y-107567197D01*
X166572752Y-107563382D01*
X166566821Y-107560741D01*
X166566817Y-107560739D01*
X166404226Y-107488349D01*
X166404219Y-107488346D01*
X166398288Y-107485706D01*
X166391935Y-107484355D01*
X166391927Y-107484353D01*
X166217849Y-107447352D01*
X166217846Y-107447351D01*
X166211487Y-107446000D01*
X166020513Y-107446000D01*
X166014154Y-107447351D01*
X166014150Y-107447352D01*
X165840072Y-107484353D01*
X165840061Y-107484356D01*
X165833712Y-107485706D01*
X165827782Y-107488345D01*
X165827773Y-107488349D01*
X165665182Y-107560739D01*
X165665174Y-107560743D01*
X165659248Y-107563382D01*
X165653999Y-107567195D01*
X165653993Y-107567199D01*
X165510000Y-107671816D01*
X165509991Y-107671823D01*
X165504747Y-107675634D01*
X165500404Y-107680456D01*
X165500401Y-107680460D01*
X165497016Y-107684220D01*
X165485984Y-107696472D01*
X165444271Y-107726779D01*
X165393835Y-107737500D01*
X158814513Y-107737500D01*
X158757038Y-107723376D01*
X158712657Y-107684220D01*
X158691480Y-107628953D01*
X158698331Y-107570166D01*
X158729833Y-107485706D01*
X158735989Y-107469201D01*
X158742500Y-107408638D01*
X158742500Y-107105674D01*
X169404000Y-107105674D01*
X169407450Y-107118549D01*
X169420326Y-107122000D01*
X170137674Y-107122000D01*
X170150549Y-107118549D01*
X170154000Y-107105674D01*
X170154000Y-106138326D01*
X170150549Y-106125450D01*
X170137674Y-106122000D01*
X169859482Y-106122000D01*
X169852885Y-106122353D01*
X169804332Y-106127573D01*
X169789358Y-106131111D01*
X169670222Y-106175547D01*
X169654810Y-106183962D01*
X169553907Y-106259498D01*
X169541498Y-106271907D01*
X169465962Y-106372810D01*
X169457547Y-106388222D01*
X169413111Y-106507358D01*
X169409573Y-106522332D01*
X169404353Y-106570885D01*
X169404000Y-106577482D01*
X169404000Y-107105674D01*
X158742500Y-107105674D01*
X158742500Y-106548766D01*
X158751939Y-106501313D01*
X158778819Y-106461085D01*
X159721086Y-105518819D01*
X159761314Y-105491939D01*
X159808767Y-105482500D01*
X164012393Y-105482500D01*
X164035629Y-105484697D01*
X164036241Y-105484813D01*
X164036242Y-105484813D01*
X164043906Y-105486275D01*
X164100014Y-105482745D01*
X164107801Y-105482500D01*
X171167234Y-105482500D01*
X171214687Y-105491939D01*
X171254915Y-105518819D01*
X171637915Y-105901819D01*
X171668165Y-105951182D01*
X171672707Y-106008898D01*
X171650552Y-106062385D01*
X171606529Y-106099985D01*
X171550234Y-106113500D01*
X171155362Y-106113500D01*
X171152082Y-106113852D01*
X171152075Y-106113853D01*
X171102507Y-106119182D01*
X171102504Y-106119182D01*
X171094799Y-106120011D01*
X171087538Y-106122718D01*
X171087530Y-106122721D01*
X171082282Y-106124679D01*
X171046692Y-106132254D01*
X171010437Y-106129173D01*
X171003666Y-106127573D01*
X170955114Y-106122353D01*
X170948518Y-106122000D01*
X170670326Y-106122000D01*
X170657450Y-106125450D01*
X170654000Y-106138326D01*
X170654000Y-108360670D01*
X170645764Y-108405108D01*
X170622152Y-108443638D01*
X170583960Y-108486056D01*
X170580714Y-108491676D01*
X170580711Y-108491682D01*
X170491721Y-108645817D01*
X170491718Y-108645822D01*
X170488473Y-108651444D01*
X170486467Y-108657616D01*
X170486465Y-108657622D01*
X170431465Y-108826892D01*
X170431463Y-108826901D01*
X170429458Y-108833072D01*
X170428780Y-108839522D01*
X170428778Y-108839532D01*
X170412538Y-108994056D01*
X170409496Y-109023000D01*
X170410175Y-109029460D01*
X170428778Y-109206467D01*
X170428779Y-109206475D01*
X170429458Y-109212928D01*
X170431463Y-109219100D01*
X170431465Y-109219107D01*
X170475372Y-109354236D01*
X170488473Y-109394556D01*
X170491720Y-109400180D01*
X170491721Y-109400182D01*
X170548763Y-109498982D01*
X170583960Y-109559944D01*
X170622152Y-109602361D01*
X170645764Y-109640892D01*
X170654000Y-109685330D01*
X170654000Y-112034674D01*
X170657450Y-112047549D01*
X170670326Y-112051000D01*
X170948518Y-112051000D01*
X170955114Y-112050646D01*
X171003663Y-112045427D01*
X171010429Y-112043828D01*
X171046691Y-112040745D01*
X171082284Y-112048321D01*
X171094799Y-112052989D01*
X171155362Y-112059500D01*
X172249328Y-112059500D01*
X172252638Y-112059500D01*
X172313201Y-112052989D01*
X172320469Y-112050277D01*
X172325479Y-112049094D01*
X172382521Y-112049094D01*
X172387530Y-112050277D01*
X172394799Y-112052989D01*
X172455362Y-112059500D01*
X173549328Y-112059500D01*
X173552638Y-112059500D01*
X173613201Y-112052989D01*
X173750204Y-112001889D01*
X173867261Y-111914261D01*
X173954889Y-111797204D01*
X174005989Y-111660201D01*
X174012500Y-111599638D01*
X174012500Y-110433551D01*
X176091688Y-110433551D01*
X176092056Y-110444780D01*
X176144168Y-110639263D01*
X176147856Y-110649397D01*
X176243113Y-110853676D01*
X176248501Y-110863008D01*
X176377784Y-111047643D01*
X176384721Y-111055909D01*
X176544090Y-111215278D01*
X176552356Y-111222215D01*
X176736991Y-111351498D01*
X176746323Y-111356886D01*
X176950602Y-111452143D01*
X176960736Y-111455831D01*
X177155219Y-111507943D01*
X177166448Y-111508311D01*
X177169000Y-111497369D01*
X177669000Y-111497369D01*
X177671551Y-111508311D01*
X177682780Y-111507943D01*
X177877263Y-111455831D01*
X177887397Y-111452143D01*
X178091676Y-111356886D01*
X178101008Y-111351498D01*
X178285643Y-111222215D01*
X178293909Y-111215278D01*
X178453278Y-111055909D01*
X178460215Y-111047643D01*
X178589498Y-110863008D01*
X178594886Y-110853676D01*
X178690143Y-110649397D01*
X178693831Y-110639263D01*
X178745943Y-110444780D01*
X178746311Y-110433551D01*
X178735369Y-110431000D01*
X177685326Y-110431000D01*
X177672450Y-110434450D01*
X177669000Y-110447326D01*
X177669000Y-111497369D01*
X177169000Y-111497369D01*
X177169000Y-110447326D01*
X177165549Y-110434450D01*
X177152674Y-110431000D01*
X176102631Y-110431000D01*
X176091688Y-110433551D01*
X174012500Y-110433551D01*
X174012500Y-110002362D01*
X174005989Y-109941799D01*
X173954889Y-109804796D01*
X173867261Y-109687739D01*
X173750204Y-109600111D01*
X173741895Y-109597012D01*
X173741890Y-109597009D01*
X173718165Y-109588160D01*
X173675929Y-109561721D01*
X173647512Y-109520791D01*
X173637500Y-109471979D01*
X173637500Y-108701021D01*
X173647512Y-108652209D01*
X173675929Y-108611279D01*
X173718165Y-108584840D01*
X173741890Y-108575990D01*
X173741889Y-108575990D01*
X173750204Y-108572889D01*
X173867261Y-108485261D01*
X173954889Y-108368204D01*
X174005989Y-108231201D01*
X174012500Y-108170638D01*
X174012500Y-107641000D01*
X176055844Y-107641000D01*
X176056268Y-107646117D01*
X176074011Y-107860248D01*
X176074012Y-107860256D01*
X176074436Y-107865368D01*
X176075693Y-107870335D01*
X176075695Y-107870342D01*
X176126637Y-108071505D01*
X176129704Y-108083616D01*
X176146135Y-108121075D01*
X176218080Y-108285096D01*
X176218083Y-108285101D01*
X176220140Y-108289791D01*
X176271370Y-108368204D01*
X176340474Y-108473977D01*
X176340477Y-108473981D01*
X176343278Y-108478268D01*
X176346752Y-108482041D01*
X176346753Y-108482043D01*
X176492288Y-108640135D01*
X176492291Y-108640138D01*
X176495760Y-108643906D01*
X176513382Y-108657622D01*
X176669376Y-108779039D01*
X176669381Y-108779042D01*
X176673424Y-108782189D01*
X176716691Y-108805604D01*
X176716695Y-108805606D01*
X176762335Y-108848155D01*
X176781475Y-108907545D01*
X176769267Y-108968737D01*
X176728803Y-109016236D01*
X176552352Y-109139788D01*
X176544092Y-109146719D01*
X176384719Y-109306092D01*
X176377784Y-109314357D01*
X176248508Y-109498982D01*
X176243110Y-109508332D01*
X176147856Y-109712602D01*
X176144168Y-109722736D01*
X176092056Y-109917219D01*
X176091688Y-109928448D01*
X176102631Y-109931000D01*
X178735369Y-109931000D01*
X178746311Y-109928448D01*
X178745943Y-109917219D01*
X178693831Y-109722736D01*
X178690143Y-109712602D01*
X178594889Y-109508332D01*
X178589491Y-109498982D01*
X178460215Y-109314357D01*
X178453280Y-109306092D01*
X178293909Y-109146721D01*
X178285635Y-109139778D01*
X178109198Y-109016234D01*
X178068734Y-108968735D01*
X178056526Y-108907543D01*
X178075666Y-108848153D01*
X178121304Y-108805606D01*
X178164576Y-108782189D01*
X178342240Y-108643906D01*
X178494722Y-108478268D01*
X178617860Y-108289791D01*
X178708296Y-108083616D01*
X178763564Y-107865368D01*
X178782156Y-107641000D01*
X178763564Y-107416632D01*
X178708296Y-107198384D01*
X178617860Y-106992209D01*
X178494722Y-106803732D01*
X178349506Y-106645987D01*
X178320735Y-106593239D01*
X178320142Y-106533152D01*
X178347869Y-106479841D01*
X178397404Y-106445826D01*
X178515204Y-106401889D01*
X178632261Y-106314261D01*
X178719889Y-106197204D01*
X178770989Y-106060201D01*
X178777500Y-105999638D01*
X178777500Y-104202362D01*
X178770989Y-104141799D01*
X178719889Y-104004796D01*
X178632261Y-103887739D01*
X178610994Y-103871819D01*
X178522304Y-103805426D01*
X178522303Y-103805425D01*
X178515204Y-103800111D01*
X178506896Y-103797012D01*
X178506894Y-103797011D01*
X178385463Y-103751719D01*
X178385458Y-103751717D01*
X178378201Y-103749011D01*
X178370497Y-103748182D01*
X178370494Y-103748182D01*
X178320924Y-103742853D01*
X178320918Y-103742852D01*
X178317638Y-103742500D01*
X176520362Y-103742500D01*
X176517082Y-103742852D01*
X176517075Y-103742853D01*
X176467505Y-103748182D01*
X176467500Y-103748182D01*
X176459799Y-103749011D01*
X176452543Y-103751717D01*
X176452536Y-103751719D01*
X176331105Y-103797011D01*
X176331099Y-103797013D01*
X176322796Y-103800111D01*
X176315698Y-103805423D01*
X176315695Y-103805426D01*
X176212835Y-103882426D01*
X176212831Y-103882429D01*
X176205739Y-103887739D01*
X176200429Y-103894831D01*
X176200426Y-103894835D01*
X176123426Y-103997695D01*
X176123423Y-103997698D01*
X176118111Y-104004796D01*
X176115013Y-104013099D01*
X176115011Y-104013105D01*
X176069719Y-104134536D01*
X176069717Y-104134543D01*
X176067011Y-104141799D01*
X176066182Y-104149500D01*
X176066182Y-104149505D01*
X176060853Y-104199075D01*
X176060500Y-104202362D01*
X176060500Y-105999638D01*
X176060852Y-106002918D01*
X176060853Y-106002924D01*
X176063098Y-106023811D01*
X176067011Y-106060201D01*
X176069717Y-106067458D01*
X176069719Y-106067463D01*
X176115011Y-106188894D01*
X176118111Y-106197204D01*
X176205739Y-106314261D01*
X176322796Y-106401889D01*
X176440595Y-106445826D01*
X176490130Y-106479841D01*
X176517857Y-106533152D01*
X176517264Y-106593238D01*
X176488490Y-106645991D01*
X176346753Y-106799956D01*
X176346747Y-106799963D01*
X176343278Y-106803732D01*
X176340481Y-106808012D01*
X176340474Y-106808022D01*
X176222942Y-106987920D01*
X176220140Y-106992209D01*
X176218085Y-106996892D01*
X176218080Y-106996903D01*
X176134745Y-107186892D01*
X176129704Y-107198384D01*
X176128446Y-107203349D01*
X176128445Y-107203354D01*
X176075695Y-107411657D01*
X176075693Y-107411666D01*
X176074436Y-107416632D01*
X176074012Y-107421741D01*
X176074011Y-107421751D01*
X176056842Y-107628953D01*
X176055844Y-107641000D01*
X174012500Y-107641000D01*
X174012500Y-106573362D01*
X174005989Y-106512799D01*
X173954889Y-106375796D01*
X173867261Y-106258739D01*
X173750204Y-106171111D01*
X173741896Y-106168012D01*
X173741894Y-106168011D01*
X173630955Y-106126633D01*
X173593219Y-106104279D01*
X173566063Y-106070726D01*
X173563552Y-106064383D01*
X173558968Y-106058074D01*
X173558966Y-106058070D01*
X173537511Y-106028542D01*
X173531103Y-106018788D01*
X173508542Y-105980637D01*
X173494106Y-105966201D01*
X173481469Y-105951405D01*
X173474058Y-105941205D01*
X173474057Y-105941204D01*
X173469472Y-105934893D01*
X173435336Y-105906653D01*
X173426696Y-105898791D01*
X172377085Y-104849180D01*
X172344991Y-104793593D01*
X172344991Y-104729405D01*
X172377085Y-104673818D01*
X172754426Y-104296478D01*
X173179084Y-103871819D01*
X173219313Y-103844939D01*
X173266766Y-103835500D01*
X173316984Y-103835500D01*
X173323487Y-103835500D01*
X173510288Y-103795794D01*
X173684752Y-103718118D01*
X173839253Y-103605866D01*
X173967040Y-103463944D01*
X174062527Y-103298556D01*
X174121542Y-103116928D01*
X174141504Y-102927000D01*
X174126846Y-102787540D01*
X174122221Y-102743532D01*
X174122220Y-102743531D01*
X174121542Y-102737072D01*
X174062527Y-102555444D01*
X173967040Y-102390056D01*
X173839253Y-102248134D01*
X173834003Y-102244319D01*
X173833999Y-102244316D01*
X173690006Y-102139699D01*
X173690004Y-102139697D01*
X173684752Y-102135882D01*
X173678821Y-102133241D01*
X173678817Y-102133239D01*
X173516226Y-102060849D01*
X173516219Y-102060846D01*
X173510288Y-102058206D01*
X173503935Y-102056855D01*
X173503927Y-102056853D01*
X173329849Y-102019852D01*
X173329846Y-102019851D01*
X173323487Y-102018500D01*
X173132513Y-102018500D01*
X173126154Y-102019851D01*
X173126150Y-102019852D01*
X172952072Y-102056853D01*
X172952061Y-102056856D01*
X172945712Y-102058206D01*
X172939782Y-102060845D01*
X172939773Y-102060849D01*
X172777182Y-102133239D01*
X172777174Y-102133243D01*
X172771248Y-102135882D01*
X172765999Y-102139695D01*
X172765993Y-102139699D01*
X172622000Y-102244316D01*
X172621991Y-102244323D01*
X172616747Y-102248134D01*
X172612403Y-102252957D01*
X172612400Y-102252961D01*
X172493307Y-102385228D01*
X172488960Y-102390056D01*
X172485714Y-102395676D01*
X172485711Y-102395682D01*
X172396721Y-102549817D01*
X172396718Y-102549822D01*
X172393473Y-102555444D01*
X172391467Y-102561616D01*
X172391465Y-102561622D01*
X172336465Y-102730892D01*
X172336463Y-102730901D01*
X172334458Y-102737072D01*
X172333779Y-102743531D01*
X172333779Y-102743532D01*
X172317018Y-102902996D01*
X172305617Y-102943418D01*
X172281378Y-102977715D01*
X171888412Y-103370681D01*
X171837501Y-103401423D01*
X171778132Y-103404923D01*
X171723961Y-103380378D01*
X171688143Y-103334323D01*
X171686935Y-103330604D01*
X171591448Y-103165216D01*
X171463661Y-103023294D01*
X171458411Y-103019479D01*
X171458407Y-103019476D01*
X171314414Y-102914859D01*
X171314412Y-102914857D01*
X171309160Y-102911042D01*
X171303229Y-102908401D01*
X171303225Y-102908399D01*
X171140634Y-102836009D01*
X171140627Y-102836006D01*
X171134696Y-102833366D01*
X171128337Y-102832014D01*
X171128336Y-102832014D01*
X170977051Y-102799857D01*
X170943665Y-102787540D01*
X170915152Y-102766248D01*
X168873086Y-100724181D01*
X168842836Y-100674818D01*
X168838294Y-100617102D01*
X168860449Y-100563615D01*
X168904472Y-100526015D01*
X168960767Y-100512500D01*
X169612234Y-100512500D01*
X169659687Y-100521939D01*
X169699915Y-100548819D01*
X170177835Y-101026739D01*
X170202074Y-101061036D01*
X170213475Y-101101458D01*
X170228412Y-101243578D01*
X170230915Y-101267385D01*
X170232920Y-101273557D01*
X170232922Y-101273564D01*
X170274979Y-101403000D01*
X170289930Y-101449013D01*
X170293177Y-101454637D01*
X170293178Y-101454639D01*
X170373019Y-101592928D01*
X170385417Y-101614401D01*
X170513204Y-101756323D01*
X170518454Y-101760137D01*
X170518457Y-101760140D01*
X170661320Y-101863936D01*
X170667705Y-101868575D01*
X170673638Y-101871216D01*
X170673639Y-101871217D01*
X170815364Y-101934317D01*
X170842169Y-101946251D01*
X170848527Y-101947602D01*
X170848529Y-101947603D01*
X170885331Y-101955425D01*
X171028970Y-101985957D01*
X171213441Y-101985957D01*
X171219944Y-101985957D01*
X171406745Y-101946251D01*
X171581209Y-101868575D01*
X171636744Y-101828225D01*
X171696667Y-101805222D01*
X171760065Y-101815263D01*
X171789181Y-101828226D01*
X171929712Y-101890794D01*
X171936070Y-101892145D01*
X171936072Y-101892146D01*
X171972874Y-101899968D01*
X172116513Y-101930500D01*
X172300984Y-101930500D01*
X172307487Y-101930500D01*
X172494288Y-101890794D01*
X172668752Y-101813118D01*
X172823253Y-101700866D01*
X172951040Y-101558944D01*
X173046527Y-101393556D01*
X173105542Y-101211928D01*
X173125504Y-101022000D01*
X173105542Y-100832072D01*
X173046527Y-100650444D01*
X172951040Y-100485056D01*
X172823253Y-100343134D01*
X172818003Y-100339319D01*
X172817999Y-100339316D01*
X172674006Y-100234699D01*
X172674004Y-100234697D01*
X172668752Y-100230882D01*
X172662821Y-100228241D01*
X172662817Y-100228239D01*
X172500226Y-100155849D01*
X172500219Y-100155846D01*
X172494288Y-100153206D01*
X172487935Y-100151855D01*
X172487927Y-100151853D01*
X172313849Y-100114852D01*
X172313846Y-100114851D01*
X172307487Y-100113500D01*
X172300984Y-100113500D01*
X172250766Y-100113500D01*
X172203313Y-100104061D01*
X172163085Y-100077181D01*
X168149086Y-96063181D01*
X168118836Y-96013818D01*
X168114294Y-95956102D01*
X168136449Y-95902615D01*
X168180472Y-95865015D01*
X168236767Y-95851500D01*
X168363984Y-95851500D01*
X168370487Y-95851500D01*
X168557288Y-95811794D01*
X168731752Y-95734118D01*
X168886253Y-95621866D01*
X169014040Y-95479944D01*
X169109527Y-95314556D01*
X169168542Y-95132928D01*
X169188504Y-94943000D01*
X169168542Y-94753072D01*
X169109527Y-94571444D01*
X169014040Y-94406056D01*
X168886253Y-94264134D01*
X168881003Y-94260319D01*
X168880999Y-94260316D01*
X168737006Y-94155699D01*
X168737004Y-94155697D01*
X168731752Y-94151882D01*
X168725821Y-94149241D01*
X168725817Y-94149239D01*
X168563226Y-94076849D01*
X168563219Y-94076846D01*
X168557288Y-94074206D01*
X168550935Y-94072855D01*
X168550927Y-94072853D01*
X168376849Y-94035852D01*
X168376846Y-94035851D01*
X168370487Y-94034500D01*
X168179513Y-94034500D01*
X168173154Y-94035851D01*
X168173150Y-94035852D01*
X167999072Y-94072853D01*
X167999061Y-94072856D01*
X167992712Y-94074206D01*
X167986782Y-94076845D01*
X167986773Y-94076849D01*
X167824182Y-94149239D01*
X167824174Y-94149243D01*
X167818248Y-94151882D01*
X167812999Y-94155695D01*
X167812993Y-94155699D01*
X167669000Y-94260316D01*
X167668991Y-94260323D01*
X167663747Y-94264134D01*
X167659402Y-94268958D01*
X167654571Y-94273310D01*
X167654021Y-94272700D01*
X167618126Y-94298780D01*
X167567691Y-94309500D01*
X158949309Y-94309500D01*
X158898874Y-94298780D01*
X158862978Y-94272700D01*
X158862429Y-94273310D01*
X158857598Y-94268960D01*
X158853253Y-94264134D01*
X158848003Y-94260319D01*
X158847999Y-94260316D01*
X158704006Y-94155699D01*
X158704004Y-94155697D01*
X158698752Y-94151882D01*
X158692821Y-94149241D01*
X158692817Y-94149239D01*
X158530226Y-94076849D01*
X158530219Y-94076846D01*
X158524288Y-94074206D01*
X158517935Y-94072855D01*
X158517927Y-94072853D01*
X158343849Y-94035852D01*
X158343846Y-94035851D01*
X158337487Y-94034500D01*
X158146513Y-94034500D01*
X158140154Y-94035851D01*
X158140150Y-94035852D01*
X157966072Y-94072853D01*
X157966061Y-94072856D01*
X157959712Y-94074206D01*
X157953782Y-94076845D01*
X157953773Y-94076849D01*
X157791182Y-94149239D01*
X157791174Y-94149243D01*
X157785248Y-94151882D01*
X157779999Y-94155695D01*
X157779993Y-94155699D01*
X157636000Y-94260316D01*
X157635991Y-94260323D01*
X157630747Y-94264134D01*
X157626403Y-94268957D01*
X157626400Y-94268961D01*
X157589899Y-94309500D01*
X157502960Y-94406056D01*
X157499714Y-94411676D01*
X157499711Y-94411682D01*
X157410721Y-94565817D01*
X157410718Y-94565822D01*
X157407473Y-94571444D01*
X157405467Y-94577616D01*
X157405465Y-94577622D01*
X157350465Y-94746892D01*
X157350463Y-94746901D01*
X157348458Y-94753072D01*
X157347780Y-94759522D01*
X157347778Y-94759532D01*
X157329778Y-94930795D01*
X157328496Y-94943000D01*
X157329175Y-94949460D01*
X157347778Y-95126467D01*
X157347779Y-95126475D01*
X157348458Y-95132928D01*
X157394030Y-95273182D01*
X157398572Y-95330897D01*
X157376417Y-95384385D01*
X157332394Y-95421985D01*
X157276099Y-95435500D01*
X154791411Y-95435500D01*
X154735116Y-95421985D01*
X154691093Y-95384385D01*
X154668938Y-95330898D01*
X154673480Y-95273182D01*
X154703730Y-95223819D01*
X155180657Y-94746892D01*
X157092640Y-92834907D01*
X157152370Y-92801781D01*
X157220581Y-92805308D01*
X157241365Y-92812444D01*
X157463431Y-92849500D01*
X157683436Y-92849500D01*
X157688569Y-92849500D01*
X157910635Y-92812444D01*
X158123574Y-92739342D01*
X158321576Y-92632189D01*
X158499240Y-92493906D01*
X158651722Y-92328268D01*
X158742190Y-92189795D01*
X158786982Y-92148561D01*
X158846000Y-92133616D01*
X158905018Y-92148561D01*
X158949809Y-92189795D01*
X159037470Y-92323972D01*
X159037478Y-92323982D01*
X159040278Y-92328268D01*
X159043752Y-92332041D01*
X159043753Y-92332043D01*
X159189288Y-92490135D01*
X159189291Y-92490138D01*
X159192760Y-92493906D01*
X159243278Y-92533226D01*
X159366376Y-92629039D01*
X159366381Y-92629042D01*
X159370424Y-92632189D01*
X159374931Y-92634628D01*
X159374934Y-92634630D01*
X159563919Y-92736903D01*
X159568426Y-92739342D01*
X159781365Y-92812444D01*
X160003431Y-92849500D01*
X160223436Y-92849500D01*
X160228569Y-92849500D01*
X160450635Y-92812444D01*
X160663574Y-92739342D01*
X160861576Y-92632189D01*
X161039240Y-92493906D01*
X161191722Y-92328268D01*
X161282190Y-92189795D01*
X161326982Y-92148561D01*
X161386000Y-92133616D01*
X161445018Y-92148561D01*
X161489809Y-92189795D01*
X161577470Y-92323972D01*
X161577478Y-92323982D01*
X161580278Y-92328268D01*
X161583752Y-92332041D01*
X161583753Y-92332043D01*
X161729288Y-92490135D01*
X161729291Y-92490138D01*
X161732760Y-92493906D01*
X161783278Y-92533226D01*
X161906376Y-92629039D01*
X161906381Y-92629042D01*
X161910424Y-92632189D01*
X161914931Y-92634628D01*
X161914934Y-92634630D01*
X162103919Y-92736903D01*
X162108426Y-92739342D01*
X162321365Y-92812444D01*
X162543431Y-92849500D01*
X162763436Y-92849500D01*
X162768569Y-92849500D01*
X162990635Y-92812444D01*
X163203574Y-92739342D01*
X163401576Y-92632189D01*
X163579240Y-92493906D01*
X163642455Y-92425236D01*
X163695073Y-92391386D01*
X163757528Y-92387538D01*
X163813909Y-92414675D01*
X163849862Y-92465889D01*
X163858905Y-92490135D01*
X163895111Y-92587204D01*
X163982739Y-92704261D01*
X164099796Y-92791889D01*
X164236799Y-92842989D01*
X164297362Y-92849500D01*
X166091328Y-92849500D01*
X166094638Y-92849500D01*
X166155201Y-92842989D01*
X166292204Y-92791889D01*
X166409261Y-92704261D01*
X166496889Y-92587204D01*
X166547989Y-92450201D01*
X166554500Y-92389638D01*
X166554500Y-90592362D01*
X166547989Y-90531799D01*
X166496889Y-90394796D01*
X166409261Y-90277739D01*
X166362398Y-90242658D01*
X166299304Y-90195426D01*
X166299303Y-90195425D01*
X166292204Y-90190111D01*
X166283895Y-90187011D01*
X166283888Y-90187008D01*
X166174404Y-90146172D01*
X166124869Y-90112157D01*
X166097142Y-90058847D01*
X166097735Y-89998760D01*
X166126505Y-89946013D01*
X166271722Y-89788268D01*
X166394860Y-89599791D01*
X166485296Y-89393616D01*
X166540564Y-89175368D01*
X166559156Y-88951000D01*
X166540564Y-88726632D01*
X166485296Y-88508384D01*
X166394860Y-88302209D01*
X166271722Y-88113732D01*
X166180610Y-88014759D01*
X166122711Y-87951864D01*
X166122708Y-87951861D01*
X166119240Y-87948094D01*
X166106597Y-87938253D01*
X165945623Y-87812960D01*
X165945615Y-87812955D01*
X165941576Y-87809811D01*
X165937071Y-87807373D01*
X165937065Y-87807369D01*
X165748080Y-87705096D01*
X165748074Y-87705093D01*
X165743574Y-87702658D01*
X165738733Y-87700996D01*
X165738726Y-87700993D01*
X165535488Y-87631222D01*
X165535487Y-87631221D01*
X165530635Y-87629556D01*
X165525585Y-87628713D01*
X165525576Y-87628711D01*
X165313631Y-87593344D01*
X165313622Y-87593343D01*
X165308569Y-87592500D01*
X165083431Y-87592500D01*
X165078378Y-87593343D01*
X165078368Y-87593344D01*
X164866423Y-87628711D01*
X164866411Y-87628713D01*
X164861365Y-87629556D01*
X164856515Y-87631220D01*
X164856511Y-87631222D01*
X164653273Y-87700993D01*
X164653262Y-87700997D01*
X164648426Y-87702658D01*
X164643929Y-87705091D01*
X164643919Y-87705096D01*
X164454934Y-87807369D01*
X164454922Y-87807376D01*
X164450424Y-87809811D01*
X164446389Y-87812951D01*
X164446376Y-87812960D01*
X164276801Y-87944948D01*
X164276795Y-87944952D01*
X164272760Y-87948094D01*
X164269297Y-87951855D01*
X164269288Y-87951864D01*
X164123753Y-88109956D01*
X164123747Y-88109963D01*
X164120278Y-88113732D01*
X164117481Y-88118012D01*
X164117474Y-88118022D01*
X164029809Y-88252205D01*
X163985017Y-88293438D01*
X163926000Y-88308383D01*
X163866983Y-88293438D01*
X163822191Y-88252205D01*
X163734525Y-88118022D01*
X163734523Y-88118020D01*
X163731722Y-88113732D01*
X163640610Y-88014759D01*
X163582711Y-87951864D01*
X163582708Y-87951861D01*
X163579240Y-87948094D01*
X163566597Y-87938253D01*
X163405623Y-87812960D01*
X163405615Y-87812955D01*
X163401576Y-87809811D01*
X163397071Y-87807373D01*
X163397065Y-87807369D01*
X163208080Y-87705096D01*
X163208074Y-87705093D01*
X163203574Y-87702658D01*
X163198733Y-87700996D01*
X163198726Y-87700993D01*
X162995488Y-87631222D01*
X162995487Y-87631221D01*
X162990635Y-87629556D01*
X162985585Y-87628713D01*
X162985576Y-87628711D01*
X162773631Y-87593344D01*
X162773622Y-87593343D01*
X162768569Y-87592500D01*
X162543431Y-87592500D01*
X162538378Y-87593343D01*
X162538368Y-87593344D01*
X162326423Y-87628711D01*
X162326411Y-87628713D01*
X162321365Y-87629556D01*
X162316515Y-87631220D01*
X162316511Y-87631222D01*
X162113273Y-87700993D01*
X162113262Y-87700997D01*
X162108426Y-87702658D01*
X162103929Y-87705091D01*
X162103919Y-87705096D01*
X161914934Y-87807369D01*
X161914922Y-87807376D01*
X161910424Y-87809811D01*
X161906389Y-87812951D01*
X161906376Y-87812960D01*
X161736801Y-87944948D01*
X161736795Y-87944952D01*
X161732760Y-87948094D01*
X161729297Y-87951855D01*
X161729288Y-87951864D01*
X161583753Y-88109956D01*
X161583747Y-88109963D01*
X161580278Y-88113732D01*
X161577481Y-88118012D01*
X161577474Y-88118022D01*
X161489809Y-88252205D01*
X161445017Y-88293438D01*
X161386000Y-88308383D01*
X161326983Y-88293438D01*
X161282191Y-88252205D01*
X161194525Y-88118022D01*
X161194523Y-88118020D01*
X161191722Y-88113732D01*
X161100610Y-88014759D01*
X161042711Y-87951864D01*
X161042708Y-87951861D01*
X161039240Y-87948094D01*
X161026597Y-87938253D01*
X160865623Y-87812960D01*
X160865615Y-87812955D01*
X160861576Y-87809811D01*
X160857071Y-87807373D01*
X160857065Y-87807369D01*
X160668080Y-87705096D01*
X160668074Y-87705093D01*
X160663574Y-87702658D01*
X160658733Y-87700996D01*
X160658726Y-87700993D01*
X160455488Y-87631222D01*
X160455487Y-87631221D01*
X160450635Y-87629556D01*
X160445585Y-87628713D01*
X160445576Y-87628711D01*
X160233631Y-87593344D01*
X160233622Y-87593343D01*
X160228569Y-87592500D01*
X160003431Y-87592500D01*
X159998378Y-87593343D01*
X159998368Y-87593344D01*
X159786423Y-87628711D01*
X159786411Y-87628713D01*
X159781365Y-87629556D01*
X159776515Y-87631220D01*
X159776511Y-87631222D01*
X159573273Y-87700993D01*
X159573262Y-87700997D01*
X159568426Y-87702658D01*
X159563929Y-87705091D01*
X159563919Y-87705096D01*
X159374934Y-87807369D01*
X159374922Y-87807376D01*
X159370424Y-87809811D01*
X159366389Y-87812951D01*
X159366376Y-87812960D01*
X159196801Y-87944948D01*
X159196795Y-87944952D01*
X159192760Y-87948094D01*
X159189297Y-87951855D01*
X159189288Y-87951864D01*
X159043753Y-88109956D01*
X159043747Y-88109963D01*
X159040278Y-88113732D01*
X159037481Y-88118012D01*
X159037474Y-88118022D01*
X158949809Y-88252205D01*
X158905017Y-88293438D01*
X158846000Y-88308383D01*
X158786983Y-88293438D01*
X158742191Y-88252205D01*
X158654525Y-88118022D01*
X158654523Y-88118020D01*
X158651722Y-88113732D01*
X158560610Y-88014759D01*
X158502711Y-87951864D01*
X158502708Y-87951861D01*
X158499240Y-87948094D01*
X158486597Y-87938253D01*
X158325623Y-87812960D01*
X158325615Y-87812955D01*
X158321576Y-87809811D01*
X158317071Y-87807373D01*
X158317065Y-87807369D01*
X158128080Y-87705096D01*
X158128074Y-87705093D01*
X158123574Y-87702658D01*
X158118733Y-87700996D01*
X158118726Y-87700993D01*
X157915488Y-87631222D01*
X157915487Y-87631221D01*
X157910635Y-87629556D01*
X157905585Y-87628713D01*
X157905576Y-87628711D01*
X157693631Y-87593344D01*
X157693622Y-87593343D01*
X157688569Y-87592500D01*
X157463431Y-87592500D01*
X157458378Y-87593343D01*
X157458368Y-87593344D01*
X157246423Y-87628711D01*
X157246411Y-87628713D01*
X157241365Y-87629556D01*
X157236515Y-87631220D01*
X157236511Y-87631222D01*
X157033273Y-87700993D01*
X157033262Y-87700997D01*
X157028426Y-87702658D01*
X157023929Y-87705091D01*
X157023919Y-87705096D01*
X156834934Y-87807369D01*
X156834922Y-87807376D01*
X156830424Y-87809811D01*
X156826389Y-87812951D01*
X156826376Y-87812960D01*
X156656801Y-87944948D01*
X156656795Y-87944952D01*
X156652760Y-87948094D01*
X156649297Y-87951855D01*
X156649288Y-87951864D01*
X156503753Y-88109956D01*
X156503747Y-88109963D01*
X156500278Y-88113732D01*
X156497481Y-88118012D01*
X156497474Y-88118022D01*
X156409809Y-88252205D01*
X156365017Y-88293438D01*
X156306000Y-88308383D01*
X156246983Y-88293438D01*
X156202191Y-88252205D01*
X156114525Y-88118022D01*
X156114523Y-88118020D01*
X156111722Y-88113732D01*
X156020610Y-88014759D01*
X155962711Y-87951864D01*
X155962708Y-87951861D01*
X155959240Y-87948094D01*
X155946597Y-87938253D01*
X155785623Y-87812960D01*
X155785615Y-87812955D01*
X155781576Y-87809811D01*
X155777071Y-87807373D01*
X155777065Y-87807369D01*
X155588080Y-87705096D01*
X155588074Y-87705093D01*
X155583574Y-87702658D01*
X155578733Y-87700996D01*
X155578726Y-87700993D01*
X155375488Y-87631222D01*
X155375487Y-87631221D01*
X155370635Y-87629556D01*
X155365585Y-87628713D01*
X155365576Y-87628711D01*
X155153631Y-87593344D01*
X155153622Y-87593343D01*
X155148569Y-87592500D01*
X154923431Y-87592500D01*
X154918378Y-87593343D01*
X154918368Y-87593344D01*
X154706423Y-87628711D01*
X154706411Y-87628713D01*
X154701365Y-87629556D01*
X154696515Y-87631220D01*
X154696511Y-87631222D01*
X154493273Y-87700993D01*
X154493262Y-87700997D01*
X154488426Y-87702658D01*
X154483929Y-87705091D01*
X154483919Y-87705096D01*
X154294934Y-87807369D01*
X154294922Y-87807376D01*
X154290424Y-87809811D01*
X154286389Y-87812951D01*
X154286376Y-87812960D01*
X154116801Y-87944948D01*
X154116795Y-87944952D01*
X154112760Y-87948094D01*
X154109297Y-87951855D01*
X154109288Y-87951864D01*
X153963753Y-88109956D01*
X153963747Y-88109963D01*
X153960278Y-88113732D01*
X153957481Y-88118012D01*
X153957474Y-88118022D01*
X153869809Y-88252205D01*
X153825017Y-88293438D01*
X153766000Y-88308383D01*
X153706983Y-88293438D01*
X153662191Y-88252205D01*
X153574525Y-88118022D01*
X153574523Y-88118020D01*
X153571722Y-88113732D01*
X153480610Y-88014759D01*
X153422711Y-87951864D01*
X153422708Y-87951861D01*
X153419240Y-87948094D01*
X153406597Y-87938253D01*
X153245623Y-87812960D01*
X153245615Y-87812955D01*
X153241576Y-87809811D01*
X153237071Y-87807373D01*
X153237065Y-87807369D01*
X153048080Y-87705096D01*
X153048074Y-87705093D01*
X153043574Y-87702658D01*
X153038733Y-87700996D01*
X153038726Y-87700993D01*
X152835488Y-87631222D01*
X152835487Y-87631221D01*
X152830635Y-87629556D01*
X152825585Y-87628713D01*
X152825576Y-87628711D01*
X152613631Y-87593344D01*
X152613622Y-87593343D01*
X152608569Y-87592500D01*
X152383431Y-87592500D01*
X152378378Y-87593343D01*
X152378368Y-87593344D01*
X152166423Y-87628711D01*
X152166411Y-87628713D01*
X152161365Y-87629556D01*
X152156515Y-87631220D01*
X152156511Y-87631222D01*
X151953273Y-87700993D01*
X151953262Y-87700997D01*
X151948426Y-87702658D01*
X151943929Y-87705091D01*
X151943919Y-87705096D01*
X151754934Y-87807369D01*
X151754922Y-87807376D01*
X151750424Y-87809811D01*
X151746389Y-87812951D01*
X151746376Y-87812960D01*
X151576801Y-87944948D01*
X151576795Y-87944952D01*
X151572760Y-87948094D01*
X151569297Y-87951855D01*
X151569288Y-87951864D01*
X151423753Y-88109956D01*
X151423747Y-88109963D01*
X151420278Y-88113732D01*
X151417481Y-88118012D01*
X151417474Y-88118022D01*
X151329809Y-88252205D01*
X151285017Y-88293438D01*
X151226000Y-88308383D01*
X151166983Y-88293438D01*
X151122191Y-88252205D01*
X151034525Y-88118022D01*
X151034523Y-88118020D01*
X151031722Y-88113732D01*
X150940610Y-88014759D01*
X150882711Y-87951864D01*
X150882708Y-87951861D01*
X150879240Y-87948094D01*
X150866597Y-87938253D01*
X150705623Y-87812960D01*
X150705615Y-87812955D01*
X150701576Y-87809811D01*
X150697071Y-87807373D01*
X150697065Y-87807369D01*
X150508080Y-87705096D01*
X150508074Y-87705093D01*
X150503574Y-87702658D01*
X150498733Y-87700996D01*
X150498726Y-87700993D01*
X150295488Y-87631222D01*
X150295487Y-87631221D01*
X150290635Y-87629556D01*
X150285585Y-87628713D01*
X150285576Y-87628711D01*
X150073631Y-87593344D01*
X150073622Y-87593343D01*
X150068569Y-87592500D01*
X149843431Y-87592500D01*
X149838378Y-87593343D01*
X149838368Y-87593344D01*
X149626423Y-87628711D01*
X149626411Y-87628713D01*
X149621365Y-87629556D01*
X149616515Y-87631220D01*
X149616511Y-87631222D01*
X149413273Y-87700993D01*
X149413262Y-87700997D01*
X149408426Y-87702658D01*
X149403929Y-87705091D01*
X149403919Y-87705096D01*
X149214934Y-87807369D01*
X149214922Y-87807376D01*
X149210424Y-87809811D01*
X149206389Y-87812951D01*
X149206376Y-87812960D01*
X149036801Y-87944948D01*
X149036795Y-87944952D01*
X149032760Y-87948094D01*
X149029297Y-87951855D01*
X149029288Y-87951864D01*
X148883753Y-88109956D01*
X148883747Y-88109963D01*
X148880278Y-88113732D01*
X148877481Y-88118012D01*
X148877474Y-88118022D01*
X148789809Y-88252205D01*
X148745017Y-88293438D01*
X148686000Y-88308383D01*
X148626983Y-88293438D01*
X148582191Y-88252205D01*
X148494525Y-88118022D01*
X148494523Y-88118020D01*
X148491722Y-88113732D01*
X148400610Y-88014759D01*
X148342711Y-87951864D01*
X148342708Y-87951861D01*
X148339240Y-87948094D01*
X148326597Y-87938253D01*
X148165623Y-87812960D01*
X148165615Y-87812955D01*
X148161576Y-87809811D01*
X148157071Y-87807373D01*
X148157065Y-87807369D01*
X147968080Y-87705096D01*
X147968074Y-87705093D01*
X147963574Y-87702658D01*
X147958733Y-87700996D01*
X147958726Y-87700993D01*
X147755488Y-87631222D01*
X147755487Y-87631221D01*
X147750635Y-87629556D01*
X147745585Y-87628713D01*
X147745576Y-87628711D01*
X147533631Y-87593344D01*
X147533622Y-87593343D01*
X147528569Y-87592500D01*
X147303431Y-87592500D01*
X147298378Y-87593343D01*
X147298368Y-87593344D01*
X147086423Y-87628711D01*
X147086411Y-87628713D01*
X147081365Y-87629556D01*
X147076515Y-87631220D01*
X147076511Y-87631222D01*
X146873273Y-87700993D01*
X146873262Y-87700997D01*
X146868426Y-87702658D01*
X146863929Y-87705091D01*
X146863919Y-87705096D01*
X146674934Y-87807369D01*
X146674922Y-87807376D01*
X146670424Y-87809811D01*
X146666389Y-87812951D01*
X146666376Y-87812960D01*
X146496801Y-87944948D01*
X146496795Y-87944952D01*
X146492760Y-87948094D01*
X146489297Y-87951855D01*
X146489288Y-87951864D01*
X146343753Y-88109956D01*
X146343747Y-88109963D01*
X146340278Y-88113732D01*
X146337480Y-88118014D01*
X146337468Y-88118030D01*
X146246250Y-88257650D01*
X146202334Y-88298405D01*
X146144435Y-88313812D01*
X146086071Y-88300274D01*
X146040867Y-88260951D01*
X145917215Y-88084357D01*
X145910280Y-88076092D01*
X145750909Y-87916721D01*
X145742643Y-87909784D01*
X145558008Y-87780501D01*
X145548676Y-87775113D01*
X145344397Y-87679856D01*
X145334263Y-87676168D01*
X145139780Y-87624056D01*
X145128551Y-87623688D01*
X145126000Y-87634631D01*
X145126000Y-89077000D01*
X145109387Y-89139000D01*
X145064000Y-89184387D01*
X145002000Y-89201000D01*
X144750000Y-89201000D01*
X144688000Y-89184387D01*
X144642613Y-89139000D01*
X144626000Y-89077000D01*
X144626000Y-87634631D01*
X144623448Y-87623688D01*
X144612219Y-87624056D01*
X144417736Y-87676168D01*
X144407602Y-87679856D01*
X144203332Y-87775110D01*
X144193982Y-87780508D01*
X144009357Y-87909784D01*
X144001092Y-87916719D01*
X143975681Y-87942131D01*
X143926318Y-87972381D01*
X143868602Y-87976923D01*
X143815115Y-87954768D01*
X143777515Y-87910745D01*
X143764000Y-87854450D01*
X143764000Y-85780551D01*
X168598688Y-85780551D01*
X168599056Y-85791780D01*
X168651168Y-85986263D01*
X168654856Y-85996397D01*
X168750113Y-86200676D01*
X168755501Y-86210008D01*
X168884784Y-86394643D01*
X168891721Y-86402909D01*
X169051090Y-86562278D01*
X169059356Y-86569215D01*
X169243991Y-86698498D01*
X169253323Y-86703886D01*
X169457602Y-86799143D01*
X169467736Y-86802831D01*
X169662219Y-86854943D01*
X169673448Y-86855311D01*
X169676000Y-86844369D01*
X170176000Y-86844369D01*
X170178551Y-86855311D01*
X170189780Y-86854943D01*
X170384263Y-86802831D01*
X170394397Y-86799143D01*
X170598676Y-86703886D01*
X170608008Y-86698498D01*
X170792643Y-86569215D01*
X170800902Y-86562284D01*
X170912914Y-86450272D01*
X170965661Y-86418976D01*
X171026954Y-86416787D01*
X171081798Y-86444240D01*
X171116778Y-86494619D01*
X171142013Y-86562278D01*
X171165111Y-86624204D01*
X171252739Y-86741261D01*
X171369796Y-86828889D01*
X171506799Y-86879989D01*
X171567362Y-86886500D01*
X173361328Y-86886500D01*
X173364638Y-86886500D01*
X173425201Y-86879989D01*
X173562204Y-86828889D01*
X173679261Y-86741261D01*
X173766889Y-86624204D01*
X173817989Y-86487201D01*
X173824500Y-86426638D01*
X173824500Y-84629362D01*
X173817989Y-84568799D01*
X173766889Y-84431796D01*
X173679261Y-84314739D01*
X173562204Y-84227111D01*
X173553896Y-84224012D01*
X173553894Y-84224011D01*
X173432463Y-84178719D01*
X173432458Y-84178717D01*
X173425201Y-84176011D01*
X173417497Y-84175182D01*
X173417494Y-84175182D01*
X173367924Y-84169853D01*
X173367918Y-84169852D01*
X173364638Y-84169500D01*
X171567362Y-84169500D01*
X171564082Y-84169852D01*
X171564075Y-84169853D01*
X171514505Y-84175182D01*
X171514500Y-84175182D01*
X171506799Y-84176011D01*
X171499543Y-84178717D01*
X171499536Y-84178719D01*
X171378105Y-84224011D01*
X171378099Y-84224013D01*
X171369796Y-84227111D01*
X171362698Y-84232423D01*
X171362695Y-84232426D01*
X171259835Y-84309426D01*
X171259831Y-84309429D01*
X171252739Y-84314739D01*
X171247429Y-84321831D01*
X171247426Y-84321835D01*
X171170426Y-84424695D01*
X171170423Y-84424698D01*
X171165111Y-84431796D01*
X171162013Y-84440099D01*
X171162011Y-84440105D01*
X171116778Y-84561380D01*
X171081798Y-84611759D01*
X171026954Y-84639212D01*
X170965661Y-84637023D01*
X170912915Y-84605727D01*
X170800909Y-84493721D01*
X170792643Y-84486784D01*
X170608008Y-84357501D01*
X170598676Y-84352113D01*
X170394397Y-84256856D01*
X170384263Y-84253168D01*
X170189780Y-84201056D01*
X170178551Y-84200688D01*
X170176000Y-84211631D01*
X170176000Y-86844369D01*
X169676000Y-86844369D01*
X169676000Y-85794326D01*
X169672549Y-85781450D01*
X169659674Y-85778000D01*
X168609631Y-85778000D01*
X168598688Y-85780551D01*
X143764000Y-85780551D01*
X143764000Y-85275448D01*
X168598688Y-85275448D01*
X168609631Y-85278000D01*
X169659674Y-85278000D01*
X169672549Y-85274549D01*
X169676000Y-85261674D01*
X169676000Y-84211631D01*
X169673448Y-84200688D01*
X169662219Y-84201056D01*
X169467736Y-84253168D01*
X169457602Y-84256856D01*
X169253332Y-84352110D01*
X169243982Y-84357508D01*
X169059357Y-84486784D01*
X169051092Y-84493719D01*
X168891719Y-84653092D01*
X168884784Y-84661357D01*
X168755508Y-84845982D01*
X168750110Y-84855332D01*
X168654856Y-85059602D01*
X168651168Y-85069736D01*
X168599056Y-85264219D01*
X168598688Y-85275448D01*
X143764000Y-85275448D01*
X143764000Y-83874500D01*
X143780613Y-83812500D01*
X143826000Y-83767113D01*
X143888000Y-83750500D01*
X178401663Y-83750500D01*
X178412341Y-83750961D01*
G37*
G04 #@! TD.AperFunction*
G04 #@! TA.AperFunction,Conductor*
G36*
X138680818Y-108689993D02*
G01*
X138730181Y-108720243D01*
X140077136Y-110067198D01*
X140084738Y-110075551D01*
X140088842Y-110082018D01*
X140094532Y-110087361D01*
X140138509Y-110128658D01*
X140141307Y-110131369D01*
X140161072Y-110151134D01*
X140164326Y-110153658D01*
X140173209Y-110161244D01*
X140205521Y-110191586D01*
X140212359Y-110195345D01*
X140223410Y-110201421D01*
X140239672Y-110212103D01*
X140249630Y-110219827D01*
X140249634Y-110219829D01*
X140255801Y-110224613D01*
X140262961Y-110227711D01*
X140262964Y-110227713D01*
X140296456Y-110242206D01*
X140306949Y-110247346D01*
X140345782Y-110268695D01*
X140365560Y-110273773D01*
X140383962Y-110280074D01*
X140393839Y-110284347D01*
X140402697Y-110288181D01*
X140446463Y-110295112D01*
X140457883Y-110297477D01*
X140500812Y-110308500D01*
X140521227Y-110308500D01*
X140540625Y-110310027D01*
X140560785Y-110313220D01*
X140599318Y-110309577D01*
X140604900Y-110309050D01*
X140616569Y-110308500D01*
X148027659Y-110308500D01*
X148072097Y-110316736D01*
X148105499Y-110337205D01*
X148105747Y-110336866D01*
X148260248Y-110449118D01*
X148266181Y-110451759D01*
X148266182Y-110451760D01*
X148408756Y-110515238D01*
X148434712Y-110526794D01*
X148441070Y-110528145D01*
X148441072Y-110528146D01*
X148471784Y-110534674D01*
X148621513Y-110566500D01*
X148805984Y-110566500D01*
X148812487Y-110566500D01*
X148999288Y-110526794D01*
X149173752Y-110449118D01*
X149328253Y-110336866D01*
X149332600Y-110332037D01*
X149337429Y-110327690D01*
X149337978Y-110328299D01*
X149373874Y-110302220D01*
X149424309Y-110291500D01*
X152709622Y-110291500D01*
X152765917Y-110305015D01*
X152809940Y-110342615D01*
X152832095Y-110396102D01*
X152827553Y-110453818D01*
X152778465Y-110604892D01*
X152778463Y-110604901D01*
X152776458Y-110611072D01*
X152775780Y-110617522D01*
X152775778Y-110617532D01*
X152759019Y-110776994D01*
X152747619Y-110817416D01*
X152723380Y-110851713D01*
X152681914Y-110893180D01*
X152641685Y-110920061D01*
X152594232Y-110929500D01*
X140013767Y-110929500D01*
X139966314Y-110920061D01*
X139926086Y-110893181D01*
X138554819Y-109521914D01*
X138527939Y-109481686D01*
X138518500Y-109434233D01*
X138518500Y-108807924D01*
X138532015Y-108751629D01*
X138569615Y-108707606D01*
X138623102Y-108685451D01*
X138680818Y-108689993D01*
G37*
G04 #@! TD.AperFunction*
G04 #@! TA.AperFunction,Conductor*
G36*
X154106531Y-102048883D02*
G01*
X154149758Y-102083558D01*
X154173563Y-102133601D01*
X154173193Y-102189016D01*
X154169572Y-102204335D01*
X154164353Y-102252885D01*
X154164000Y-102259482D01*
X154164000Y-102787674D01*
X154167450Y-102800549D01*
X154180326Y-102804000D01*
X155290000Y-102804000D01*
X155352000Y-102820613D01*
X155397387Y-102866000D01*
X155414000Y-102928000D01*
X155414000Y-103180000D01*
X155397387Y-103242000D01*
X155352000Y-103287387D01*
X155290000Y-103304000D01*
X154180326Y-103304000D01*
X154167450Y-103307450D01*
X154164000Y-103320326D01*
X154164000Y-103848518D01*
X154164353Y-103855114D01*
X154169573Y-103903667D01*
X154173111Y-103918641D01*
X154217547Y-104037777D01*
X154225962Y-104053189D01*
X154301498Y-104154092D01*
X154313907Y-104166501D01*
X154414810Y-104242037D01*
X154430222Y-104250452D01*
X154507421Y-104279246D01*
X154558569Y-104315120D01*
X154585734Y-104371381D01*
X154582019Y-104433745D01*
X154556466Y-104512389D01*
X154556465Y-104512396D01*
X154554458Y-104518572D01*
X154553780Y-104525022D01*
X154553778Y-104525032D01*
X154540077Y-104655396D01*
X154534496Y-104708500D01*
X154535175Y-104714960D01*
X154553778Y-104891967D01*
X154553779Y-104891975D01*
X154554458Y-104898428D01*
X154556463Y-104904600D01*
X154556465Y-104904607D01*
X154598317Y-105033412D01*
X154613473Y-105080056D01*
X154616720Y-105085680D01*
X154616721Y-105085682D01*
X154668833Y-105175943D01*
X154685402Y-105234623D01*
X154671998Y-105294106D01*
X154631863Y-105340009D01*
X154574701Y-105361232D01*
X154534340Y-105365571D01*
X154519358Y-105369111D01*
X154400222Y-105413547D01*
X154384810Y-105421962D01*
X154283907Y-105497498D01*
X154271498Y-105509907D01*
X154195962Y-105610810D01*
X154187547Y-105626222D01*
X154143111Y-105745358D01*
X154139573Y-105760332D01*
X154134353Y-105808885D01*
X154134000Y-105815482D01*
X154134000Y-106343674D01*
X154137450Y-106356549D01*
X154150326Y-106360000D01*
X155260000Y-106360000D01*
X155322000Y-106376613D01*
X155367387Y-106422000D01*
X155384000Y-106484000D01*
X155384000Y-106736000D01*
X155367387Y-106798000D01*
X155322000Y-106843387D01*
X155260000Y-106860000D01*
X154150326Y-106860000D01*
X154137450Y-106863450D01*
X154134000Y-106876326D01*
X154134000Y-107404518D01*
X154134353Y-107411114D01*
X154139573Y-107459667D01*
X154143111Y-107474641D01*
X154178741Y-107570167D01*
X154185592Y-107628954D01*
X154164415Y-107684220D01*
X154120034Y-107723376D01*
X154062559Y-107737500D01*
X147374341Y-107737500D01*
X147329903Y-107729264D01*
X147296500Y-107708794D01*
X147296253Y-107709134D01*
X147291932Y-107705994D01*
X147291926Y-107705990D01*
X147256787Y-107680460D01*
X147147006Y-107600699D01*
X147147004Y-107600697D01*
X147141752Y-107596882D01*
X147135821Y-107594241D01*
X147135817Y-107594239D01*
X146973226Y-107521849D01*
X146973219Y-107521846D01*
X146967288Y-107519206D01*
X146960935Y-107517855D01*
X146960927Y-107517853D01*
X146786849Y-107480852D01*
X146786846Y-107480851D01*
X146780487Y-107479500D01*
X146589513Y-107479500D01*
X146583154Y-107480851D01*
X146583150Y-107480852D01*
X146409072Y-107517853D01*
X146409061Y-107517856D01*
X146402712Y-107519206D01*
X146396782Y-107521845D01*
X146396773Y-107521849D01*
X146234182Y-107594239D01*
X146234174Y-107594243D01*
X146228248Y-107596882D01*
X146222999Y-107600695D01*
X146222993Y-107600699D01*
X146079000Y-107705316D01*
X146078991Y-107705323D01*
X146073747Y-107709134D01*
X146069402Y-107713958D01*
X146064571Y-107718310D01*
X146064021Y-107717700D01*
X146028126Y-107743780D01*
X145977691Y-107754500D01*
X143139678Y-107754500D01*
X143081463Y-107739985D01*
X143036877Y-107699839D01*
X143016357Y-107643461D01*
X143006542Y-107550072D01*
X143004726Y-107544485D01*
X143005439Y-107490055D01*
X143029646Y-107440965D01*
X143072629Y-107407080D01*
X143126013Y-107395000D01*
X143217984Y-107395000D01*
X143224487Y-107395000D01*
X143411288Y-107355294D01*
X143585752Y-107277618D01*
X143740253Y-107165366D01*
X143868040Y-107023444D01*
X143963527Y-106858056D01*
X144022542Y-106676428D01*
X144042504Y-106486500D01*
X144027493Y-106343674D01*
X144023221Y-106303032D01*
X144023220Y-106303031D01*
X144022542Y-106296572D01*
X143963527Y-106114944D01*
X143868040Y-105949556D01*
X143740253Y-105807634D01*
X143735003Y-105803819D01*
X143734999Y-105803816D01*
X143591006Y-105699199D01*
X143591004Y-105699197D01*
X143585752Y-105695382D01*
X143579819Y-105692740D01*
X143579813Y-105692737D01*
X143547185Y-105678210D01*
X143495428Y-105635164D01*
X143473791Y-105571418D01*
X143488649Y-105505760D01*
X143535625Y-105457542D01*
X143538957Y-105455617D01*
X143544896Y-105452974D01*
X143699397Y-105340722D01*
X143827184Y-105198800D01*
X143922671Y-105033412D01*
X143981686Y-104851784D01*
X144001648Y-104661856D01*
X143981686Y-104471928D01*
X143922671Y-104290300D01*
X143827184Y-104124912D01*
X143734045Y-104021471D01*
X143706764Y-103971846D01*
X143704392Y-103915265D01*
X143727426Y-103863530D01*
X143771061Y-103827432D01*
X143826196Y-103814500D01*
X146219076Y-103814500D01*
X146266529Y-103823939D01*
X146306757Y-103850819D01*
X147566136Y-105110198D01*
X147573738Y-105118551D01*
X147577842Y-105125018D01*
X147627509Y-105171658D01*
X147630307Y-105174369D01*
X147650072Y-105194134D01*
X147653326Y-105196658D01*
X147662209Y-105204244D01*
X147694521Y-105234586D01*
X147701359Y-105238345D01*
X147712410Y-105244421D01*
X147728672Y-105255103D01*
X147738630Y-105262827D01*
X147738634Y-105262829D01*
X147744801Y-105267613D01*
X147751961Y-105270711D01*
X147751964Y-105270713D01*
X147785456Y-105285206D01*
X147795949Y-105290346D01*
X147834782Y-105311695D01*
X147854560Y-105316773D01*
X147872962Y-105323074D01*
X147882839Y-105327347D01*
X147891697Y-105331181D01*
X147935463Y-105338112D01*
X147946883Y-105340477D01*
X147989812Y-105351500D01*
X148010227Y-105351500D01*
X148029625Y-105353027D01*
X148049785Y-105356220D01*
X148088318Y-105352577D01*
X148093900Y-105352050D01*
X148105569Y-105351500D01*
X150216633Y-105351500D01*
X150278633Y-105368113D01*
X150324020Y-105413500D01*
X150384825Y-105518819D01*
X150390960Y-105529444D01*
X150518747Y-105671366D01*
X150523997Y-105675180D01*
X150524000Y-105675183D01*
X150620588Y-105745358D01*
X150673248Y-105783618D01*
X150847712Y-105861294D01*
X150854070Y-105862645D01*
X150854072Y-105862646D01*
X150890874Y-105870468D01*
X151034513Y-105901000D01*
X151218984Y-105901000D01*
X151225487Y-105901000D01*
X151412288Y-105861294D01*
X151586752Y-105783618D01*
X151741253Y-105671366D01*
X151869040Y-105529444D01*
X151964527Y-105364056D01*
X151990477Y-105284188D01*
X152020730Y-105234822D01*
X152067443Y-105206201D01*
X152067424Y-105206158D01*
X152067423Y-105206158D01*
X152241888Y-105128482D01*
X152396389Y-105016230D01*
X152524176Y-104874308D01*
X152619663Y-104708920D01*
X152678678Y-104527292D01*
X152698640Y-104337364D01*
X152684086Y-104198887D01*
X152679357Y-104153896D01*
X152679356Y-104153895D01*
X152678678Y-104147436D01*
X152619663Y-103965808D01*
X152524176Y-103800420D01*
X152396389Y-103658498D01*
X152391139Y-103654683D01*
X152391135Y-103654680D01*
X152247142Y-103550063D01*
X152247140Y-103550061D01*
X152241888Y-103546246D01*
X152235957Y-103543605D01*
X152235953Y-103543603D01*
X152073362Y-103471213D01*
X152073355Y-103471210D01*
X152067424Y-103468570D01*
X152061071Y-103467219D01*
X152061063Y-103467217D01*
X151886985Y-103430216D01*
X151886982Y-103430215D01*
X151880623Y-103428864D01*
X151689649Y-103428864D01*
X151683290Y-103430215D01*
X151683286Y-103430216D01*
X151509198Y-103467220D01*
X151509195Y-103467220D01*
X151508216Y-103467428D01*
X151508215Y-103467429D01*
X151502848Y-103468570D01*
X151502667Y-103467719D01*
X151444525Y-103470761D01*
X151387339Y-103441620D01*
X151352384Y-103387791D01*
X151329527Y-103317444D01*
X151234040Y-103152056D01*
X151160349Y-103070214D01*
X151136736Y-103031681D01*
X151128500Y-102987243D01*
X151128500Y-102237835D01*
X151129031Y-102226560D01*
X151130701Y-102219091D01*
X151128981Y-102164395D01*
X151144259Y-102100763D01*
X151189800Y-102053768D01*
X151252921Y-102036500D01*
X154052516Y-102036500D01*
X154106531Y-102048883D01*
G37*
G04 #@! TD.AperFunction*
G04 #@! TA.AperFunction,Conductor*
G36*
X167373687Y-102045939D02*
G01*
X167413915Y-102072819D01*
X168979378Y-103638282D01*
X169003617Y-103672579D01*
X169015018Y-103713001D01*
X169024733Y-103805426D01*
X169032458Y-103878928D01*
X169034463Y-103885100D01*
X169034465Y-103885107D01*
X169089077Y-104053182D01*
X169093619Y-104110898D01*
X169071464Y-104164385D01*
X169027441Y-104201985D01*
X168971146Y-104215500D01*
X164841500Y-104215500D01*
X164779500Y-104198887D01*
X164734113Y-104153500D01*
X164717500Y-104091500D01*
X164717500Y-103628757D01*
X164725736Y-103584319D01*
X164749350Y-103545785D01*
X164751315Y-103543603D01*
X164823040Y-103463944D01*
X164918527Y-103298556D01*
X164977542Y-103116928D01*
X164997504Y-102927000D01*
X164982846Y-102787540D01*
X164978221Y-102743532D01*
X164978220Y-102743531D01*
X164977542Y-102737072D01*
X164918527Y-102555444D01*
X164823040Y-102390056D01*
X164698801Y-102252075D01*
X164695253Y-102248134D01*
X164695829Y-102247614D01*
X164666001Y-102203717D01*
X164659204Y-102144954D01*
X164680405Y-102089729D01*
X164724779Y-102050610D01*
X164782226Y-102036500D01*
X167326234Y-102036500D01*
X167373687Y-102045939D01*
G37*
G04 #@! TD.AperFunction*
G04 #@! TA.AperFunction,Conductor*
G36*
X151354687Y-98726939D02*
G01*
X151394915Y-98753819D01*
X151779605Y-99138509D01*
X151810346Y-99189418D01*
X151813848Y-99248784D01*
X151789306Y-99302954D01*
X151742364Y-99339467D01*
X151730674Y-99344672D01*
X151730662Y-99344678D01*
X151724732Y-99347319D01*
X151719483Y-99351132D01*
X151719477Y-99351136D01*
X151575484Y-99455753D01*
X151575475Y-99455760D01*
X151570231Y-99459571D01*
X151565887Y-99464394D01*
X151565884Y-99464398D01*
X151478969Y-99560928D01*
X151442444Y-99601493D01*
X151439198Y-99607113D01*
X151439195Y-99607119D01*
X151350205Y-99761254D01*
X151350202Y-99761259D01*
X151346957Y-99766881D01*
X151344951Y-99773053D01*
X151344949Y-99773059D01*
X151289949Y-99942329D01*
X151289947Y-99942338D01*
X151287942Y-99948509D01*
X151287264Y-99954959D01*
X151287262Y-99954969D01*
X151284586Y-99980435D01*
X151267980Y-100138437D01*
X151268659Y-100144897D01*
X151287262Y-100321904D01*
X151287263Y-100321912D01*
X151287942Y-100328365D01*
X151289947Y-100334537D01*
X151289949Y-100334544D01*
X151338854Y-100485056D01*
X151346957Y-100509993D01*
X151350204Y-100515617D01*
X151350205Y-100515619D01*
X151389396Y-100583500D01*
X151406009Y-100645500D01*
X151389396Y-100707500D01*
X151344009Y-100752887D01*
X151282009Y-100769500D01*
X149819030Y-100769500D01*
X149798615Y-100769500D01*
X149779217Y-100767973D01*
X149766766Y-100766001D01*
X149759057Y-100764780D01*
X149751291Y-100765514D01*
X149751288Y-100765514D01*
X149714942Y-100768950D01*
X149703273Y-100769500D01*
X146134925Y-100769500D01*
X146087472Y-100760061D01*
X146047244Y-100733181D01*
X144814819Y-99500756D01*
X144787939Y-99460528D01*
X144778500Y-99413075D01*
X144778500Y-99278262D01*
X144790579Y-99224879D01*
X144824464Y-99181896D01*
X144873553Y-99157688D01*
X144928281Y-99156972D01*
X144967273Y-99165260D01*
X145151744Y-99165260D01*
X145158247Y-99165260D01*
X145345048Y-99125554D01*
X145519512Y-99047878D01*
X145674013Y-98935626D01*
X145801800Y-98793704D01*
X145810001Y-98779498D01*
X145855389Y-98734112D01*
X145917388Y-98717500D01*
X151307234Y-98717500D01*
X151354687Y-98726939D01*
G37*
G04 #@! TD.AperFunction*
G04 #@! TA.AperFunction,Conductor*
G36*
X166992687Y-96711939D02*
G01*
X167032915Y-96738819D01*
X169327914Y-99033819D01*
X169358164Y-99083182D01*
X169362706Y-99140898D01*
X169340551Y-99194385D01*
X169296528Y-99231985D01*
X169240233Y-99245500D01*
X154123309Y-99245500D01*
X154072874Y-99234780D01*
X154036978Y-99208700D01*
X154036429Y-99209310D01*
X154031598Y-99204960D01*
X154027253Y-99200134D01*
X154022003Y-99196319D01*
X154021999Y-99196316D01*
X153878006Y-99091699D01*
X153878004Y-99091697D01*
X153872752Y-99087882D01*
X153866821Y-99085241D01*
X153866817Y-99085239D01*
X153704226Y-99012849D01*
X153704219Y-99012846D01*
X153698288Y-99010206D01*
X153691935Y-99008855D01*
X153691927Y-99008853D01*
X153517849Y-98971852D01*
X153517846Y-98971851D01*
X153511487Y-98970500D01*
X153504984Y-98970500D01*
X153454767Y-98970500D01*
X153407314Y-98961061D01*
X153367086Y-98934181D01*
X152124695Y-97691790D01*
X152117103Y-97683448D01*
X152113000Y-97676982D01*
X152063316Y-97630326D01*
X152060550Y-97627645D01*
X152043527Y-97610622D01*
X152040770Y-97607865D01*
X152037486Y-97605317D01*
X152028624Y-97597746D01*
X152002009Y-97572754D01*
X152002003Y-97572749D01*
X151996321Y-97567414D01*
X151989488Y-97563658D01*
X151989482Y-97563653D01*
X151978429Y-97557576D01*
X151962174Y-97546899D01*
X151952209Y-97539170D01*
X151952206Y-97539168D01*
X151946041Y-97534386D01*
X151905376Y-97516789D01*
X151894884Y-97511649D01*
X151862896Y-97494063D01*
X151862894Y-97494062D01*
X151856060Y-97490305D01*
X151836284Y-97485227D01*
X151817881Y-97478926D01*
X151806309Y-97473918D01*
X151806301Y-97473915D01*
X151799145Y-97470819D01*
X151791440Y-97469598D01*
X151791438Y-97469598D01*
X151755381Y-97463887D01*
X151743955Y-97461521D01*
X151701030Y-97450500D01*
X151693228Y-97450500D01*
X151680615Y-97450500D01*
X151661217Y-97448973D01*
X151648766Y-97447001D01*
X151641057Y-97445780D01*
X151633291Y-97446514D01*
X151633288Y-97446514D01*
X151596942Y-97449950D01*
X151585273Y-97450500D01*
X146063686Y-97450500D01*
X146001686Y-97433887D01*
X145956299Y-97388500D01*
X145939686Y-97326499D01*
X145956298Y-97264502D01*
X145995527Y-97196556D01*
X146054542Y-97014928D01*
X146074504Y-96825000D01*
X146074425Y-96824257D01*
X146090438Y-96764500D01*
X146135825Y-96719113D01*
X146197825Y-96702500D01*
X166945234Y-96702500D01*
X166992687Y-96711939D01*
G37*
G04 #@! TD.AperFunction*
G04 #@! TD*
M02*
