G04 #@! TF.GenerationSoftware,KiCad,Pcbnew,7.0.0-da2b9df05c~163~ubuntu22.04.1*
G04 #@! TF.CreationDate,2023-02-25T14:43:30+01:00*
G04 #@! TF.ProjectId,metering_board,6d657465-7269-46e6-975f-626f6172642e,rev?*
G04 #@! TF.SameCoordinates,Original*
G04 #@! TF.FileFunction,Soldermask,Top*
G04 #@! TF.FilePolarity,Negative*
%FSLAX46Y46*%
G04 Gerber Fmt 4.6, Leading zero omitted, Abs format (unit mm)*
G04 Created by KiCad (PCBNEW 7.0.0-da2b9df05c~163~ubuntu22.04.1) date 2023-02-25 14:43:30*
%MOMM*%
%LPD*%
G01*
G04 APERTURE LIST*
G04 Aperture macros list*
%AMRoundRect*
0 Rectangle with rounded corners*
0 $1 Rounding radius*
0 $2 $3 $4 $5 $6 $7 $8 $9 X,Y pos of 4 corners*
0 Add a 4 corners polygon primitive as box body*
4,1,4,$2,$3,$4,$5,$6,$7,$8,$9,$2,$3,0*
0 Add four circle primitives for the rounded corners*
1,1,$1+$1,$2,$3*
1,1,$1+$1,$4,$5*
1,1,$1+$1,$6,$7*
1,1,$1+$1,$8,$9*
0 Add four rect primitives between the rounded corners*
20,1,$1+$1,$2,$3,$4,$5,0*
20,1,$1+$1,$4,$5,$6,$7,0*
20,1,$1+$1,$6,$7,$8,$9,0*
20,1,$1+$1,$8,$9,$2,$3,0*%
G04 Aperture macros list end*
%ADD10RoundRect,0.237500X0.250000X0.237500X-0.250000X0.237500X-0.250000X-0.237500X0.250000X-0.237500X0*%
%ADD11RoundRect,0.237500X-0.237500X0.300000X-0.237500X-0.300000X0.237500X-0.300000X0.237500X0.300000X0*%
%ADD12RoundRect,0.237500X-0.250000X-0.237500X0.250000X-0.237500X0.250000X0.237500X-0.250000X0.237500X0*%
%ADD13RoundRect,0.237500X-0.300000X-0.237500X0.300000X-0.237500X0.300000X0.237500X-0.300000X0.237500X0*%
%ADD14RoundRect,0.237500X0.237500X-0.300000X0.237500X0.300000X-0.237500X0.300000X-0.237500X-0.300000X0*%
%ADD15RoundRect,0.075000X-0.662500X-0.075000X0.662500X-0.075000X0.662500X0.075000X-0.662500X0.075000X0*%
%ADD16RoundRect,0.075000X-0.075000X-0.662500X0.075000X-0.662500X0.075000X0.662500X-0.075000X0.662500X0*%
%ADD17R,1.700000X1.700000*%
%ADD18O,1.700000X1.700000*%
%ADD19RoundRect,0.237500X-0.237500X0.250000X-0.237500X-0.250000X0.237500X-0.250000X0.237500X0.250000X0*%
%ADD20RoundRect,0.237500X0.300000X0.237500X-0.300000X0.237500X-0.300000X-0.237500X0.300000X-0.237500X0*%
%ADD21R,1.150000X1.000000*%
%ADD22C,1.000000*%
%ADD23RoundRect,0.137500X-0.662500X-0.137500X0.662500X-0.137500X0.662500X0.137500X-0.662500X0.137500X0*%
G04 APERTURE END LIST*
D10*
G04 #@! TO.C,R52*
X156360500Y-101149000D03*
X154535500Y-101149000D03*
G04 #@! TD*
D11*
G04 #@! TO.C,C17*
X129667000Y-91269500D03*
X129667000Y-92994500D03*
G04 #@! TD*
D12*
G04 #@! TO.C,R37*
X147931500Y-95942000D03*
X149756500Y-95942000D03*
G04 #@! TD*
D13*
G04 #@! TO.C,C32*
X151537500Y-95942000D03*
X153262500Y-95942000D03*
G04 #@! TD*
D14*
G04 #@! TO.C,C9*
X160020000Y-110520500D03*
X160020000Y-108795500D03*
G04 #@! TD*
D13*
G04 #@! TO.C,C24*
X143536500Y-101657000D03*
X145261500Y-101657000D03*
G04 #@! TD*
D15*
G04 #@! TO.C,IC2*
X145316500Y-103860000D03*
X145316500Y-104360000D03*
X145316500Y-104860000D03*
X145316500Y-105360000D03*
X145316500Y-105860000D03*
X145316500Y-106360000D03*
X145316500Y-106860000D03*
X145316500Y-107360000D03*
X145316500Y-107860000D03*
X145316500Y-108360000D03*
X145316500Y-108860000D03*
X145316500Y-109360000D03*
D16*
X146729000Y-110772500D03*
X147229000Y-110772500D03*
X147729000Y-110772500D03*
X148229000Y-110772500D03*
X148729000Y-110772500D03*
X149229000Y-110772500D03*
X149729000Y-110772500D03*
X150229000Y-110772500D03*
X150729000Y-110772500D03*
X151229000Y-110772500D03*
X151729000Y-110772500D03*
X152229000Y-110772500D03*
D15*
X153641500Y-109360000D03*
X153641500Y-108860000D03*
X153641500Y-108360000D03*
X153641500Y-107860000D03*
X153641500Y-107360000D03*
X153641500Y-106860000D03*
X153641500Y-106360000D03*
X153641500Y-105860000D03*
X153641500Y-105360000D03*
X153641500Y-104860000D03*
X153641500Y-104360000D03*
X153641500Y-103860000D03*
D16*
X152229000Y-102447500D03*
X151729000Y-102447500D03*
X151229000Y-102447500D03*
X150729000Y-102447500D03*
X150229000Y-102447500D03*
X149729000Y-102447500D03*
X149229000Y-102447500D03*
X148729000Y-102447500D03*
X148229000Y-102447500D03*
X147729000Y-102447500D03*
X147229000Y-102447500D03*
X146729000Y-102447500D03*
G04 #@! TD*
D17*
G04 #@! TO.C,J12*
X172465999Y-85527999D03*
D18*
X169925999Y-85527999D03*
G04 #@! TD*
D19*
G04 #@! TO.C,R36*
X150241000Y-113190500D03*
X150241000Y-115015500D03*
G04 #@! TD*
D10*
G04 #@! TO.C,R53*
X177950500Y-90354000D03*
X176125500Y-90354000D03*
G04 #@! TD*
D14*
G04 #@! TO.C,C31*
X151892000Y-114965500D03*
X151892000Y-113240500D03*
G04 #@! TD*
D10*
G04 #@! TO.C,R56*
X177950500Y-92005000D03*
X176125500Y-92005000D03*
G04 #@! TD*
D14*
G04 #@! TO.C,C14*
X168148000Y-99852500D03*
X168148000Y-98127500D03*
G04 #@! TD*
D20*
G04 #@! TO.C,C11*
X166470500Y-99879000D03*
X164745500Y-99879000D03*
G04 #@! TD*
D21*
G04 #@! TO.C,Y1*
X174638999Y-114294999D03*
X176388999Y-114294999D03*
X176388999Y-112894999D03*
X174638999Y-112894999D03*
G04 #@! TD*
D17*
G04 #@! TO.C,J8*
X124967999Y-88574999D03*
D18*
X124967999Y-91114999D03*
X124967999Y-93654999D03*
X124967999Y-96194999D03*
X124967999Y-98734999D03*
X124967999Y-101274999D03*
X124967999Y-103814999D03*
X124967999Y-106354999D03*
X124967999Y-108894999D03*
X124967999Y-111434999D03*
G04 #@! TD*
D13*
G04 #@! TO.C,C16*
X170841500Y-95942000D03*
X172566500Y-95942000D03*
G04 #@! TD*
D14*
G04 #@! TO.C,C25*
X141351000Y-110547000D03*
X141351000Y-108822000D03*
G04 #@! TD*
D21*
G04 #@! TO.C,Y2*
X154953999Y-114294999D03*
X156703999Y-114294999D03*
X156703999Y-112894999D03*
X154953999Y-112894999D03*
G04 #@! TD*
D13*
G04 #@! TO.C,C8*
X162840500Y-101784000D03*
X164565500Y-101784000D03*
G04 #@! TD*
D14*
G04 #@! TO.C,C30*
X148844000Y-99852500D03*
X148844000Y-98127500D03*
G04 #@! TD*
D22*
G04 #@! TO.C,TP2*
X177546000Y-102038000D03*
G04 #@! TD*
D10*
G04 #@! TO.C,R55*
X177950500Y-93656000D03*
X176125500Y-93656000D03*
G04 #@! TD*
D14*
G04 #@! TO.C,C26*
X143510000Y-114965500D03*
X143510000Y-113240500D03*
G04 #@! TD*
G04 #@! TO.C,C10*
X162814000Y-114965500D03*
X162814000Y-113240500D03*
G04 #@! TD*
D15*
G04 #@! TO.C,IC1*
X164620500Y-103860000D03*
X164620500Y-104360000D03*
X164620500Y-104860000D03*
X164620500Y-105360000D03*
X164620500Y-105860000D03*
X164620500Y-106360000D03*
X164620500Y-106860000D03*
X164620500Y-107360000D03*
X164620500Y-107860000D03*
X164620500Y-108360000D03*
X164620500Y-108860000D03*
X164620500Y-109360000D03*
D16*
X166033000Y-110772500D03*
X166533000Y-110772500D03*
X167033000Y-110772500D03*
X167533000Y-110772500D03*
X168033000Y-110772500D03*
X168533000Y-110772500D03*
X169033000Y-110772500D03*
X169533000Y-110772500D03*
X170033000Y-110772500D03*
X170533000Y-110772500D03*
X171033000Y-110772500D03*
X171533000Y-110772500D03*
D15*
X172945500Y-109360000D03*
X172945500Y-108860000D03*
X172945500Y-108360000D03*
X172945500Y-107860000D03*
X172945500Y-107360000D03*
X172945500Y-106860000D03*
X172945500Y-106360000D03*
X172945500Y-105860000D03*
X172945500Y-105360000D03*
X172945500Y-104860000D03*
X172945500Y-104360000D03*
X172945500Y-103860000D03*
D16*
X171533000Y-102447500D03*
X171033000Y-102447500D03*
X170533000Y-102447500D03*
X170033000Y-102447500D03*
X169533000Y-102447500D03*
X169033000Y-102447500D03*
X168533000Y-102447500D03*
X168033000Y-102447500D03*
X167533000Y-102447500D03*
X167033000Y-102447500D03*
X166533000Y-102447500D03*
X166033000Y-102447500D03*
G04 #@! TD*
D22*
G04 #@! TO.C,TP11*
X158623000Y-106737000D03*
G04 #@! TD*
D14*
G04 #@! TO.C,C29*
X150495000Y-99852500D03*
X150495000Y-98127500D03*
G04 #@! TD*
D19*
G04 #@! TO.C,R17*
X165481000Y-113190500D03*
X165481000Y-115015500D03*
G04 #@! TD*
D14*
G04 #@! TO.C,C7*
X161671000Y-110520500D03*
X161671000Y-108795500D03*
G04 #@! TD*
D17*
G04 #@! TO.C,J7*
X177418999Y-105100999D03*
D18*
X177418999Y-107640999D03*
X177418999Y-110180999D03*
G04 #@! TD*
D17*
G04 #@! TO.C,J11*
X137159999Y-109022999D03*
D18*
X137159999Y-111562999D03*
X137159999Y-114102999D03*
G04 #@! TD*
D14*
G04 #@! TO.C,C28*
X147828000Y-114965500D03*
X147828000Y-113240500D03*
G04 #@! TD*
G04 #@! TO.C,C12*
X167132000Y-114965500D03*
X167132000Y-113240500D03*
G04 #@! TD*
D19*
G04 #@! TO.C,R34*
X141859000Y-113190500D03*
X141859000Y-115015500D03*
G04 #@! TD*
G04 #@! TO.C,R18*
X169545000Y-113190500D03*
X169545000Y-115015500D03*
G04 #@! TD*
D22*
G04 #@! TO.C,TP6*
X177546000Y-99498000D03*
G04 #@! TD*
D14*
G04 #@! TO.C,C13*
X169799000Y-99852500D03*
X169799000Y-98127500D03*
G04 #@! TD*
G04 #@! TO.C,C23*
X143002000Y-110547000D03*
X143002000Y-108822000D03*
G04 #@! TD*
D10*
G04 #@! TO.C,R54*
X177950500Y-88703000D03*
X176125500Y-88703000D03*
G04 #@! TD*
D11*
G04 #@! TO.C,C18*
X138557000Y-93682500D03*
X138557000Y-95407500D03*
G04 #@! TD*
D23*
G04 #@! TO.C,U5*
X129719000Y-95555000D03*
X129719000Y-96825000D03*
X129719000Y-98095000D03*
X129719000Y-99365000D03*
X129719000Y-100635000D03*
X129719000Y-101905000D03*
X129719000Y-103175000D03*
X129719000Y-104445000D03*
X136219000Y-104445000D03*
X136219000Y-103175000D03*
X136219000Y-101905000D03*
X136219000Y-100635000D03*
X136219000Y-99365000D03*
X136219000Y-98095000D03*
X136219000Y-96825000D03*
X136219000Y-95555000D03*
G04 #@! TD*
D19*
G04 #@! TO.C,R16*
X161163000Y-113190500D03*
X161163000Y-115015500D03*
G04 #@! TD*
D20*
G04 #@! TO.C,C27*
X147166500Y-99879000D03*
X145441500Y-99879000D03*
G04 #@! TD*
D19*
G04 #@! TO.C,R35*
X146177000Y-113190500D03*
X146177000Y-115015500D03*
G04 #@! TD*
D12*
G04 #@! TO.C,R19*
X167235500Y-95942000D03*
X169060500Y-95942000D03*
G04 #@! TD*
D22*
G04 #@! TO.C,TP15*
X156210000Y-106737000D03*
G04 #@! TD*
D14*
G04 #@! TO.C,C15*
X171196000Y-114965500D03*
X171196000Y-113240500D03*
G04 #@! TD*
D17*
G04 #@! TO.C,J10*
X165195999Y-91490999D03*
D18*
X165195999Y-88950999D03*
X162655999Y-91490999D03*
X162655999Y-88950999D03*
X160115999Y-91490999D03*
X160115999Y-88950999D03*
X157575999Y-91490999D03*
X157575999Y-88950999D03*
X155035999Y-91490999D03*
X155035999Y-88950999D03*
X152495999Y-91490999D03*
X152495999Y-88950999D03*
X149955999Y-91490999D03*
X149955999Y-88950999D03*
X147415999Y-91490999D03*
X147415999Y-88950999D03*
X144875999Y-91490999D03*
X144875999Y-88950999D03*
X142335999Y-91490999D03*
X142335999Y-88950999D03*
G04 #@! TD*
M02*
