M48
; DRILL file {KiCad 7.0.0-da2b9df05c~163~ubuntu22.04.1} date Sat Feb 25 14:43:30 2023
; FORMAT={-:-/ absolute / metric / decimal}
; #@! TF.CreationDate,2023-02-25T14:43:30+01:00
; #@! TF.GenerationSoftware,Kicad,Pcbnew,7.0.0-da2b9df05c~163~ubuntu22.04.1
; #@! TF.FileFunction,MixedPlating,1,2
FMAT,2
METRIC
; #@! TA.AperFunction,Plated,PTH,ViaDrill
T1C0.400
; #@! TA.AperFunction,Plated,PTH,ComponentDrill
T2C1.000
%
G90
G05
T1
X127.635Y-93.656
X127.635Y-106.356
X127.762Y-89.592
X129.667Y-88.957
X137.16Y-93.656
X137.601Y-102.529
X138.049Y-104.451
X138.43Y-101.403
X139.319Y-109.785
X139.954Y-93.656
X140.589Y-114.992
X141.478Y-106.737
X141.986Y-104.578
X142.113Y-107.74
X142.178Y-105.656
X142.494Y-99.371
X142.494Y-100.635
X142.494Y-103.181
X143.088Y-104.662
X143.129Y-106.486
X144.907Y-114.992
X145.063Y-98.257
X145.094Y-110.53
X145.161Y-96.825
X146.304Y-85.528
X146.685Y-108.388
X147.066Y-105.086
X147.066Y-107.245
X147.193Y-98.736
X147.701Y-97.339
X147.701Y-109.023
X148.717Y-109.658
X148.844Y-97.085
X149.031Y-85.511
X149.098Y-114.992
X149.733Y-107.245
X150.495Y-97.085
X150.495Y-103.689
X150.749Y-90.227
X151.13Y-104.992
X151.444Y-85.511
X151.785Y-104.337
X152.146Y-105.848
X152.181Y-100.138
X153.289Y-114.992
X153.416Y-99.879
X153.603Y-103.037
X153.67Y-110.801
X153.67Y-112.706
X153.857Y-85.511
X153.924Y-97.974
X155.194Y-103.054
X155.321Y-110.801
X155.448Y-104.709
X156.27Y-85.511
X156.27Y-94.655
X156.338Y-103.07
X157.226Y-97.974
X157.428Y-102.054
X158.242Y-94.943
X158.683Y-85.511
X158.81Y-110.53
X159.893Y-114.992
X160.207Y-93.639
X160.207Y-97.957
X160.909Y-106.61
X161.096Y-85.511
X163.001Y-110.53
X163.576Y-97.974
X163.763Y-85.511
X164.084Y-102.927
X164.211Y-114.992
X165.033Y-93.512
X166.116Y-108.355
X166.37Y-107.118
X166.43Y-85.511
X166.533Y-103.926
X166.751Y-98.228
X167.033Y-109.006
X168.021Y-109.531
X168.275Y-94.943
X168.402Y-114.992
X169.037Y-108.879
X169.799Y-96.958
X169.926Y-103.689
X170.852Y-103.702
X171.069Y-88.957
X171.124Y-101.077
X171.323Y-109.023
X171.577Y-107.377
X172.212Y-101.022
X172.593Y-94.545
X172.593Y-97.212
X172.593Y-114.992
X173.228Y-102.927
X173.355Y-112.833
X174.498Y-104.832
X175.133Y-110.674
X176.784Y-97.847
X177.546Y-96.069
X177.86Y-114.34
T2
X124.968Y-88.575
X124.968Y-91.115
X124.968Y-93.655
X124.968Y-96.195
X124.968Y-98.735
X124.968Y-101.275
X124.968Y-103.815
X124.968Y-106.355
X124.968Y-108.895
X124.968Y-111.435
X137.16Y-109.023
X137.16Y-111.563
X137.16Y-114.103
X142.336Y-88.951
X142.336Y-91.491
X144.876Y-88.951
X144.876Y-91.491
X147.416Y-88.951
X147.416Y-91.491
X149.956Y-88.951
X149.956Y-91.491
X152.496Y-88.951
X152.496Y-91.491
X155.036Y-88.951
X155.036Y-91.491
X157.576Y-88.951
X157.576Y-91.491
X160.116Y-88.951
X160.116Y-91.491
X162.656Y-88.951
X162.656Y-91.491
X165.196Y-88.951
X165.196Y-91.491
X169.926Y-85.528
X172.466Y-85.528
X177.419Y-105.101
X177.419Y-107.641
X177.419Y-110.181
T0
M30
